{"glyphs":{":":{"x_min":0,"x_max":216,"ha":216,"o":"m 106 70 b 87 70 67 54 62 35 b 57 15 69 0 88 0 b 107 0 127 15 132 35 b 137 54 126 70 106 70 z m 149 230 b 129 230 110 215 105 195 b 99 176 111 160 130 160 b 150 160 169 176 174 195 b 180 215 168 230 149 230 z"},"$":{"x_min":0,"x_max":554,"ha":554,"o":"m 409 65 l 409 73 l 146 73 l 146 65 z m 305 109 l 305 125 l 312 125 l 312 130 l 293 130 l 293 125 l 299 125 l 299 109 z m 276 115 l 274 111 l 283 108 l 283 108 b 293 108 298 119 284 122 b 276 124 282 128 290 124 l 291 129 b 279 136 265 121 282 117 b 292 115 283 110 276 115 z m 314 130 b 314 120 311 108 324 108 l 324 108 b 336 108 334 120 334 130 l 328 130 b 328 122 329 113 324 113 b 318 113 320 122 320 130 z m 181 172 b 180 138 209 137 237 164 b 228 132 232 105 263 98 b 245 137 284 214 316 265 l 307 268 b 341 268 384 263 391 245 b 409 279 378 289 333 289 b 345 304 355 310 356 305 l 356 305 b 354 321 342 323 328 313 b 323 309 315 300 306 288 b 270 286 231 280 201 276 b 214 362 103 306 83 206 b 67 132 131 116 181 172 z m 110 199 b 117 265 200 343 186 274 b 174 272 165 271 159 271 b 158 256 171 259 182 260 b 174 239 153 219 133 240 b 109 201 171 167 198 260 l 193 261 l 290 268 b 290 268 290 268 290 268 l 290 268 l 290 268 b 280 253 269 235 259 217 l 259 217 b 249 202 238 182 221 174 b 210 169 199 171 205 188 b 215 184 231 190 240 201 b 262 227 226 257 199 223 l 199 223 b 182 198 165 163 131 166 b 117 167 107 177 110 199 z m 211 201 b 233 240 242 202 211 201 z m 390 129 b 372 138 364 108 384 108 b 397 108 399 124 390 129 z m 384 113 b 377 113 376 122 381 125 b 389 130 394 113 384 113 z m 360 119 b 360 132 345 130 338 130 l 338 109 b 345 109 360 107 360 119 z m 347 114 l 347 114 l 344 114 l 344 125 b 359 125 354 114 347 114 z m 415 13 b 415 22 424 21 425 16 l 431 17 l 431 17 l 431 17 b 428 29 408 28 408 12 b 408 -4 429 -5 432 8 l 425 9 b 424 3 415 2 415 13 z m 369 109 l 369 130 l 363 130 l 363 109 z m 80 392 b 61 387 45 403 50 424 b 57 454 116 479 153 476 b 141 462 123 438 108 412 b 106 417 106 422 106 427 b 82 423 82 402 95 390 b 69 338 56 285 101 274 b 91 295 103 339 122 380 b 189 380 237 456 185 480 b 191 484 194 482 194 481 l 194 481 b 192 498 177 499 165 488 l 167 486 b 117 495 42 473 24 428 b 6 384 53 351 80 392 z m 174 470 b 200 452 168 393 124 398 b 122 398 119 399 118 400 b 122 400 127 399 132 401 b 146 429 162 455 174 470 z m 435 13 b 435 -6 460 -4 460 12 b 460 29 435 29 435 13 z m 441 12 b 441 22 453 22 453 12 b 453 2 441 2 441 12 z m 485 21 b 482 26 475 26 470 21 l 470 25 l 464 25 l 464 0 l 471 0 b 471 6 470 17 473 19 b 482 25 479 7 479 0 l 486 0 b 486 6 485 17 488 19 b 496 25 494 7 494 0 l 500 0 l 500 16 b 500 28 490 27 485 21 z m 223 406 b 201 425 185 398 178 383 b 156 334 172 302 212 346 b 210 323 227 313 258 349 l 258 349 l 258 349 b 252 338 247 323 259 315 b 260 311 263 308 266 307 b 285 299 319 355 337 382 b 338 384 346 395 351 403 b 353 401 355 398 357 396 b 365 384 324 338 354 326 b 363 322 375 332 388 346 b 387 324 402 313 433 347 b 431 317 458 314 489 341 b 527 375 545 447 486 436 b 515 403 472 335 455 344 b 445 350 472 403 486 406 b 474 416 464 413 456 405 b 448 418 422 423 403 392 b 370 339 357 340 375 376 b 392 411 362 408 352 423 b 355 421 359 419 362 421 b 363 428 360 432 354 434 b 340 441 328 421 339 413 b 328 396 290 335 283 335 b 268 335 321 433 325 440 l 317 442 b 381 445 457 444 466 419 b 492 467 415 468 339 461 b 351 478 362 488 368 482 b 367 497 354 499 341 489 b 333 484 323 472 312 459 b 269 454 230 447 216 447 b 215 436 223 435 231 436 b 244 436 270 439 300 441 b 291 428 283 414 276 400 b 258 374 241 350 237 350 b 226 350 255 407 269 410 b 251 426 236 408 227 392 b 215 374 200 350 193 350 b 183 350 208 403 223 406 z m 447 393 b 448 393 448 393 448 393 l 448 393 l 447 393 b 447 393 447 393 447 393 b 444 388 420 350 413 350 b 405 350 433 414 447 393 z m 480 301 b 478 316 466 318 452 308 b 425 288 373 209 376 171 b 376 162 381 159 381 159 l 381 159 b 384 135 409 134 438 159 b 461 180 454 217 427 210 b 431 196 421 153 404 162 b 402 163 401 166 402 170 b 413 227 464 317 480 301 z m 69 8 l 65 25 l 59 25 l 54 8 l 50 25 l 44 25 l 51 0 l 58 0 l 62 16 l 66 0 l 72 0 l 80 25 l 74 25 z m 211 5 b 201 -1 204 21 204 25 l 197 25 l 197 9 b 197 -4 210 -2 213 4 l 213 0 l 213 0 l 213 0 l 219 0 l 219 25 l 213 25 b 213 18 214 8 211 5 z m 390 0 l 390 34 l 384 34 l 384 0 z m 248 21 l 248 25 l 242 25 l 242 0 l 248 0 b 248 6 246 24 255 18 l 257 24 b 253 26 250 25 248 21 z m 259 18 l 265 17 l 265 17 l 265 17 b 267 21 274 22 274 16 b 273 15 270 15 267 14 b 249 11 263 -8 274 3 l 275 0 l 281 0 l 280 16 b 280 30 262 27 259 18 z m 274 12 b 274 1 267 4 266 5 b 261 10 272 11 274 12 b 274 12 274 12 274 12 l 274 12 b 274 12 274 12 274 12 z m 292 13 b 292 22 301 21 301 16 l 308 17 l 308 17 l 308 17 b 304 29 285 28 285 12 b 285 -4 305 -5 308 8 l 302 9 b 301 3 292 2 292 13 z m 353 13 b 353 -6 379 -4 379 12 b 379 29 353 29 353 13 z m 360 12 b 360 22 372 22 372 12 b 372 2 360 2 360 12 z m 233 19 l 237 19 l 237 25 l 237 25 l 233 25 l 233 33 l 226 29 l 226 25 l 223 25 l 223 19 l 226 19 b 226 11 223 -6 238 0 l 237 5 b 231 3 233 6 233 19 z m 311 12 b 311 -4 330 -4 333 7 l 327 8 b 325 2 318 4 318 10 l 334 10 b 334 31 311 29 311 12 z m 318 14 b 318 22 327 22 327 14 z m 106 8 l 102 25 l 95 25 l 91 8 l 87 25 l 80 25 l 88 0 l 94 0 l 98 16 l 103 0 l 109 0 l 117 25 l 110 25 z m 162 0 l 162 7 l 155 7 l 155 0 z m 142 8 l 138 25 l 132 25 l 128 8 l 123 25 l 117 25 l 125 0 l 131 0 l 135 16 l 139 0 l 146 0 l 154 25 l 147 25 z m 332 244 b 351 244 350 219 342 198 b 328 158 290 152 315 201 b 323 216 334 231 341 233 b 323 249 306 230 296 208 b 279 168 286 148 302 146 b 331 143 367 179 374 213 b 380 244 357 263 332 244 z m 346 19 l 350 19 l 350 24 l 350 25 l 346 25 l 346 33 l 339 29 l 339 25 l 336 25 l 336 19 l 339 19 b 339 11 336 -6 351 0 l 350 5 b 344 3 346 6 346 19 z m 174 21 l 174 25 l 168 25 l 168 25 l 168 -9 l 175 -9 l 175 3 b 179 -2 185 -2 189 3 b 200 15 183 34 174 21 z m 175 13 l 175 13 b 175 13 175 13 175 13 b 175 22 185 23 185 12 b 185 1 175 2 175 13 z m 403 0 l 403 6 l 397 6 l 397 0 z"},"?":{"x_min":0,"x_max":545,"ha":545,"o":"m 480 65 l 480 73 l 217 73 l 217 65 z m 376 109 l 376 125 l 383 125 l 383 130 l 364 130 l 364 125 l 370 125 l 370 109 z m 347 115 l 345 111 l 354 108 l 354 108 b 364 108 369 119 355 122 b 347 124 353 128 361 124 l 362 129 b 350 136 336 121 353 117 b 363 115 354 110 347 115 z m 385 130 b 385 120 382 108 395 108 l 395 108 b 407 108 405 120 405 130 l 399 130 b 399 122 400 113 395 113 b 389 113 391 122 391 130 z m 252 172 b 251 138 280 137 308 164 b 299 132 303 105 334 98 b 316 137 355 214 387 265 l 378 268 b 412 268 455 263 462 245 b 480 279 449 289 404 289 b 416 304 426 310 427 305 l 427 305 b 425 321 413 323 399 313 b 394 309 386 300 377 288 b 341 286 302 280 272 276 b 285 362 174 306 154 206 b 138 132 202 116 252 172 z m 181 199 b 188 265 271 343 257 274 b 245 272 236 271 230 271 b 229 256 242 259 253 260 b 245 239 224 219 204 240 b 180 201 242 167 269 260 l 264 261 l 361 268 b 361 268 361 268 361 268 l 361 268 l 361 268 b 351 253 340 235 330 217 l 330 217 b 320 202 309 182 292 174 b 281 169 270 171 276 188 b 286 184 302 190 311 201 b 333 227 297 257 270 223 l 270 223 b 253 198 236 163 202 166 b 188 167 178 177 181 199 z m 282 201 b 304 240 313 202 282 201 z m 461 129 b 443 138 435 108 455 108 b 468 108 470 124 461 129 z m 455 113 b 448 113 447 122 452 125 b 460 130 465 113 455 113 z m 431 119 b 431 132 416 130 409 130 l 409 109 b 416 109 431 107 431 119 z m 418 114 l 418 114 l 415 114 l 415 125 b 430 125 425 114 418 114 z m 486 13 b 486 22 495 21 496 16 l 502 17 l 502 17 l 502 17 b 499 29 479 28 479 12 b 479 -4 500 -5 503 8 l 496 9 b 495 3 486 2 486 13 z m 440 109 l 440 130 l 434 130 l 434 109 z m 151 392 b 132 387 116 403 121 424 b 128 454 187 479 224 476 b 212 462 194 438 179 412 b 177 417 177 422 177 427 b 153 423 153 402 166 390 b 140 338 127 285 172 274 b 162 295 175 339 193 380 b 260 380 308 456 256 480 b 262 484 265 482 265 481 l 265 481 b 263 498 248 499 236 488 l 238 486 b 188 495 113 473 95 428 b 77 384 124 351 151 392 z m 245 470 b 271 452 239 393 195 398 b 193 398 190 399 189 400 b 193 400 198 399 203 401 b 217 429 233 455 245 470 z m 506 13 b 506 -6 531 -4 531 12 b 531 29 506 29 506 13 z m 512 12 b 512 22 524 22 524 12 b 524 2 512 2 512 12 z m 556 21 b 553 26 546 26 541 21 l 541 25 l 535 25 l 535 0 l 542 0 b 542 6 541 17 544 19 b 553 25 550 7 550 0 l 557 0 b 557 6 556 17 559 19 b 567 25 565 7 565 0 l 571 0 l 571 16 b 571 28 561 27 556 21 z m 294 406 b 272 425 256 398 249 383 b 227 334 243 302 283 346 b 281 323 298 313 329 349 l 329 349 l 329 349 b 323 338 318 323 330 315 b 331 311 334 308 337 307 b 356 299 390 355 408 382 b 409 384 417 395 422 403 b 424 401 426 398 428 396 b 436 384 395 338 425 326 b 434 322 446 332 459 346 b 458 324 473 313 504 347 b 502 317 529 314 560 341 b 598 375 616 447 557 436 b 586 403 543 335 526 344 b 516 350 543 403 557 406 b 545 416 535 413 527 405 b 519 418 493 423 474 392 b 441 339 428 340 446 376 b 463 411 433 408 423 423 b 426 421 430 419 433 421 b 434 428 431 432 425 434 b 411 441 399 421 410 413 b 399 396 361 335 354 335 b 339 335 392 433 396 440 l 388 442 b 452 445 528 444 537 419 b 563 467 486 468 410 461 b 422 478 433 488 439 482 b 438 497 425 499 412 489 b 404 484 394 472 383 459 b 340 454 301 447 287 447 b 286 436 294 435 302 436 b 315 436 341 439 371 441 b 362 428 354 414 347 400 b 329 374 312 350 308 350 b 297 350 326 407 340 410 b 322 426 307 408 298 392 b 286 374 271 350 264 350 b 254 350 279 403 294 406 z m 518 393 b 519 393 519 393 519 393 l 519 393 l 518 393 b 518 393 518 393 518 393 b 515 388 491 350 484 350 b 476 350 504 414 518 393 z m 551 301 b 549 316 537 318 523 308 b 496 288 444 209 447 171 b 447 162 452 159 452 159 l 452 159 b 455 135 480 134 509 159 b 532 180 525 217 498 210 b 502 196 492 153 475 162 b 473 163 472 166 473 170 b 484 227 535 317 551 301 z m 140 8 l 136 25 l 130 25 l 125 8 l 121 25 l 115 25 l 122 0 l 129 0 l 133 16 l 137 0 l 143 0 l 151 25 l 145 25 z m 282 5 b 272 -1 275 21 275 25 l 268 25 l 268 9 b 268 -4 281 -2 284 4 l 284 0 l 284 0 l 284 0 l 290 0 l 290 25 l 284 25 b 284 18 285 8 282 5 z m 461 0 l 461 34 l 455 34 l 455 0 z m 319 21 l 319 25 l 313 25 l 313 0 l 319 0 b 319 6 317 24 326 18 l 328 24 b 324 26 321 25 319 21 z m 330 18 l 336 17 l 336 17 l 336 17 b 338 21 345 22 345 16 b 344 15 341 15 338 14 b 320 11 334 -8 345 3 l 346 0 l 352 0 l 351 16 b 351 30 333 27 330 18 z m 345 12 b 345 1 338 4 337 5 b 332 10 343 11 345 12 b 345 12 345 12 345 12 l 345 12 b 345 12 345 12 345 12 z m 363 13 b 363 22 372 21 372 16 l 379 17 l 379 17 l 379 17 b 375 29 356 28 356 12 b 356 -4 376 -5 379 8 l 373 9 b 372 3 363 2 363 13 z m 424 13 b 424 -6 450 -4 450 12 b 450 29 424 29 424 13 z m 431 12 b 431 22 443 22 443 12 b 443 2 431 2 431 12 z m 304 19 l 308 19 l 308 25 l 308 25 l 304 25 l 304 33 l 297 29 l 297 25 l 294 25 l 294 19 l 297 19 b 297 11 294 -6 309 0 l 308 5 b 302 3 304 6 304 19 z m 382 12 b 382 -4 401 -4 404 7 l 398 8 b 396 2 389 4 389 10 l 405 10 b 405 31 382 29 382 12 z m 389 14 b 389 22 398 22 398 14 z m 177 8 l 173 25 l 166 25 l 162 8 l 158 25 l 151 25 l 159 0 l 165 0 l 169 16 l 174 0 l 180 0 l 188 25 l 181 25 z m 233 0 l 233 7 l 226 7 l 226 0 z m 213 8 l 209 25 l 203 25 l 199 8 l 194 25 l 188 25 l 196 0 l 202 0 l 206 16 l 210 0 l 217 0 l 225 25 l 218 25 z m 403 244 b 422 244 421 219 413 198 b 399 158 361 152 386 201 b 394 216 405 231 412 233 b 394 249 377 230 367 208 b 350 168 357 148 373 146 b 402 143 438 179 445 213 b 451 244 428 263 403 244 z m 417 19 l 421 19 l 421 24 l 421 25 l 417 25 l 417 33 l 410 29 l 410 25 l 407 25 l 407 19 l 410 19 b 410 11 407 -6 422 0 l 421 5 b 415 3 417 6 417 19 z m 245 21 l 245 25 l 239 25 l 239 25 l 239 -9 l 246 -9 l 246 3 b 250 -2 256 -2 260 3 b 271 15 254 34 245 21 z m 246 13 l 246 13 b 246 13 246 13 246 13 b 246 22 256 23 256 12 b 256 1 246 2 246 13 z m 474 0 l 474 6 l 468 6 l 468 0 z"},"<":{"x_min":0,"x_max":356,"ha":356,"o":"m 335 307 b 355 318 362 340 349 359 b 340 373 322 381 306 373 l 305 373 l 101 231 b 86 223 76 204 82 187 b 84 181 88 176 93 172 l 243 50 l 244 49 b 260 39 281 46 292 59 b 304 74 289 94 281 106 b 270 122 257 137 245 152 b 233 166 222 180 210 193 b 208 195 206 198 204 200 z"},"'":{"x_min":0,"x_max":175,"ha":175,"o":"m 156 747 b 139 752 117 740 107 722 b 96 701 104 672 129 673 b 121 664 117 659 107 655 b 103 653 101 649 101 646 b 102 643 105 641 109 643 b 129 650 150 668 161 688 b 174 711 185 738 156 747 z"},"=":{"x_min":0,"x_max":332,"ha":332,"o":"m 44 199 l 44 199 b 36 199 30 193 28 186 b 26 178 31 169 40 169 l 292 169 b 301 169 309 186 311 193 b 314 201 308 209 299 209 z m 272 106 l 17 96 l 17 96 b 9 95 2 90 0 83 b -2 74 4 66 13 66 l 265 66 b 274 66 282 82 284 90 b 286 98 280 106 272 106 z"},"a":{"x_min":0,"x_max":333,"ha":333,"o":"m 212 167 b 204 122 182 77 191 49 b 203 4 264 -18 310 19 b 350 51 373 114 387 165 b 391 179 394 191 396 203 b 398 215 391 225 378 225 b 366 225 354 215 351 203 b 349 194 347 183 344 171 b 332 129 313 74 286 51 b 281 48 276 45 271 45 b 247 49 275 139 279 155 b 288 183 297 212 303 240 b 316 302 276 371 200 357 b 195 365 186 370 176 371 b 168 371 161 369 155 366 b 148 370 141 371 133 371 b 111 368 96 346 99 325 b 99 320 101 316 103 312 b -10 223 -49 36 36 6 b 41 3 45 2 50 1 b 98 -8 149 49 212 167 z m 116 322 b 115 324 115 325 114 327 b 112 347 134 363 149 350 b 150 349 151 347 152 346 b 152 346 153 344 153 343 l 153 342 l 154 342 l 154 342 l 154 342 l 154 342 l 154 342 l 154 342 l 154 343 l 154 343 l 154 343 l 155 343 l 155 344 b 155 344 156 345 157 347 b 158 348 160 350 161 351 b 165 353 170 355 175 355 b 177 355 180 354 182 353 l 183 352 b 183 352 184 351 184 351 l 185 351 l 185 351 l 186 350 l 186 350 l 186 350 l 186 349 l 186 349 l 187 349 l 187 349 b 187 348 188 348 188 348 l 188 347 l 188 347 l 188 347 l 189 346 l 189 346 l 189 346 l 189 345 l 189 345 l 189 345 l 189 345 l 190 344 l 190 344 l 190 343 l 190 342 l 190 342 l 190 341 l 191 341 l 191 340 l 191 340 l 191 339 l 191 339 l 191 337 l 191 337 l 191 335 b 191 335 191 334 191 334 l 191 333 l 191 332 l 191 332 l 191 331 b 191 331 191 330 191 330 l 191 329 l 191 329 l 190 329 l 190 328 l 190 328 l 190 327 l 190 327 l 190 327 l 190 326 b 182 308 162 304 151 291 b 149 289 149 287 148 286 l 147 287 b 146 290 145 292 143 294 l 140 297 l 140 298 l 139 298 l 139 298 l 139 298 l 139 298 l 138 299 l 138 299 l 137 299 l 137 300 l 137 300 l 136 300 l 136 301 l 136 301 l 135 301 l 135 301 l 135 301 l 135 302 l 134 302 l 134 302 l 133 303 l 133 303 l 132 303 l 132 303 l 132 304 l 132 304 l 131 305 l 131 305 l 130 305 l 130 305 l 130 305 l 128 306 l 128 307 l 128 307 l 128 307 l 127 307 l 127 308 l 127 308 l 126 308 l 126 308 l 126 309 l 125 309 l 125 309 l 124 310 l 124 310 l 123 311 l 123 311 l 123 312 l 122 312 l 122 312 l 121 313 l 120 314 l 120 315 l 120 315 b 119 315 119 316 118 317 l 118 317 l 118 317 l 117 318 l 117 319 l 117 320 l 117 320 l 116 320 l 116 320 l 116 321 l 116 321 z m 224 293 l 222 286 b 221 283 220 281 219 278 b 212 264 163 158 127 106 b 103 72 76 55 92 104 b 112 164 200 302 226 304 b 227 304 229 304 231 304 b 231 302 230 300 229 298 z"},"L":{"x_min":0,"x_max":584,"ha":584,"o":"m 324 659 b 326 640 328 617 329 593 b 308 583 296 560 299 537 b 302 519 313 506 326 495 l 327 495 b 315 325 262 115 149 31 b 107 36 61 32 13 7 b 4 3 -1 -8 0 -17 b 0 -25 5 -32 12 -36 b 15 -37 19 -39 23 -39 b 49 -43 75 -43 99 -39 b 120 -37 141 -30 160 -20 b 199 -27 237 -44 274 -59 b 376 -103 468 -142 559 -15 b 566 -5 565 10 555 18 b 545 26 531 24 523 14 b 453 -83 376 -51 290 -15 b 265 -4 240 7 214 16 b 381 156 487 516 464 675 b 461 699 319 694 324 659 z m 353 496 b 339 508 319 519 316 539 b 312 568 344 592 366 572 b 368 571 369 569 370 567 b 371 566 372 561 373 561 b 375 563 374 564 378 568 b 379 570 382 573 384 574 b 389 577 396 580 403 580 b 422 578 432 557 424 538 b 414 512 385 506 369 487 b 367 485 365 482 364 481 l 363 482 b 362 486 360 489 358 492 z"},"3":{"x_min":0,"x_max":534,"ha":534,"o":"m 409 65 l 409 73 l 146 73 l 146 65 z m 305 109 l 305 125 l 312 125 l 312 130 l 293 130 l 293 125 l 299 125 l 299 109 z m 276 115 l 274 111 l 283 108 l 283 108 b 293 108 298 119 284 122 b 276 124 282 128 290 124 l 291 129 b 279 136 265 121 282 117 b 292 115 283 110 276 115 z m 314 130 b 314 120 311 108 324 108 l 324 108 b 336 108 334 120 334 130 l 328 130 b 328 122 329 113 324 113 b 318 113 320 122 320 130 z m 181 172 b 180 138 209 137 237 164 b 228 132 232 105 263 98 b 245 137 284 214 316 265 l 307 268 b 341 268 384 263 391 245 b 409 279 378 289 333 289 b 345 304 355 310 356 305 l 356 305 b 354 321 342 323 328 313 b 323 309 315 300 306 288 b 270 286 231 280 201 276 b 214 362 103 306 83 206 b 67 132 131 116 181 172 z m 110 199 b 117 265 200 343 186 274 b 174 272 165 271 159 271 b 158 256 171 259 182 260 b 174 239 153 219 133 240 b 109 201 171 167 198 260 l 193 261 l 290 268 b 290 268 290 268 290 268 l 290 268 l 290 268 b 280 253 269 235 259 217 l 259 217 b 249 202 238 182 221 174 b 210 169 199 171 205 188 b 215 184 231 190 240 201 b 262 227 226 257 199 223 l 199 223 b 182 198 165 163 131 166 b 117 167 107 177 110 199 z m 211 201 b 233 240 242 202 211 201 z m 390 129 b 372 138 364 108 384 108 b 397 108 399 124 390 129 z m 384 113 b 377 113 376 122 381 125 b 389 130 394 113 384 113 z m 360 119 b 360 132 345 130 338 130 l 338 109 b 345 109 360 107 360 119 z m 347 114 l 347 114 l 344 114 l 344 125 b 359 125 354 114 347 114 z m 415 13 b 415 22 424 21 425 16 l 431 17 l 431 17 l 431 17 b 428 29 408 28 408 12 b 408 -4 429 -5 432 8 l 425 9 b 424 3 415 2 415 13 z m 369 109 l 369 130 l 363 130 l 363 109 z m 80 392 b 61 387 45 403 50 424 b 57 454 116 479 153 476 b 141 462 123 438 108 412 b 106 417 106 422 106 427 b 82 423 82 402 95 390 b 69 338 56 285 101 274 b 91 295 103 339 122 380 b 189 380 237 456 185 480 b 191 484 194 482 194 481 l 194 481 b 192 498 177 499 165 488 l 167 486 b 117 495 42 473 24 428 b 6 384 53 351 80 392 z m 174 470 b 200 452 168 393 124 398 b 122 398 119 399 118 400 b 122 400 127 399 132 401 b 146 429 162 455 174 470 z m 435 13 b 435 -6 460 -4 460 12 b 460 29 435 29 435 13 z m 441 12 b 441 22 453 22 453 12 b 453 2 441 2 441 12 z m 485 21 b 482 26 475 26 470 21 l 470 25 l 464 25 l 464 0 l 471 0 b 471 6 470 17 473 19 b 482 25 479 7 479 0 l 486 0 b 486 6 485 17 488 19 b 496 25 494 7 494 0 l 500 0 l 500 16 b 500 28 490 27 485 21 z m 223 406 b 201 425 185 398 178 383 b 156 334 172 302 212 346 b 210 323 227 313 258 349 l 258 349 l 258 349 b 252 338 247 323 259 315 b 260 311 263 308 266 307 b 285 299 319 355 337 382 b 338 384 346 395 351 403 b 353 401 355 398 357 396 b 365 384 324 338 354 326 b 363 322 375 332 388 346 b 387 324 402 313 433 347 b 431 317 458 314 489 341 b 527 375 545 447 486 436 b 515 403 472 335 455 344 b 445 350 472 403 486 406 b 474 416 464 413 456 405 b 448 418 422 423 403 392 b 370 339 357 340 375 376 b 392 411 362 408 352 423 b 355 421 359 419 362 421 b 363 428 360 432 354 434 b 340 441 328 421 339 413 b 328 396 290 335 283 335 b 268 335 321 433 325 440 l 317 442 b 381 445 457 444 466 419 b 492 467 415 468 339 461 b 351 478 362 488 368 482 b 367 497 354 499 341 489 b 333 484 323 472 312 459 b 269 454 230 447 216 447 b 215 436 223 435 231 436 b 244 436 270 439 300 441 b 291 428 283 414 276 400 b 258 374 241 350 237 350 b 226 350 255 407 269 410 b 251 426 236 408 227 392 b 215 374 200 350 193 350 b 183 350 208 403 223 406 z m 447 393 b 448 393 448 393 448 393 l 448 393 l 447 393 b 447 393 447 393 447 393 b 444 388 420 350 413 350 b 405 350 433 414 447 393 z m 480 301 b 478 316 466 318 452 308 b 425 288 373 209 376 171 b 376 162 381 159 381 159 l 381 159 b 384 135 409 134 438 159 b 461 180 454 217 427 210 b 431 196 421 153 404 162 b 402 163 401 166 402 170 b 413 227 464 317 480 301 z m 69 8 l 65 25 l 59 25 l 54 8 l 50 25 l 44 25 l 51 0 l 58 0 l 62 16 l 66 0 l 72 0 l 80 25 l 74 25 z m 211 5 b 201 -1 204 21 204 25 l 197 25 l 197 9 b 197 -4 210 -2 213 4 l 213 0 l 213 0 l 213 0 l 219 0 l 219 25 l 213 25 b 213 18 214 8 211 5 z m 390 0 l 390 34 l 384 34 l 384 0 z m 248 21 l 248 25 l 242 25 l 242 0 l 248 0 b 248 6 246 24 255 18 l 257 24 b 253 26 250 25 248 21 z m 259 18 l 265 17 l 265 17 l 265 17 b 267 21 274 22 274 16 b 273 15 270 15 267 14 b 249 11 263 -8 274 3 l 275 0 l 281 0 l 280 16 b 280 30 262 27 259 18 z m 274 12 b 274 1 267 4 266 5 b 261 10 272 11 274 12 b 274 12 274 12 274 12 l 274 12 b 274 12 274 12 274 12 z m 292 13 b 292 22 301 21 301 16 l 308 17 l 308 17 l 308 17 b 304 29 285 28 285 12 b 285 -4 305 -5 308 8 l 302 9 b 301 3 292 2 292 13 z m 353 13 b 353 -6 379 -4 379 12 b 379 29 353 29 353 13 z m 360 12 b 360 22 372 22 372 12 b 372 2 360 2 360 12 z m 233 19 l 237 19 l 237 25 l 237 25 l 233 25 l 233 33 l 226 29 l 226 25 l 223 25 l 223 19 l 226 19 b 226 11 223 -6 238 0 l 237 5 b 231 3 233 6 233 19 z m 311 12 b 311 -4 330 -4 333 7 l 327 8 b 325 2 318 4 318 10 l 334 10 b 334 31 311 29 311 12 z m 318 14 b 318 22 327 22 327 14 z m 106 8 l 102 25 l 95 25 l 91 8 l 87 25 l 80 25 l 88 0 l 94 0 l 98 16 l 103 0 l 109 0 l 117 25 l 110 25 z m 162 0 l 162 7 l 155 7 l 155 0 z m 142 8 l 138 25 l 132 25 l 128 8 l 123 25 l 117 25 l 125 0 l 131 0 l 135 16 l 139 0 l 146 0 l 154 25 l 147 25 z m 332 244 b 351 244 350 219 342 198 b 328 158 290 152 315 201 b 323 216 334 231 341 233 b 323 249 306 230 296 208 b 279 168 286 148 302 146 b 331 143 367 179 374 213 b 380 244 357 263 332 244 z m 346 19 l 350 19 l 350 24 l 350 25 l 346 25 l 346 33 l 339 29 l 339 25 l 336 25 l 336 19 l 339 19 b 339 11 336 -6 351 0 l 350 5 b 344 3 346 6 346 19 z m 174 21 l 174 25 l 168 25 l 168 25 l 168 -9 l 175 -9 l 175 3 b 179 -2 185 -2 189 3 b 200 15 183 34 174 21 z m 175 13 l 175 13 b 175 13 175 13 175 13 b 175 22 185 23 185 12 b 185 1 175 2 175 13 z m 403 0 l 403 6 l 397 6 l 397 0 z"},";":{"x_min":0,"x_max":216,"ha":216,"o":"m 106 70 b 87 70 67 54 62 35 b 56 13 73 -10 98 -4 b 93 -13 91 -19 81 -25 b 77 -28 76 -32 77 -34 b 78 -37 82 -38 86 -36 b 105 -24 121 -2 127 18 b 135 42 139 70 106 70 z m 149 232 b 130 232 110 217 105 197 b 99 176 116 152 141 159 b 135 149 133 143 123 137 b 120 135 118 131 120 128 b 121 125 125 125 129 127 b 148 139 164 161 170 181 b 177 205 181 232 149 232 z"},"J":{"x_min":0,"x_max":465,"ha":465,"o":"m 401 680 b 390 680 380 671 379 660 b 375 624 341 549 299 492 b 270 453 239 422 216 424 b 204 426 193 416 192 404 b 191 391 200 380 212 379 b 254 376 298 414 336 466 b 354 491 372 520 386 549 b 385 510 382 468 375 426 b 372 427 370 427 367 426 b 338 423 318 395 322 366 b 324 348 335 336 349 325 b 351 324 352 323 353 322 b 345 292 336 263 324 236 b 260 250 192 242 136 222 b 98 209 65 190 42 169 b -106 35 170 -130 373 170 b 391 160 407 147 422 132 b 430 122 445 122 454 130 b 463 139 463 153 455 162 b 437 181 418 196 397 208 b 488 361 537 562 521 675 b 519 693 440 694 401 680 z m 376 326 b 362 338 342 348 339 369 b 335 398 367 422 389 402 b 390 401 392 398 393 397 b 394 395 395 391 395 390 b 397 393 397 394 400 398 b 402 400 405 402 407 404 b 412 407 419 410 426 409 b 445 408 455 387 447 368 b 437 342 408 336 392 317 b 389 314 388 312 387 310 l 386 312 b 385 315 382 318 380 321 z m 305 194 b 183 -43 -24 48 72 135 b 91 153 119 168 151 180 b 197 196 253 203 305 194 z"},"V":{"x_min":0,"x_max":260,"ha":260,"o":"m 109 693 b 96 690 82 661 67 618 b 65 618 63 618 60 618 b 32 615 12 586 16 558 b 18 541 28 529 40 519 b -4 322 -28 27 64 -5 b 85 -12 109 -11 115 -5 b 121 -4 126 1 128 7 b 237 299 284 438 446 712 b 452 721 450 734 441 740 b 432 746 420 744 413 735 b 265 493 226 376 121 127 b 121 131 121 134 121 138 b 124 193 140 316 150 370 b 153 389 156 408 160 426 b 169 478 180 529 192 579 b 196 600 210 661 203 680 b 200 689 191 693 182 695 b 179 696 176 696 172 696 b 166 696 115 695 109 693 z m 70 517 b 56 530 36 540 33 560 b 29 589 61 613 83 593 b 84 592 86 590 87 588 b 88 587 89 583 89 582 b 91 584 91 586 94 589 b 96 591 99 594 101 595 b 106 598 112 601 120 600 b 139 599 149 578 141 559 b 131 534 102 527 85 508 b 83 505 82 503 81 502 l 80 503 b 79 507 77 510 74 513 z"},"\"":{"x_min":0,"x_max":305,"ha":305,"o":"m 287 747 b 269 752 247 740 237 722 b 226 701 235 672 259 673 b 251 664 248 659 237 655 b 234 653 231 649 231 646 b 232 643 235 641 239 643 b 260 650 280 668 291 688 b 304 711 315 738 287 747 z m 155 747 b 138 752 116 740 106 722 b 95 701 103 672 128 673 b 120 664 116 659 106 655 b 102 653 100 649 100 646 b 100 643 104 641 108 643 b 128 650 149 668 160 688 b 173 711 184 738 155 747 z"},"7":{"x_min":0,"x_max":544,"ha":544,"o":"m 429 65 l 429 73 l 166 73 l 166 65 z m 325 109 l 325 125 l 332 125 l 332 130 l 313 130 l 313 125 l 319 125 l 319 109 z m 296 115 l 294 111 l 303 108 l 303 108 b 313 108 318 119 304 122 b 296 124 302 128 310 124 l 311 129 b 299 136 285 121 302 117 b 312 115 303 110 296 115 z m 334 130 b 334 120 331 108 344 108 l 344 108 b 356 108 354 120 354 130 l 348 130 b 348 122 349 113 344 113 b 338 113 340 122 340 130 z m 201 172 b 200 138 229 137 257 164 b 248 132 252 105 283 98 b 265 137 304 214 336 265 l 327 268 b 361 268 404 263 411 245 b 429 279 398 289 353 289 b 365 304 375 310 376 305 l 376 305 b 374 321 362 323 348 313 b 343 309 335 300 326 288 b 290 286 251 280 221 276 b 234 362 123 306 103 206 b 87 132 151 116 201 172 z m 130 199 b 137 265 220 343 206 274 b 194 272 185 271 179 271 b 178 256 191 259 202 260 b 194 239 173 219 153 240 b 129 201 191 167 218 260 l 213 261 l 310 268 b 310 268 310 268 310 268 l 310 268 l 310 268 b 300 253 289 235 279 217 l 279 217 b 269 202 258 182 241 174 b 230 169 219 171 225 188 b 235 184 251 190 260 201 b 282 227 246 257 219 223 l 219 223 b 202 198 185 163 151 166 b 137 167 127 177 130 199 z m 232 201 b 253 240 262 202 232 201 z m 410 129 b 392 138 384 108 404 108 b 417 108 419 124 410 129 z m 404 113 b 397 113 396 122 401 125 b 409 130 414 113 404 113 z m 380 119 b 380 132 365 130 358 130 l 358 109 b 365 109 380 107 380 119 z m 367 114 l 367 114 l 364 114 l 364 125 b 379 125 374 114 367 114 z m 435 13 b 435 22 444 21 445 16 l 451 17 l 451 17 l 451 17 b 448 29 428 28 428 12 b 428 -4 449 -5 452 8 l 445 9 b 444 3 435 2 435 13 z m 389 109 l 389 130 l 383 130 l 383 109 z m 100 392 b 81 387 65 403 70 424 b 77 454 136 479 173 476 b 161 462 143 438 128 412 b 126 417 126 422 126 427 b 102 423 102 402 115 390 b 89 338 76 285 121 274 b 111 295 124 339 142 380 b 209 380 257 456 205 480 b 211 484 214 482 214 481 l 214 481 b 212 498 197 499 185 488 l 187 486 b 137 495 62 473 44 428 b 26 384 73 351 100 392 z m 194 470 b 220 452 188 393 144 398 b 142 398 139 399 138 400 b 142 400 147 399 152 401 b 166 429 182 455 194 470 z m 455 13 b 455 -6 480 -4 480 12 b 480 29 455 29 455 13 z m 461 12 b 461 22 473 22 473 12 b 473 2 461 2 461 12 z m 505 21 b 502 26 495 26 490 21 l 490 25 l 484 25 l 484 0 l 491 0 b 491 6 490 17 493 19 b 502 25 499 7 499 0 l 506 0 b 506 6 505 17 508 19 b 516 25 514 7 514 0 l 520 0 l 520 16 b 520 28 510 27 505 21 z m 243 406 b 221 425 205 398 198 383 b 176 334 192 302 232 346 b 230 323 247 313 278 349 l 278 349 l 278 349 b 272 338 267 323 279 315 b 280 311 283 308 286 307 b 305 299 339 355 357 382 b 358 384 366 395 371 403 b 373 401 375 398 377 396 b 385 384 344 338 374 326 b 383 322 395 332 408 346 b 407 324 422 313 453 347 b 451 317 478 314 509 341 b 547 375 565 447 506 436 b 535 403 492 335 475 344 b 465 350 492 403 506 406 b 494 416 484 413 476 405 b 468 418 442 423 423 392 b 390 339 377 340 395 376 b 412 411 382 408 372 423 b 375 421 379 419 382 421 b 383 428 380 432 374 434 b 360 441 348 421 359 413 b 348 396 310 335 303 335 b 288 335 341 433 345 440 l 337 442 b 401 445 477 444 486 419 b 512 467 435 468 359 461 b 371 478 382 488 388 482 b 387 497 374 499 361 489 b 353 484 343 472 332 459 b 289 454 250 447 236 447 b 235 436 243 435 251 436 b 264 436 290 439 320 441 b 311 428 303 414 296 400 b 278 374 261 350 257 350 b 246 350 275 407 289 410 b 271 426 256 408 247 392 b 235 374 220 350 213 350 b 203 350 228 403 243 406 z m 467 393 b 468 393 468 393 468 393 l 468 393 l 467 393 b 467 393 467 393 467 393 b 464 388 440 350 433 350 b 425 350 453 414 467 393 z m 500 301 b 498 316 486 318 472 308 b 445 288 393 209 396 171 b 396 162 401 159 401 159 l 401 159 b 404 135 429 134 458 159 b 481 180 474 217 447 210 b 451 196 441 153 424 162 b 422 163 421 166 422 170 b 433 227 484 317 500 301 z m 89 8 l 85 25 l 79 25 l 74 8 l 70 25 l 64 25 l 71 0 l 78 0 l 82 16 l 86 0 l 92 0 l 100 25 l 94 25 z m 231 5 b 221 -1 224 21 224 25 l 217 25 l 217 9 b 217 -4 230 -2 233 4 l 233 0 l 233 0 l 234 0 l 239 0 l 239 25 l 233 25 b 233 18 234 8 231 5 z m 410 0 l 410 34 l 404 34 l 404 0 z m 268 21 l 268 25 l 262 25 l 262 0 l 268 0 b 268 6 266 24 275 18 l 277 24 b 273 26 270 25 268 21 z m 279 18 l 285 17 l 285 17 l 285 17 b 287 21 294 22 294 16 b 293 15 290 15 287 14 b 269 11 283 -8 294 3 l 295 0 l 301 0 l 300 16 b 300 30 282 27 279 18 z m 294 12 b 294 1 287 4 286 5 b 281 10 292 11 294 12 b 294 12 294 12 294 12 l 294 12 b 294 12 294 12 294 12 z m 312 13 b 312 22 321 21 321 16 l 328 17 l 328 17 l 328 17 b 324 29 305 28 305 12 b 305 -4 325 -5 328 8 l 322 9 b 321 3 312 2 312 13 z m 373 13 b 373 -6 399 -4 399 12 b 399 29 373 29 373 13 z m 380 12 b 380 22 392 22 392 12 b 392 2 380 2 380 12 z m 253 19 l 257 19 l 257 25 l 257 25 l 253 25 l 253 33 l 246 29 l 246 25 l 243 25 l 243 19 l 246 19 b 246 11 243 -6 258 0 l 257 5 b 251 3 253 6 253 19 z m 331 12 b 331 -4 350 -4 353 7 l 347 8 b 345 2 338 4 338 10 l 354 10 b 354 31 331 29 331 12 z m 338 14 b 338 22 347 22 347 14 z m 126 8 l 122 25 l 115 25 l 111 8 l 107 25 l 100 25 l 108 0 l 114 0 l 118 16 l 123 0 l 129 0 l 137 25 l 130 25 z m 182 0 l 182 7 l 175 7 l 175 0 z m 162 8 l 158 25 l 152 25 l 148 8 l 143 25 l 137 25 l 145 0 l 151 0 l 155 16 l 159 0 l 166 0 l 174 25 l 167 25 z m 352 244 b 371 244 370 219 362 198 b 348 158 310 152 335 201 b 343 216 354 231 361 233 b 343 249 326 230 316 208 b 299 168 306 148 322 146 b 351 143 387 179 394 213 b 400 244 377 263 352 244 z m 366 19 l 370 19 l 370 24 l 370 25 l 366 25 l 366 33 l 359 29 l 359 25 l 356 25 l 356 19 l 359 19 b 359 11 356 -6 371 0 l 370 5 b 364 3 366 6 366 19 z m 194 21 l 194 25 l 188 25 l 188 25 l 188 -9 l 195 -9 l 195 3 b 199 -2 205 -2 209 3 b 220 15 203 34 194 21 z m 195 13 l 195 13 b 195 13 195 13 195 13 b 195 22 205 23 205 12 b 205 1 195 2 195 13 z m 423 0 l 423 6 l 417 6 l 417 0 z"},"S":{"x_min":0,"x_max":449,"ha":449,"o":"m 346 428 b 442 565 431 645 380 680 b 309 730 186 682 139 617 b 138 616 137 615 137 614 b 126 614 116 611 108 605 b 108 605 108 605 108 605 b 99 611 88 615 78 613 b 49 610 29 582 33 554 b 35 535 46 523 60 512 b 65 508 70 505 75 500 l 78 497 b 83 490 91 468 101 473 b 122 356 264 264 294 170 b 330 61 197 -27 95 62 b 75 78 60 100 52 124 b 45 147 44 173 53 199 b 64 231 90 264 135 295 b 146 302 148 316 141 326 b 134 337 120 339 110 332 b 55 296 24 254 10 213 b -2 177 -1 142 9 110 b 20 78 39 50 65 27 b 206 -95 414 50 413 202 b 412 351 174 420 156 524 b 157 524 157 524 158 525 b 165 532 170 539 174 548 b 179 561 179 576 174 588 b 175 589 175 590 176 590 b 209 636 304 678 354 643 b 385 622 386 563 309 454 b 302 444 305 429 315 422 b 325 415 339 418 346 428 z m 87 513 b 73 525 53 535 50 556 b 46 585 78 609 100 589 b 101 588 103 586 104 584 b 104 582 106 578 106 577 b 108 580 108 581 111 585 b 113 587 116 589 118 591 b 122 594 129 597 136 596 b 156 595 166 574 158 555 b 148 529 119 523 102 504 b 100 501 99 499 98 497 l 97 499 b 96 503 94 505 91 508 z"},"}":{"x_min":0,"x_max":343,"ha":343,"o":"m 0 -10 b 69 -64 192 25 226 125 b 237 160 244 195 254 231 b 260 256 270 286 289 304 b 300 316 322 330 336 341 b 306 374 295 374 305 423 b 311 452 320 481 328 509 b 340 553 351 606 332 649 b 312 694 262 731 188 708 b 207 705 286 688 251 559 b 244 533 235 509 227 484 b 221 465 213 447 207 427 b 200 404 212 374 222 350 b 187 317 166 263 157 219 b 140 131 107 11 0 -10 z"},"Z":{"x_min":0,"x_max":502,"ha":502,"o":"m 621 664 b 621 668 619 672 617 675 b 610 683 597 685 589 678 b 537 636 466 651 393 667 b 298 688 200 709 117 626 b 110 618 110 606 117 598 b 125 590 137 590 145 598 b 213 666 300 647 384 629 b 419 621 454 613 487 611 l 483 609 b 470 596 456 581 443 565 b 438 567 434 568 429 568 b 418 569 408 566 399 560 b 390 566 380 569 369 568 b 340 565 320 536 324 508 b 326 490 337 478 351 467 b 356 463 360 460 364 456 b 294 349 223 222 161 134 b 152 139 142 141 132 143 b 110 146 86 143 65 135 b 43 126 24 112 12 95 b 5 85 1 73 0 60 b 0 48 2 37 8 25 b 9 22 11 19 13 16 b 14 15 15 14 17 13 b 22 7 29 1 39 -4 l 39 -4 b 100 -43 162 -21 223 34 b 228 28 234 22 240 16 b 302 -50 368 -120 457 -101 b 468 -98 475 -88 473 -77 b 470 -66 460 -60 449 -62 b 382 -77 323 -15 269 43 b 263 49 257 56 251 62 b 398 222 531 555 601 638 b 606 641 610 644 614 647 b 615 648 615 648 616 649 b 621 652 623 659 621 664 z m 137 101 b 118 74 89 33 64 30 b 61 30 58 31 56 32 b 50 34 46 40 44 42 l 44 42 b 41 48 39 53 40 58 b 40 63 42 68 45 73 b 52 83 64 92 79 98 b 94 103 111 106 127 104 b 130 103 133 102 137 101 z m 378 468 b 364 480 344 490 341 511 b 337 540 369 564 391 544 b 392 543 394 540 395 539 b 396 537 397 533 398 532 b 399 535 399 536 402 539 b 404 542 407 544 409 545 b 414 549 420 551 428 551 b 447 549 457 529 449 509 b 439 484 410 478 394 458 b 391 456 390 453 389 452 l 388 454 b 387 457 385 460 382 463 z"},"x":{"x_min":0,"x_max":280,"ha":280,"o":"m 187 195 b 190 201 193 207 197 212 b 234 276 257 314 277 310 b 289 307 302 315 305 327 b 309 339 302 351 290 354 b 244 363 219 333 180 269 b 178 282 177 295 175 308 b 180 311 184 313 187 317 b 193 322 197 328 199 334 b 209 357 197 383 171 385 b 164 385 156 383 150 380 b 144 384 136 386 129 385 b 109 383 94 365 94 346 b 79 338 65 323 58 311 b 37 271 26 232 17 191 b 15 179 22 169 34 169 b 46 169 57 179 60 191 b 64 210 69 231 76 251 b 80 214 83 177 88 140 l 91 124 b 64 85 60 71 27 46 b 15 48 3 39 0 26 b -2 14 6 3 18 1 b 56 -3 74 34 104 71 b 111 55 120 40 132 29 b 173 -9 241 -11 284 50 b 315 94 332 155 342 203 b 344 215 337 224 325 224 b 314 224 302 215 299 203 b 292 165 280 121 260 85 b 224 20 187 185 187 195 z m 111 352 b 115 366 132 375 145 364 b 145 363 147 362 147 361 b 148 359 149 357 149 356 b 150 358 150 359 153 361 b 154 363 155 364 157 365 b 160 368 165 369 170 369 b 184 368 190 354 185 340 b 182 334 177 329 172 324 l 171 324 l 170 323 l 170 323 l 170 323 l 170 323 l 169 322 l 169 322 l 168 322 l 168 322 l 168 321 l 167 321 l 167 321 l 165 320 l 165 319 l 165 319 l 164 319 l 164 319 l 164 319 l 163 318 l 162 318 l 162 318 l 162 318 l 162 317 l 161 317 l 160 317 l 160 316 l 160 316 l 160 316 l 159 316 l 159 315 l 159 315 l 158 315 l 158 315 l 158 315 l 157 315 l 157 314 l 156 314 l 156 313 l 155 313 l 155 313 l 155 312 l 154 312 l 154 312 l 154 312 l 153 311 l 153 311 l 153 311 l 152 311 l 152 310 l 152 310 l 150 309 l 150 309 l 150 308 l 150 308 l 149 308 l 149 308 l 149 308 l 148 307 l 148 307 l 148 307 l 148 306 l 147 306 l 147 306 l 147 306 l 147 305 l 146 305 b 145 303 144 301 143 301 l 143 302 b 142 304 140 306 138 308 l 136 311 b 126 320 112 327 110 341 l 110 342 l 109 343 l 109 346 l 110 347 l 110 349 l 110 349 l 110 350 l 110 350 l 110 351 l 110 351 l 110 351 z"},")":{"x_min":0,"x_max":310,"ha":310,"o":"m 58 37 b 20 29 21 -25 59 -31 l 62 -32 l 65 -32 b 133 -29 175 38 201 93 b 236 168 257 251 277 331 b 277 333 278 334 278 336 b 279 338 279 340 280 342 b 299 411 319 482 327 554 b 332 602 335 673 292 706 b 278 716 263 720 246 721 l 243 721 l 240 721 b 202 715 199 662 236 653 b 238 651 240 644 240 642 b 242 633 243 623 243 613 b 242 597 241 581 238 565 b 228 495 209 425 192 356 b 192 355 192 354 191 353 b 191 352 191 351 190 350 b 170 276 151 200 122 128 b 112 104 86 44 58 37 z"},"&":{"x_min":0,"x_max":570,"ha":570,"o":"m 444 82 b 458 72 472 62 486 52 b 495 46 538 56 506 91 b 496 98 486 105 476 112 b 492 129 528 170 542 188 b 561 207 542 249 510 219 b 497 201 461 161 446 145 b 399 186 344 275 325 335 b 330 338 335 342 339 345 b 367 364 396 383 422 404 b 443 420 467 441 480 464 b 497 494 511 535 487 566 b 482 572 476 578 469 582 b 378 634 252 515 260 388 b 236 371 196 334 174 315 b 142 286 113 253 96 214 b 82 183 76 150 82 117 b 89 83 108 54 135 33 b 164 12 199 2 234 0 b 271 -1 307 7 341 20 b 379 35 413 56 444 82 z m 279 310 b 305 248 362 146 413 117 b 277 6 79 151 279 310 z m 323 423 b 327 435 333 447 340 457 b 355 479 376 498 400 509 b 404 511 416 516 424 517 b 422 511 418 504 416 501 b 407 486 387 470 374 459 b 357 447 340 435 323 423 z"},"_":{"x_min":0,"x_max":550,"ha":550,"o":"m 45 -48 b 46 -47 466 -39 483 -39 b 499 -39 505 -38 509 -30 b 513 -21 503 -8 487 -8 b 468 -8 56 -11 55 -11 b 39 -12 24 -26 20 -34 b 18 -42 29 -48 45 -48 z"},"v":{"x_min":0,"x_max":254,"ha":254,"o":"m 69 -1 b 118 -5 168 105 196 145 b 211 134 254 136 273 144 b 298 156 312 179 315 204 b 312 229 286 219 286 220 b 279 215 274 208 272 201 b 271 194 269 185 261 182 b 252 177 226 177 219 187 l 258 278 b 267 294 277 317 274 333 b 273 341 268 347 261 350 b 254 353 245 352 237 349 b 190 328 166 229 174 199 b 161 162 113 66 102 71 b 92 76 116 176 139 249 b 144 266 149 282 151 298 b 156 330 149 350 118 356 l 116 357 b 115 373 103 386 85 388 b 78 388 71 386 64 383 b 58 386 50 388 43 388 b 20 385 5 363 8 342 b 10 328 18 319 29 310 b 36 305 40 301 44 298 b 28 213 -60 3 69 -1 z m 46 317 b 36 325 26 331 24 344 b 21 364 44 381 59 367 b 59 366 61 364 61 363 b 62 362 63 359 63 359 b 64 361 64 361 66 364 b 68 365 69 367 71 368 b 74 370 79 372 84 372 b 93 371 98 365 100 357 l 100 357 l 100 357 l 100 356 l 101 356 l 101 353 l 101 353 l 101 352 l 101 352 l 101 349 l 100 349 l 100 348 l 100 348 l 100 347 l 100 347 l 100 346 l 100 346 l 100 345 l 100 345 l 100 345 l 99 344 l 99 344 l 99 343 l 99 343 b 92 325 72 321 60 308 b 59 306 58 304 57 303 l 57 304 b 56 307 54 309 53 311 l 49 314 l 49 314 l 49 314 l 49 314 l 49 315 l 49 315 l 49 315 l 49 315 l 49 315 l 48 315 l 48 315 l 48 315 l 48 315 l 48 316 l 47 316 l 47 316 l 47 316 l 47 316 l 47 316 l 47 316 l 47 316 l 47 317 l 46 317 l 46 317 l 46 317 l 46 317 l 46 317 z"},"O":{"x_min":0,"x_max":447,"ha":447,"o":"m 135 1 b 479 12 593 709 245 699 b 128 695 50 518 24 424 l 20 406 b 15 388 12 370 9 352 b -4 274 -5 183 20 108 b 38 56 74 1 135 1 z m 307 492 b 293 504 273 514 270 535 b 266 564 298 588 320 568 b 321 567 323 564 324 563 b 325 561 326 557 326 556 b 328 559 328 560 331 564 b 333 566 335 568 338 569 b 342 573 349 576 357 575 b 376 574 386 553 378 534 b 368 508 339 502 322 482 b 320 480 319 477 318 476 l 317 478 b 316 481 313 484 311 487 z m 312 451 b 304 283 239 70 154 54 b 150 53 145 53 141 53 b 126 53 112 56 100 63 b -9 127 68 628 227 652 b 231 653 236 654 240 653 b 269 653 288 629 299 592 b 299 592 298 592 297 592 b 269 589 249 561 253 532 b 255 514 266 502 280 491 b 285 487 290 483 295 479 l 298 476 b 299 474 300 473 301 471 l 301 470 z"},"(":{"x_min":0,"x_max":280,"ha":280,"o":"m 372 652 b 410 660 409 714 371 721 l 368 721 l 365 721 b 297 718 255 651 229 597 b 194 522 172 438 153 358 b 153 356 152 355 152 353 b 151 351 151 349 150 347 b 131 278 111 207 103 135 b 98 87 95 16 138 -17 b 152 -26 167 -31 184 -32 l 187 -32 l 190 -31 b 228 -26 231 28 194 37 b 194 37 194 37 194 37 b 192 38 190 45 189 48 b 188 57 187 67 187 76 b 187 92 189 108 191 124 b 201 195 220 264 238 333 b 238 334 238 335 239 336 b 239 337 239 338 239 339 b 260 414 279 490 308 561 b 318 585 344 645 372 652 z"},"C":{"x_min":0,"x_max":286,"ha":286,"o":"m 255 703 b 224 695 195 678 169 656 b 166 657 162 657 158 658 b 149 658 139 656 131 651 b 123 656 114 659 104 658 b 78 655 59 629 63 603 b 65 586 75 575 88 564 b 89 563 90 562 92 561 b -30 362 -48 29 144 5 l 145 5 b 152 4 159 3 167 3 b 167 2 168 2 169 2 b 214 0 261 59 283 92 b 294 107 304 124 313 141 b 322 154 305 173 290 155 b 282 138 272 121 261 106 b 246 83 225 57 202 41 b 196 39 190 37 184 37 b 168 38 157 48 149 61 b 84 167 132 400 172 515 l 184 546 b 202 587 234 649 274 671 b 282 675 291 677 300 675 b 318 672 332 657 341 641 b 353 621 359 597 358 574 b 357 573 357 572 357 571 b 357 568 357 566 357 563 b 356 557 355 551 353 545 b 346 526 332 509 313 501 b 303 496 291 494 281 496 b 273 498 267 503 266 510 b 260 534 287 571 300 589 b 304 594 304 601 300 606 b 294 611 286 611 281 606 l 244 545 b 239 531 237 517 240 503 b 244 486 256 475 273 471 b 290 466 308 470 323 477 b 346 487 365 506 375 529 l 376 529 l 379 541 b 380 546 382 552 383 557 b 397 639 347 723 255 703 z m 113 567 b 100 578 83 587 80 605 b 76 631 105 652 124 634 b 125 633 127 631 128 630 b 128 628 129 625 130 624 b 132 626 131 627 134 630 b 136 632 138 634 140 636 b 144 639 150 641 157 641 b 174 639 183 621 176 604 b 166 581 141 576 126 559 b 125 556 123 554 122 553 l 122 554 b 120 558 119 560 117 563 z"},"W":{"x_min":0,"x_max":582,"ha":582,"o":"m 326 14 b 329 10 333 6 337 2 b 345 -3 413 -15 423 -7 b 430 -6 436 -1 439 6 b 530 160 625 569 781 667 b 790 672 794 684 790 694 b 785 704 773 708 763 703 b 602 594 520 256 429 99 l 429 100 b 371 83 452 588 451 590 b 448 598 440 602 433 603 b 430 604 427 604 424 604 b 419 604 414 603 408 602 b 400 599 394 592 390 585 b 367 548 357 503 339 462 l 333 447 b 326 433 320 419 314 405 l 311 399 l 305 385 l 303 380 l 298 371 b 289 350 156 43 135 48 b 133 49 130 57 130 59 b 123 92 124 158 127 192 b 132 241 140 289 149 337 b 164 419 184 499 203 580 b 208 600 222 659 216 678 b 214 687 206 691 198 693 b 195 694 192 694 189 694 b 184 694 179 693 173 692 b 164 689 111 688 106 680 b 99 668 94 653 89 640 b 86 632 83 623 80 614 b 59 605 45 581 49 557 b 50 549 53 542 57 536 b 2 343 -53 39 102 -7 b 169 -27 273 214 300 269 l 301 273 l 306 282 l 308 287 l 315 301 l 317 306 b 312 267 304 140 305 102 b 306 76 309 37 326 14 z m 103 517 b 89 529 69 539 66 560 b 62 589 94 613 116 593 b 117 592 119 589 120 588 b 120 586 122 582 122 581 b 124 584 124 585 127 589 b 129 591 131 593 134 595 b 138 598 145 600 152 600 b 172 599 182 578 174 559 b 164 533 135 527 118 508 b 116 505 115 503 114 501 l 113 503 b 111 506 109 509 107 512 z"},"A":{"x_min":0,"x_max":629,"ha":629,"o":"m 486 636 b 535 598 540 483 526 433 l 525 428 b 521 423 517 417 515 410 b 511 411 507 412 503 413 b 485 417 468 422 450 425 b 461 461 469 495 475 528 b 483 568 486 605 486 636 z m 436 381 b 454 378 473 373 491 369 b 498 367 505 365 512 364 b 510 356 508 349 507 342 b 497 299 488 256 482 212 b 475 166 455 27 514 1 l 516 0 l 550 2 b 553 73 605 220 630 360 b 656 369 681 388 705 421 b 712 431 710 445 700 452 b 689 460 675 457 668 447 b 659 435 650 426 641 419 b 640 421 639 422 638 424 b 653 572 620 699 438 699 b 440 692 431 682 440 665 b 443 632 440 587 431 535 b 425 501 416 466 405 429 b 360 429 316 413 273 358 b 266 348 268 334 277 326 b 287 319 301 320 309 330 b 334 362 361 377 388 381 b 369 327 344 273 314 224 b 257 131 182 57 93 45 b 71 42 50 42 27 46 b 15 48 3 41 0 30 b -2 19 6 8 18 6 b 46 1 73 0 99 4 b 205 19 290 100 354 204 b 387 259 415 320 436 381 z m 562 354 b 549 365 532 374 529 392 b 525 418 554 439 573 422 b 574 420 576 418 577 417 b 577 415 578 412 579 411 b 581 413 581 414 583 418 b 585 420 587 422 589 423 b 593 426 599 428 606 428 b 623 427 632 408 625 391 b 615 368 590 363 576 346 b 574 344 572 342 571 340 l 571 342 b 569 345 568 347 566 350 z"},"f":{"x_min":0,"x_max":227,"ha":227,"o":"m 118 97 b 130 107 144 112 152 120 b 157 125 161 131 164 137 b 173 160 161 186 136 188 b 132 188 127 188 123 187 b 127 200 132 214 137 229 b 226 302 282 383 304 439 b 322 485 321 540 253 521 b 19 461 -116 -174 32 -286 b 42 -294 54 -302 70 -301 b 82 -300 94 -294 104 -285 b 171 -222 155 -95 143 -27 b 141 -18 139 -8 138 1 b 192 -11 252 65 276 144 b 282 164 287 184 290 203 b 293 215 285 225 273 225 b 260 225 248 215 246 203 b 242 186 238 168 232 150 b 212 82 133 24 119 80 z m 166 307 b 167 310 280 549 277 488 b 277 479 274 467 268 453 b 253 414 219 361 166 307 z m 80 -253 b 60 -220 61 -154 64 -113 b 67 -67 74 -19 83 29 b 84 27 84 26 85 24 b 97 -36 120 -175 89 -239 b 87 -242 85 -245 84 -248 b 83 -249 81 -251 80 -253 z"},"Q":{"x_min":0,"x_max":444,"ha":444,"o":"m 135 1 b 158 2 180 5 201 11 b 224 -66 272 -122 415 -86 b 427 -83 435 -71 432 -58 b 428 -46 416 -39 404 -42 b 301 -68 263 -28 244 28 b 494 155 550 699 245 699 b 128 698 50 518 24 424 b 23 418 21 412 20 406 b 15 388 12 370 9 352 b -4 274 -5 183 20 108 b 38 56 74 1 135 1 z m 297 471 b 283 484 262 494 259 515 b 255 544 288 567 310 548 b 311 547 313 544 313 542 b 314 541 316 537 316 536 b 318 539 318 540 321 543 b 323 545 325 548 328 549 b 332 553 339 555 346 555 b 366 554 376 533 368 513 b 357 488 328 481 312 462 b 310 460 309 457 308 456 b 307 456 307 457 307 457 b 305 461 303 464 301 467 b 300 468 298 470 297 471 z m 53 259 b 55 315 63 367 70 395 b 71 401 73 408 74 414 b 95 491 136 638 227 652 b 231 653 236 654 240 653 b 274 653 295 620 305 570 b 299 572 293 573 287 572 b 259 569 238 540 242 512 b 245 494 256 482 270 471 b 275 467 280 463 285 459 b 286 458 287 457 288 456 b 293 449 302 425 311 432 b 303 319 270 189 224 115 b 207 200 185 277 71 264 b 65 263 59 261 53 259 z m 186 70 b 176 61 165 56 154 54 b 150 53 145 53 141 53 b 126 53 112 56 100 64 b 67 82 55 137 52 199 b 54 203 57 207 59 210 b 64 215 70 218 76 219 b 156 228 169 160 183 89 b 184 83 185 76 186 70 z"},"w":{"x_min":0,"x_max":368,"ha":368,"o":"m 41 324 b 31 224 -64 9 75 -1 b 136 -6 157 57 184 102 b 178 82 164 1 215 1 b 264 -3 301 105 328 145 b 335 140 338 140 348 138 b 360 136 374 138 387 144 b 412 156 426 179 430 204 b 432 215 423 224 412 223 b 408 223 404 222 400 220 b 393 215 388 208 387 201 b 386 194 383 185 376 182 b 371 180 367 180 363 180 b 357 181 358 181 354 184 b 353 185 352 186 352 187 l 388 283 b 397 299 407 321 404 338 b 403 346 398 352 391 355 b 384 358 375 357 367 354 b 320 333 299 229 306 199 b 293 159 249 55 235 73 b 233 80 237 109 244 142 b 244 140 245 139 246 137 b 258 156 277 161 287 170 b 291 175 295 180 298 186 b 305 205 295 229 272 230 b 269 230 266 230 262 229 b 265 241 267 250 269 254 b 273 270 278 287 281 303 b 286 335 279 355 247 361 b 220 367 199 352 196 323 b 195 319 196 313 195 309 b 190 273 145 64 103 70 b 102 71 101 71 101 71 b 81 83 124 229 130 251 l 130 251 b 143 267 161 272 171 281 b 176 286 180 292 183 299 b 192 322 180 348 154 350 b 149 350 143 349 137 346 b 132 355 122 361 108 364 b 80 369 44 354 41 324 z m 258 212 b 259 212 259 213 260 213 b 263 215 267 217 271 216 b 283 215 289 203 285 191 b 278 175 261 172 251 160 b 249 158 249 157 248 156 l 247 157 b 247 157 247 158 247 158 l 247 159 l 247 159 l 247 159 l 246 159 l 246 159 l 246 159 l 246 160 l 246 160 l 246 160 l 246 160 l 246 160 l 245 160 l 245 161 l 245 161 l 245 161 l 245 161 l 245 161 l 245 161 l 245 162 l 244 162 l 244 162 l 244 162 l 244 162 l 244 162 l 244 163 l 244 163 l 241 166 b 233 173 220 179 218 192 b 216 210 236 224 249 212 b 250 211 251 210 252 209 b 252 208 253 205 253 205 b 254 206 254 207 256 210 l 256 210 l 256 210 l 256 210 l 256 210 l 257 210 l 257 210 l 257 210 l 257 210 l 257 210 l 257 211 l 257 211 l 257 211 l 258 211 l 258 211 l 258 211 l 258 211 l 258 211 z m 143 332 b 146 333 150 334 153 334 b 167 333 173 319 168 305 b 162 290 148 285 137 276 l 136 276 l 136 276 l 136 275 l 136 275 l 136 275 l 135 275 l 135 275 l 134 275 l 134 274 l 134 274 l 134 274 l 134 274 l 134 274 l 134 274 l 133 273 l 133 273 l 133 273 l 133 273 l 133 273 l 132 273 l 132 273 l 132 273 l 132 272 l 132 272 l 132 272 l 132 272 l 132 272 l 131 272 l 131 271 l 131 271 l 131 271 l 131 271 l 130 270 l 130 270 l 130 270 l 130 270 b 128 268 127 266 126 265 l 126 266 b 125 269 123 271 122 273 l 119 276 b 109 285 95 292 93 306 b 90 326 113 343 128 329 b 129 328 130 327 131 325 b 131 324 132 321 132 321 b 134 323 134 323 136 326 b 137 327 139 329 140 330 l 141 330 l 141 330 l 141 330 l 141 331 l 141 331 l 141 331 l 142 331 l 142 331 l 142 331 l 142 331 l 142 331 l 142 332 l 143 332 l 143 332 z"},"-":{"x_min":0,"x_max":305,"ha":305,"o":"m 17 183 l 17 183 b 9 183 2 177 0 170 b -2 161 4 153 13 153 l 265 153 b 274 153 282 169 284 177 b 286 185 280 193 272 193 z"},"E":{"x_min":0,"x_max":321,"ha":321,"o":"m 175 408 b -169 246 60 -129 299 30 b 310 38 320 47 329 57 b 336 65 336 78 328 85 b 320 92 307 92 300 83 b 292 75 285 68 276 62 b 168 -15 117 103 122 202 b 125 254 145 325 191 356 b 204 364 221 375 237 375 b 247 375 253 372 261 368 b 275 361 286 361 301 366 l 302 366 b 309 369 319 376 320 385 b 322 400 295 408 285 412 b 278 414 272 416 266 418 b 263 419 259 420 256 421 b 252 424 249 428 246 432 l 246 433 b 214 473 229 552 244 597 b 275 697 362 654 352 582 b 352 580 352 578 353 576 b 355 571 360 571 365 571 b 366 571 366 571 366 571 b 373 571 378 573 382 578 b 399 603 389 637 373 660 b 353 689 321 707 285 707 b 244 706 209 687 182 657 b 176 656 170 654 164 651 b 156 656 147 659 137 658 b 111 655 92 629 96 603 b 98 586 108 575 121 564 b 124 562 128 559 131 556 b 119 499 131 440 175 408 z m 146 567 b 133 578 115 587 113 605 b 109 631 138 652 157 634 b 158 633 160 631 161 630 b 161 628 163 625 163 624 b 165 626 165 627 167 630 b 169 632 171 634 173 636 b 177 639 183 641 190 641 b 207 639 216 621 209 604 b 199 581 174 576 159 559 b 158 556 156 554 155 553 l 155 554 b 153 558 152 560 150 563 z"},"s":{"x_min":0,"x_max":237,"ha":237,"o":"m 119 248 b 114 261 114 276 122 293 b 130 313 150 323 164 321 b 203 316 170 267 156 257 b 144 249 132 244 123 246 b 122 247 121 247 121 247 b 120 247 119 248 119 248 z m 40 241 b 31 250 18 259 17 273 b 17 294 41 308 55 293 b 55 292 56 290 57 289 b 57 288 58 285 58 284 b 60 286 60 286 62 289 b 63 290 65 292 67 293 b 71 294 76 296 80 295 b 94 293 99 277 92 265 b 83 248 63 246 50 233 b 49 232 47 230 46 229 l 46 230 b 45 233 44 235 43 237 z m 178 224 b 239 266 244 347 163 358 b 68 370 -6 319 0 239 b 8 149 130 149 145 112 b 106 97 62 76 36 43 b 2 -1 5 -62 68 -62 b 138 -62 193 -9 212 50 b 216 63 218 75 218 86 b 250 98 275 119 288 153 l 288 153 l 289 157 b 294 173 298 189 300 203 b 303 215 295 225 283 225 b 270 225 258 215 256 203 b 253 190 249 174 244 155 b 239 140 228 130 213 124 l 211 132 b 200 163 170 186 146 209 b 157 212 168 218 178 224 z m 153 74 b 164 70 129 -31 85 -22 b 34 -11 94 55 153 74 z"},">":{"x_min":0,"x_max":346,"ha":346,"o":"m 71 114 b 51 103 43 81 57 61 b 66 48 84 39 99 47 l 100 48 l 305 189 b 320 198 330 216 324 233 b 322 239 318 245 312 248 l 162 371 l 161 371 b 146 382 125 375 114 361 b 101 346 117 326 127 314 b 139 298 152 283 165 268 b 177 254 190 241 202 227 b 204 225 206 223 209 220 z"},"l":{"x_min":0,"x_max":162,"ha":162,"o":"m 96 1 b 175 10 213 146 225 203 b 227 215 220 225 207 225 b 195 225 183 215 180 203 b 172 165 151 81 115 51 b 110 48 105 45 100 45 b 99 45 99 46 99 46 b 96 47 95 57 94 61 b 93 74 95 91 98 105 b 104 149 114 193 125 237 b 137 286 155 355 178 428 b 273 505 334 606 358 675 b 365 696 369 715 370 730 b 372 767 340 781 305 770 b 203 740 129 589 90 480 b 87 481 84 481 81 480 b 59 478 43 456 46 434 b 48 421 55 412 65 404 b 56 371 47 337 39 304 b 17 210 -62 -16 96 1 z m 211 525 b 213 532 334 806 331 732 b 331 720 328 705 322 688 b 304 636 264 565 202 502 l 207 516 l 214 529 z m 71 421 b 66 425 63 430 62 437 b 60 452 72 465 84 465 l 85 465 l 85 464 l 87 464 l 87 464 l 88 464 l 88 464 l 89 464 l 89 464 l 90 464 l 90 464 l 90 464 l 90 463 l 91 463 l 91 463 l 92 463 l 92 463 l 92 463 l 92 463 l 94 462 l 94 462 l 94 461 l 95 461 l 95 461 l 97 459 b 97 459 99 457 99 456 b 100 455 101 452 101 452 b 102 453 102 454 105 457 b 106 458 107 460 109 461 b 112 463 117 465 122 464 b 136 464 142 449 137 436 b 130 418 110 414 98 400 b 97 399 96 397 95 396 l 95 397 b 94 400 92 401 90 403 l 88 407 l 87 407 l 87 407 l 87 407 l 87 407 l 87 408 l 86 408 l 86 408 l 86 408 l 86 408 l 85 409 l 85 409 l 84 410 l 84 410 l 83 410 l 83 411 l 82 411 l 82 411 l 82 411 l 82 411 l 82 412 l 81 412 l 81 412 l 81 412 l 81 412 l 80 412 l 80 413 l 80 413 l 80 413 l 80 413 l 79 413 l 79 414 l 78 414 l 78 415 l 78 415 l 77 415 l 77 415 l 77 415 l 76 415 l 76 416 l 75 416 l 75 417 l 75 417 l 75 417 l 74 417 l 74 417 l 73 419 l 73 419 l 72 419 l 72 419 l 72 419 l 72 419 l 72 420 l 71 420 l 71 420 l 71 421 z"},"8":{"x_min":0,"x_max":505,"ha":505,"o":"m 389 65 l 389 73 l 126 73 l 126 65 z m 285 109 l 285 125 l 292 125 l 292 130 l 273 130 l 273 125 l 279 125 l 279 109 z m 256 115 l 254 111 l 263 108 l 263 108 b 273 108 278 119 264 122 b 256 124 262 128 270 124 l 271 129 b 259 136 245 121 262 117 b 272 115 263 110 256 115 z m 294 130 b 294 120 291 108 304 108 l 304 108 b 316 108 314 120 314 130 l 308 130 b 308 122 309 113 304 113 b 298 113 300 122 300 130 z m 161 172 b 160 138 189 137 217 164 b 208 132 212 105 243 98 b 225 137 264 214 296 265 l 287 268 b 321 268 364 263 371 245 b 389 279 358 289 313 289 b 325 304 335 310 336 305 l 336 305 b 334 321 322 323 308 313 b 303 309 295 300 286 288 b 250 286 211 280 181 276 b 194 362 83 306 63 206 b 47 132 111 116 161 172 z m 90 199 b 97 265 180 343 166 274 b 154 272 145 271 139 271 b 138 256 151 259 162 260 b 154 239 133 219 113 240 b 89 201 151 167 178 260 l 173 261 l 270 268 b 270 268 270 268 270 268 l 270 268 l 270 268 b 260 253 249 235 239 217 l 239 217 b 229 202 218 182 201 174 b 190 169 179 171 185 188 b 195 184 211 190 220 201 b 242 227 206 257 179 223 l 179 223 b 162 198 145 163 111 166 b 97 167 87 177 90 199 z m 191 201 b 213 240 222 202 191 201 z m 370 129 b 352 138 344 108 364 108 b 377 108 379 124 370 129 z m 364 113 b 357 113 356 122 361 125 b 369 130 374 113 364 113 z m 340 119 b 340 132 325 130 318 130 l 318 109 b 325 109 340 107 340 119 z m 327 114 l 327 114 l 324 114 l 324 125 b 339 125 334 114 327 114 z m 395 13 b 395 22 404 21 405 16 l 411 17 l 411 17 l 411 17 b 408 29 388 28 388 12 b 388 -4 409 -5 412 8 l 405 9 b 404 3 395 2 395 13 z m 349 109 l 349 130 l 343 130 l 343 109 z m 60 392 b 41 387 25 403 30 424 b 37 454 96 479 133 476 b 121 462 103 438 88 412 b 86 417 86 422 86 427 b 62 423 62 402 75 390 b 49 338 36 285 81 274 b 71 295 83 339 102 380 b 169 380 217 456 165 480 b 171 484 174 482 174 481 l 174 481 b 172 498 157 499 145 488 l 147 486 b 97 495 22 473 4 428 b -14 384 33 351 60 392 z m 154 470 b 180 452 148 393 104 398 b 102 398 99 399 98 400 b 102 400 107 399 112 401 b 126 429 142 455 154 470 z m 415 13 b 415 -6 440 -4 440 12 b 440 29 415 29 415 13 z m 421 12 b 421 22 433 22 433 12 b 433 2 421 2 421 12 z m 465 21 b 462 26 455 26 450 21 l 450 25 l 444 25 l 444 0 l 451 0 b 451 6 450 17 453 19 b 462 25 459 7 459 0 l 466 0 b 466 6 465 17 468 19 b 476 25 474 7 474 0 l 480 0 l 480 16 b 480 28 470 27 465 21 z m 203 406 b 181 425 165 398 158 383 b 136 334 152 302 192 346 b 190 323 207 313 238 349 l 238 349 l 238 349 b 232 338 227 323 239 315 b 240 311 243 308 246 307 b 265 299 299 355 317 382 b 318 384 326 395 331 403 b 333 401 335 398 337 396 b 345 384 304 338 334 326 b 343 322 355 332 368 346 b 367 324 382 313 413 347 b 411 317 438 314 469 341 b 507 375 525 447 466 436 b 495 403 452 335 435 344 b 425 350 452 403 466 406 b 454 416 444 413 436 405 b 428 418 402 423 383 392 b 350 339 337 340 355 376 b 372 411 342 408 332 423 b 335 421 339 419 342 421 b 343 428 340 432 334 434 b 320 441 308 421 319 413 b 308 396 270 335 263 335 b 248 335 301 433 305 440 l 297 442 b 361 445 437 444 446 419 b 472 467 395 468 319 461 b 331 478 342 488 348 482 b 347 497 334 499 321 489 b 313 484 303 472 292 459 b 249 454 210 447 196 447 b 195 436 203 435 211 436 b 224 436 250 439 280 441 b 271 428 263 414 256 400 b 238 374 221 350 217 350 b 206 350 235 407 249 410 b 231 426 216 408 207 392 b 195 374 180 350 173 350 b 163 350 188 403 203 406 z m 427 393 b 428 393 428 393 428 393 l 428 393 l 427 393 b 427 393 427 393 427 393 b 424 388 400 350 393 350 b 385 350 413 414 427 393 z m 460 301 b 458 316 446 318 432 308 b 405 288 353 209 356 171 b 356 162 361 159 361 159 l 361 159 b 364 135 389 134 418 159 b 441 180 434 217 407 210 b 411 196 401 153 384 162 b 382 163 381 166 382 170 b 393 227 444 317 460 301 z m 49 8 l 45 25 l 39 25 l 34 8 l 30 25 l 24 25 l 31 0 l 38 0 l 42 16 l 46 0 l 52 0 l 60 25 l 54 25 z m 191 5 b 181 -1 184 21 184 25 l 177 25 l 177 9 b 177 -4 190 -2 193 4 l 193 0 l 193 0 l 193 0 l 199 0 l 199 25 l 193 25 b 193 18 194 8 191 5 z m 370 0 l 370 34 l 364 34 l 364 0 z m 228 21 l 228 25 l 222 25 l 222 0 l 228 0 b 228 6 226 24 235 18 l 237 24 b 233 26 230 25 228 21 z m 239 18 l 245 17 l 245 17 l 245 17 b 247 21 254 22 254 16 b 253 15 250 15 247 14 b 229 11 243 -8 254 3 l 255 0 l 261 0 l 260 16 b 260 30 242 27 239 18 z m 254 12 b 254 1 247 4 246 5 b 241 10 252 11 254 12 b 254 12 254 12 254 12 l 254 12 b 254 12 254 12 254 12 z m 272 13 b 272 22 281 21 281 16 l 288 17 l 288 17 l 288 17 b 284 29 265 28 265 12 b 265 -4 285 -5 288 8 l 282 9 b 281 3 272 2 272 13 z m 333 13 b 333 -6 359 -4 359 12 b 359 29 333 29 333 13 z m 340 12 b 340 22 352 22 352 12 b 352 2 340 2 340 12 z m 213 19 l 217 19 l 217 25 l 217 25 l 213 25 l 213 33 l 206 29 l 206 25 l 203 25 l 203 19 l 206 19 b 206 11 203 -6 218 0 l 217 5 b 211 3 213 6 213 19 z m 291 12 b 291 -4 310 -4 313 7 l 307 8 b 305 2 298 4 298 10 l 314 10 b 314 31 291 29 291 12 z m 298 14 b 298 22 307 22 307 14 z m 86 8 l 82 25 l 75 25 l 71 8 l 67 25 l 60 25 l 68 0 l 74 0 l 78 16 l 83 0 l 89 0 l 97 25 l 90 25 z m 142 0 l 142 7 l 135 7 l 135 0 z m 122 8 l 118 25 l 112 25 l 108 8 l 103 25 l 97 25 l 105 0 l 111 0 l 115 16 l 119 0 l 126 0 l 134 25 l 127 25 z m 312 244 b 331 244 330 219 322 198 b 308 158 270 152 295 201 b 303 216 314 231 321 233 b 303 249 286 230 276 208 b 259 168 266 148 282 146 b 311 143 347 179 354 213 b 360 244 337 263 312 244 z m 326 19 l 330 19 l 330 24 l 330 25 l 326 25 l 326 33 l 319 29 l 319 25 l 316 25 l 316 19 l 319 19 b 319 11 316 -6 331 0 l 330 5 b 324 3 326 6 326 19 z m 154 21 l 154 25 l 148 25 l 148 25 l 148 -9 l 155 -9 l 155 3 b 159 -2 165 -2 169 3 b 180 15 163 34 154 21 z m 155 13 l 155 13 b 155 13 155 13 155 13 b 155 22 165 23 165 12 b 165 1 155 2 155 13 z m 383 0 l 383 6 l 377 6 l 377 0 z"},"\\":{"x_min":0,"x_max":374,"ha":374,"o":"m 295 -27 b 307 -25 323 -20 324 -4 b 324 -1 323 2 322 5 l 71 573 b 67 582 57 587 48 590 b 43 591 36 593 30 593 b 12 593 -6 576 2 558 l 252 -10 b 257 -21 264 -29 277 -29 b 283 -29 290 -28 295 -27 z"},"e":{"x_min":0,"x_max":267,"ha":267,"o":"m 204 284 b 200 277 194 269 188 261 b 179 250 163 234 151 227 b 145 224 139 221 133 219 b 142 253 157 282 175 294 b 199 312 209 298 204 287 b 204 286 204 285 204 284 z m 123 172 b 138 176 152 181 166 189 b 206 211 266 274 259 320 l 259 319 b 259 324 257 328 255 332 b 241 362 193 360 160 352 b 145 349 130 343 116 335 b 113 336 110 337 107 337 b 99 337 92 336 86 332 b 79 336 72 338 64 337 b 42 334 27 313 30 291 b 31 281 36 273 43 266 b -21 173 -26 34 117 5 b 133 1 151 -1 169 1 b 247 8 305 117 328 198 b 332 211 329 222 318 225 b 306 228 293 221 287 209 b 272 152 224 50 174 46 b 126 42 114 107 123 172 z m 52 279 b 49 283 46 288 45 293 b 43 313 65 330 80 316 b 81 315 82 314 83 312 l 83 312 l 83 312 l 83 312 l 84 311 l 84 311 l 84 311 l 84 310 l 84 310 l 84 310 l 84 310 l 84 309 l 84 309 l 84 309 l 85 309 l 85 308 l 85 308 b 86 310 86 311 88 313 b 89 315 91 316 93 317 b 96 320 101 322 106 321 b 119 320 126 306 121 292 b 113 275 93 270 82 257 b 81 255 80 254 79 252 l 78 254 b 77 256 76 258 74 260 l 71 263 l 71 264 l 71 264 l 71 264 l 70 264 l 70 264 l 70 264 l 70 264 l 70 265 l 69 265 l 69 265 l 69 265 l 69 265 l 68 266 l 68 266 l 67 266 l 67 267 l 67 267 l 67 267 l 67 267 l 66 267 l 66 267 l 66 268 l 65 268 l 65 268 l 65 268 l 65 269 l 65 269 l 64 269 l 64 269 l 64 269 l 63 270 l 63 270 l 62 271 l 62 271 l 62 271 l 61 271 l 61 271 l 60 272 l 60 272 l 60 272 l 60 273 l 59 273 l 59 273 l 59 273 l 59 273 l 58 274 l 58 274 l 57 274 l 57 274 l 57 275 l 57 275 l 55 276 l 55 276 l 55 277 l 55 277 l 54 277 l 54 278 l 54 278 l 54 278 l 54 278 l 53 278 l 53 279 l 53 279 l 53 279 z"},"b":{"x_min":0,"x_max":363,"ha":363,"o":"m 202 300 b 228 292 208 188 191 157 b 141 154 90 110 76 66 b 62 23 83 -1 115 -2 b 170 -4 252 60 271 95 b 357 67 404 107 425 202 b 428 215 420 225 408 225 b 396 225 383 215 381 203 b 368 150 349 121 297 136 b 320 178 329 231 321 274 b 325 276 327 278 330 280 b 335 285 339 291 342 298 b 351 320 339 346 313 348 b 306 349 299 347 293 343 b 286 347 279 349 271 348 b 259 354 244 356 226 355 b 166 349 135 254 99 204 l 105 226 b 122 294 141 362 162 430 b 256 507 317 607 340 675 b 348 696 352 715 352 730 b 353 750 347 765 336 773 b 281 810 181 698 154 640 b 112 565 83 476 67 420 b 41 330 17 218 0 127 l 0 125 l 0 123 b 1 88 19 63 58 72 l 62 73 b 87 113 181 306 202 300 z m 188 506 b 191 514 317 811 314 732 b 313 720 310 705 304 688 b 286 637 247 568 188 506 z m 298 328 b 298 328 299 328 299 329 b 302 331 307 333 312 332 b 326 331 333 317 327 303 b 325 298 322 294 317 290 l 317 289 l 316 289 l 316 289 l 316 289 l 316 289 l 316 289 l 315 288 l 315 288 l 315 288 l 315 288 l 315 288 b 314 288 314 287 313 287 l 313 287 l 312 286 l 312 286 l 312 286 l 312 286 l 311 285 l 311 285 l 311 285 l 310 285 l 310 285 l 310 284 l 310 284 l 310 284 l 309 284 l 309 284 l 309 284 l 309 284 l 309 284 l 309 283 l 308 283 l 308 283 l 307 282 l 307 282 l 305 281 l 305 281 l 304 280 l 304 280 l 303 280 l 303 280 l 303 280 l 302 279 l 302 279 l 302 279 l 301 279 l 301 278 l 300 278 l 300 278 l 299 277 l 299 277 l 299 277 l 298 277 l 298 276 l 298 276 l 297 276 l 297 275 l 296 275 l 296 275 l 296 275 l 296 275 l 295 275 l 295 274 l 295 274 l 295 274 l 295 274 l 295 274 l 295 274 l 294 274 l 294 273 l 294 273 l 294 273 l 293 272 l 293 272 l 290 270 l 290 269 l 290 269 l 290 269 l 289 269 l 289 269 l 289 269 l 289 268 b 287 266 286 265 286 264 l 285 265 b 284 267 283 269 281 271 l 278 275 b 268 283 254 290 252 304 b 249 325 272 341 287 327 b 288 327 289 325 290 324 b 290 323 291 320 291 319 b 293 321 293 322 295 325 l 295 325 l 295 325 l 295 325 l 295 325 l 295 325 l 296 325 l 296 326 l 296 326 l 296 326 l 297 326 l 297 327 l 297 327 l 297 327 l 297 327 l 297 327 l 298 327 l 298 327 l 298 327 l 298 327 l 298 327 l 298 328 z"},"%":{"x_min":0,"x_max":492,"ha":492,"o":"m 341 191 b 290 193 239 156 223 107 b 215 82 217 54 233 32 b 248 11 271 0 296 -1 b 347 -3 398 34 414 83 b 422 108 420 136 404 158 b 389 179 366 189 341 191 z m 197 544 b 146 546 95 509 79 460 b 71 434 73 407 89 385 b 104 364 127 353 152 352 b 203 349 254 387 270 435 b 278 461 276 489 260 511 b 245 532 222 542 197 544 z m 27 52 b 10 32 25 2 49 -5 b 66 -10 89 -5 100 10 l 461 518 b 467 527 449 537 439 540 z m 299 78 b 298 81 299 86 300 88 b 303 98 315 113 326 112 b 326 112 326 112 326 112 b 327 110 326 104 325 102 b 322 93 310 78 299 78 b 299 78 299 78 299 78 z m 155 431 b 154 434 155 439 156 441 b 159 451 171 466 182 465 b 182 465 182 465 182 465 b 183 462 182 457 181 455 b 178 445 166 431 155 431 z"},"m":{"x_min":0,"x_max":407,"ha":407,"o":"m 268 175 b 266 162 263 149 261 136 b 255 102 256 79 265 49 b 277 4 339 -18 385 20 b 435 60 459 149 471 203 b 473 215 465 225 453 225 b 441 225 429 215 426 203 b 418 165 396 81 361 51 b 356 48 351 45 345 45 b 322 49 350 143 355 159 b 360 177 366 195 370 212 b 375 227 388 270 390 286 l 391 288 b 398 293 406 296 411 301 b 416 306 420 312 423 319 b 432 341 420 368 395 370 b 387 370 380 368 374 364 b 367 368 360 370 352 369 b 334 368 320 352 317 335 b 299 323 281 300 264 275 b 266 280 267 285 268 291 b 273 312 277 343 256 352 b 170 372 148 271 119 226 b 126 251 145 341 117 352 b 98 360 79 366 57 349 l 50 344 l 48 337 b 36 296 7 154 0 113 b -5 81 -7 53 -2 23 l -2 22 l -1 22 b 4 3 22 -5 44 3 b 63 10 70 25 78 41 b 82 49 86 57 90 65 b 102 90 127 166 148 200 b 146 185 121 62 177 68 b 204 71 252 147 268 175 z m 338 345 b 345 354 358 358 368 349 b 369 348 370 346 371 345 b 371 344 372 341 373 340 b 374 342 374 343 376 346 b 377 347 379 349 380 350 b 384 352 388 354 393 354 b 407 353 414 338 408 325 b 405 316 399 311 392 306 l 392 306 l 391 306 l 391 306 l 391 306 l 391 305 l 390 305 l 390 305 l 390 305 l 389 305 l 389 304 l 389 304 l 388 304 l 388 304 l 388 304 l 388 304 l 387 303 l 387 303 l 387 303 l 386 303 l 386 302 l 385 302 l 385 302 l 385 302 l 384 301 l 384 301 l 384 301 l 383 301 l 383 301 l 383 300 l 382 300 l 382 300 l 382 300 l 381 299 l 381 299 l 380 299 l 380 298 l 379 298 l 379 298 l 379 298 l 378 297 l 378 297 l 378 297 l 378 297 l 377 297 l 377 296 l 377 296 l 376 296 l 376 296 l 376 295 l 376 295 l 375 295 l 375 295 l 374 294 l 373 293 l 373 293 l 373 293 l 372 292 l 372 292 l 372 292 l 371 291 l 371 291 l 371 291 l 371 291 l 371 291 l 370 290 l 370 290 l 370 289 b 368 288 367 286 367 285 l 366 286 b 365 289 364 291 362 293 l 359 296 b 349 304 335 311 333 326 l 333 327 l 333 332 l 333 333 l 333 333 l 334 334 l 334 335 l 334 335 l 334 336 l 334 336 l 334 337 l 334 337 l 335 337 l 335 338 l 335 338 l 335 340 l 335 340 l 336 341 l 336 341 l 337 342 l 337 343 l 337 343 l 337 343 l 338 344 l 338 344 l 338 344 l 338 344 l 338 344 z"},"#":{"x_min":0,"x_max":574,"ha":574,"o":"m 439 65 l 439 73 l 176 73 l 176 65 z m 335 109 l 335 125 l 342 125 l 342 130 l 323 130 l 323 125 l 329 125 l 329 109 z m 306 115 l 304 111 l 313 108 l 313 108 b 323 108 328 119 314 122 b 306 124 312 128 320 124 l 321 129 b 309 136 295 121 312 117 b 322 115 313 110 306 115 z m 344 130 b 344 120 341 108 354 108 l 354 108 b 366 108 364 120 364 130 l 358 130 b 358 122 359 113 354 113 b 348 113 350 122 350 130 z m 211 172 b 210 138 239 137 267 164 b 258 132 262 105 293 98 b 275 137 314 214 346 265 l 337 268 b 371 268 414 263 421 245 b 439 279 408 289 363 289 b 375 304 385 310 386 305 l 386 305 b 384 321 372 323 358 313 b 353 309 345 300 336 288 b 300 286 261 280 231 276 b 244 362 133 306 113 206 b 97 132 161 116 211 172 z m 140 199 b 147 265 230 343 216 274 b 204 272 195 271 189 271 b 188 256 201 259 212 260 b 204 239 183 219 163 240 b 139 201 201 167 228 260 l 223 261 l 320 268 b 320 268 320 268 320 268 l 320 268 l 320 268 b 310 253 299 235 289 217 l 289 217 b 279 202 268 182 251 174 b 240 169 229 171 235 188 b 245 184 261 190 270 201 b 292 227 256 257 229 223 l 229 223 b 212 198 195 163 161 166 b 147 167 137 177 140 199 z m 241 201 b 263 240 272 202 241 201 z m 420 129 b 402 138 394 108 414 108 b 427 108 429 124 420 129 z m 414 113 b 407 113 406 122 411 125 b 419 130 424 113 414 113 z m 390 119 b 390 132 375 130 368 130 l 368 109 b 375 109 390 107 390 119 z m 377 114 l 377 114 l 374 114 l 374 125 b 389 125 384 114 377 114 z m 445 13 b 445 22 454 21 455 16 l 461 17 l 461 17 l 461 17 b 458 29 438 28 438 12 b 438 -4 459 -5 462 8 l 455 9 b 454 3 445 2 445 13 z m 399 109 l 399 130 l 393 130 l 393 109 z m 110 392 b 91 387 75 403 80 424 b 87 454 146 479 183 476 b 171 462 153 438 138 412 b 136 417 136 422 136 427 b 112 423 112 402 125 390 b 99 338 86 285 131 274 b 121 295 133 339 152 380 b 219 380 267 456 215 480 b 221 484 224 482 224 481 l 224 481 b 222 498 207 499 195 488 l 197 486 b 147 495 72 473 54 428 b 36 384 83 351 110 392 z m 204 470 b 230 452 198 393 154 398 b 152 398 149 399 148 400 b 152 400 157 399 162 401 b 176 429 192 455 204 470 z m 465 13 b 465 -6 490 -4 490 12 b 490 29 465 29 465 13 z m 471 12 b 471 22 483 22 483 12 b 483 2 471 2 471 12 z m 515 21 b 512 26 505 26 500 21 l 500 25 l 494 25 l 494 0 l 501 0 b 501 6 500 17 503 19 b 512 25 509 7 509 0 l 516 0 b 516 6 515 17 518 19 b 526 25 524 7 524 0 l 530 0 l 530 16 b 530 28 520 27 515 21 z m 253 406 b 231 425 215 398 208 383 b 186 334 202 302 242 346 b 240 323 257 313 288 349 l 288 349 l 288 349 b 282 338 277 323 289 315 b 290 311 293 308 296 307 b 315 299 349 355 367 382 b 368 384 376 395 381 403 b 383 401 385 398 387 396 b 395 384 354 338 384 326 b 393 322 405 332 418 346 b 417 324 432 313 463 347 b 461 317 488 314 519 341 b 557 375 575 447 516 436 b 545 403 502 335 485 344 b 475 350 502 403 516 406 b 504 416 494 413 486 405 b 478 418 452 423 433 392 b 400 339 387 340 405 376 b 422 411 392 408 382 423 b 385 421 389 419 392 421 b 393 428 390 432 384 434 b 370 441 358 421 369 413 b 358 396 320 335 313 335 b 298 335 351 433 355 440 l 347 442 b 411 445 487 444 496 419 b 522 467 445 468 369 461 b 381 478 392 488 398 482 b 397 497 384 499 371 489 b 363 484 353 472 342 459 b 299 454 260 447 246 447 b 245 436 253 435 261 436 b 274 436 300 439 330 441 b 321 428 313 414 306 400 b 288 374 271 350 267 350 b 256 350 285 407 299 410 b 281 426 266 408 257 392 b 245 374 230 350 223 350 b 213 350 238 403 253 406 z m 477 393 b 478 393 478 393 478 393 l 478 393 l 477 393 b 477 393 477 393 477 393 b 474 388 450 350 443 350 b 435 350 463 414 477 393 z m 510 301 b 508 316 496 318 482 308 b 455 288 403 209 406 171 b 406 162 411 159 411 159 l 411 159 b 414 135 439 134 468 159 b 491 180 484 217 457 210 b 461 196 451 153 434 162 b 432 163 431 166 432 170 b 443 227 494 317 510 301 z m 99 8 l 95 25 l 89 25 l 84 8 l 80 25 l 74 25 l 81 0 l 88 0 l 92 16 l 96 0 l 102 0 l 110 25 l 104 25 z m 241 5 b 231 -1 234 21 234 25 l 227 25 l 227 9 b 227 -4 240 -2 243 4 l 243 0 l 243 0 l 243 0 l 249 0 l 249 25 l 243 25 b 243 18 244 8 241 5 z m 420 0 l 420 34 l 414 34 l 414 0 z m 278 21 l 278 25 l 272 25 l 272 0 l 278 0 b 278 6 276 24 285 18 l 287 24 b 283 26 280 25 278 21 z m 289 18 l 295 17 l 295 17 l 295 17 b 297 21 304 22 304 16 b 303 15 300 15 297 14 b 279 11 293 -8 304 3 l 305 0 l 311 0 l 310 16 b 310 30 292 27 289 18 z m 304 12 b 304 1 297 4 296 5 b 291 10 302 11 304 12 b 304 12 304 12 304 12 l 304 12 b 304 12 304 12 304 12 z m 322 13 b 322 22 331 21 331 16 l 338 17 l 338 17 l 338 17 b 334 29 315 28 315 12 b 315 -4 335 -5 338 8 l 332 9 b 331 3 322 2 322 13 z m 383 13 b 383 -6 409 -4 409 12 b 409 29 383 29 383 13 z m 390 12 b 390 22 402 22 402 12 b 402 2 390 2 390 12 z m 263 19 l 267 19 l 267 25 l 267 25 l 263 25 l 263 33 l 256 29 l 256 25 l 253 25 l 253 19 l 256 19 b 256 11 253 -6 268 0 l 267 5 b 261 3 263 6 263 19 z m 341 12 b 341 -4 360 -4 363 7 l 357 8 b 355 2 348 4 348 10 l 364 10 b 364 31 341 29 341 12 z m 348 14 b 348 22 357 22 357 14 z m 136 8 l 132 25 l 125 25 l 121 8 l 117 25 l 110 25 l 118 0 l 124 0 l 128 16 l 133 0 l 139 0 l 147 25 l 140 25 z m 192 0 l 192 7 l 185 7 l 185 0 z m 172 8 l 168 25 l 162 25 l 158 8 l 153 25 l 147 25 l 155 0 l 161 0 l 165 16 l 169 0 l 176 0 l 184 25 l 177 25 z m 362 244 b 381 244 380 219 372 198 b 358 158 320 152 345 201 b 353 216 364 231 371 233 b 353 249 336 230 326 208 b 309 168 316 148 332 146 b 361 143 397 179 404 213 b 410 244 387 263 362 244 z m 376 19 l 380 19 l 380 24 l 380 25 l 376 25 l 376 33 l 369 29 l 369 25 l 366 25 l 366 19 l 369 19 b 369 11 366 -6 381 0 l 380 5 b 374 3 376 6 376 19 z m 204 21 l 204 25 l 198 25 l 198 25 l 198 -9 l 205 -9 l 205 3 b 209 -2 215 -2 219 3 b 230 15 213 34 204 21 z m 205 13 l 205 13 b 205 13 205 13 205 13 b 205 22 215 23 215 12 b 215 1 205 2 205 13 z m 433 0 l 433 6 l 427 6 l 427 0 z"},",":{"x_min":0,"x_max":161,"ha":161,"o":"m 95 70 b 76 70 56 54 51 35 b 45 13 62 -10 87 -4 b 82 -13 80 -19 70 -25 b 66 -28 65 -32 66 -34 b 67 -37 71 -38 75 -36 b 94 -24 110 -2 116 18 b 124 42 128 70 95 70 z"},"n":{"x_min":0,"x_max":280,"ha":280,"o":"m 160 239 b 147 176 121 107 138 49 b 150 4 212 -18 258 20 b 308 60 332 149 344 203 b 346 215 338 225 326 225 b 314 225 302 215 299 203 b 291 165 269 81 234 51 b 176 5 290 279 293 298 b 293 302 294 305 294 309 b 294 309 294 309 295 310 b 300 315 304 320 307 327 b 316 350 304 376 279 378 b 271 378 264 376 257 373 b 251 377 244 378 236 378 b 217 376 203 359 201 341 b 164 312 125 253 116 228 b 124 259 142 340 119 352 b 101 360 81 366 59 349 l 53 344 l 51 337 b 38 296 8 154 1 113 b -3 85 -20 -1 29 -1 b 80 0 104 105 116 142 b 128 181 152 223 160 239 z m 224 355 b 232 363 243 365 252 357 l 252 357 l 252 356 l 253 356 l 253 356 l 253 356 l 253 356 l 253 356 l 253 356 l 253 356 l 253 356 l 253 355 l 253 355 l 254 355 l 254 355 l 254 355 l 254 354 l 254 354 l 254 354 l 254 354 l 254 354 l 255 354 l 255 353 l 255 353 b 255 352 256 349 257 349 b 258 351 258 352 260 354 l 260 354 b 261 356 263 357 264 358 b 268 360 272 362 277 362 b 291 361 298 347 292 333 b 292 331 291 330 290 328 b 288 325 286 323 284 321 l 283 320 b 282 319 280 318 278 316 l 277 316 l 277 316 l 277 315 l 277 315 l 276 315 l 276 315 l 275 314 b 275 314 274 313 272 312 l 271 312 l 271 311 l 270 311 l 270 311 l 270 311 l 270 310 l 269 310 l 269 310 l 269 310 l 268 310 l 268 309 l 268 309 l 267 309 l 267 309 l 267 309 l 266 308 l 265 307 l 265 307 l 264 307 l 264 307 l 264 306 l 263 306 l 263 306 l 262 306 l 262 306 l 262 305 l 262 305 l 261 305 l 261 304 l 260 303 l 258 302 l 258 302 l 257 301 l 257 301 l 256 300 l 256 300 l 255 299 l 254 298 l 254 298 l 254 298 b 252 296 251 294 250 293 l 250 294 b 249 297 248 299 246 301 l 243 304 b 233 312 219 320 217 334 l 217 335 l 217 336 l 217 336 b 217 337 217 338 217 339 l 217 339 l 217 341 l 217 342 l 217 342 l 218 343 l 218 343 l 218 344 l 218 344 l 218 344 l 218 345 l 218 345 l 218 346 l 218 346 l 219 347 l 219 347 l 219 347 l 219 347 l 219 348 l 219 348 l 219 348 l 220 349 l 220 349 l 220 349 l 220 350 l 220 350 b 221 351 221 351 222 352 l 222 352 l 223 353 l 223 354 l 223 354 l 223 354 z"},"h":{"x_min":0,"x_max":337,"ha":337,"o":"m 67 17 b 144 201 197 255 195 247 b 193 238 147 136 173 49 b 185 4 269 -18 315 19 b 364 60 389 149 400 203 b 403 215 395 225 383 225 b 370 225 358 215 356 203 b 348 165 326 80 290 51 b 286 48 280 45 275 45 b 255 48 269 93 287 148 b 290 150 293 152 295 155 b 301 160 305 166 308 172 b 312 184 311 197 305 207 b 326 274 339 339 302 356 b 233 387 146 266 104 209 l 106 229 b 112 265 130 343 156 430 b 250 507 310 607 334 675 b 341 696 345 715 345 730 b 348 778 303 774 278 766 b 163 720 97 520 68 420 b 41 330 7 149 -10 58 l -10 56 l -10 54 b -9 29 -1 7 24 2 b 32 0 43 2 51 5 b 52 5 53 5 54 6 b 57 7 61 10 63 12 b 65 14 66 15 67 17 z m 185 516 b 188 526 310 804 307 732 b 306 720 303 705 297 688 b 280 637 241 568 181 505 z m 278 207 b 292 206 298 192 293 178 b 286 161 266 156 254 143 b 253 141 252 139 251 139 l 251 139 b 250 142 248 144 247 146 l 244 149 b 234 158 220 165 218 179 b 215 199 238 216 253 202 b 254 201 255 200 255 198 b 256 198 257 195 257 194 b 258 196 258 197 261 199 b 262 201 263 202 265 203 b 268 206 273 207 278 207 z"},"z":{"x_min":0,"x_max":327,"ha":327,"o":"m 146 219 b 145 218 145 218 144 217 b 126 202 107 187 90 170 b 79 160 61 143 57 129 l 56 127 l 56 126 b 54 113 56 101 61 91 b 63 87 67 84 71 83 b 81 79 88 84 98 83 b 109 83 119 71 124 63 b 141 39 149 5 153 -27 b 98 -61 13 -135 -25 -207 b -87 -326 9 -403 135 -306 b 211 -248 242 -145 243 -64 b 243 -48 243 -32 241 -16 b 321 44 363 114 390 205 b 394 216 387 227 376 228 b 365 229 353 220 349 209 b 326 134 294 76 232 26 b 216 82 181 130 123 144 b 128 150 135 157 139 161 b 157 178 177 195 197 210 b 217 225 240 240 262 252 b 269 256 292 268 299 267 b 303 266 307 267 310 269 b 319 273 328 288 334 303 b 341 308 349 312 354 317 b 360 322 364 328 367 335 b 376 357 363 383 338 385 b 331 386 324 384 317 380 b 311 384 303 386 296 385 b 276 383 262 366 261 348 b 241 343 221 339 213 338 b 194 335 176 333 158 331 b 148 329 127 328 117 328 b 146 371 150 420 100 420 b 47 420 0 279 28 240 b 23 227 19 210 18 198 b 18 187 29 179 41 181 b 53 182 63 193 64 205 b 64 207 65 210 65 212 b 90 205 119 212 146 219 z m 277 352 b 282 366 299 375 311 365 l 312 364 b 312 364 314 362 314 361 b 315 360 316 357 316 356 b 317 358 317 359 320 361 l 320 362 l 320 362 l 320 362 l 320 362 l 320 362 l 320 362 l 320 363 l 321 363 l 321 363 l 321 363 l 321 363 l 321 363 l 321 363 l 321 363 l 321 363 l 321 363 l 321 364 l 322 364 l 322 364 l 322 364 l 322 364 l 322 364 b 323 365 324 365 324 365 b 327 368 332 370 337 369 b 351 368 357 354 352 341 b 349 334 345 329 340 325 l 340 325 l 339 325 l 339 325 l 338 324 l 338 324 l 338 324 l 337 323 l 336 323 l 336 322 l 336 322 l 335 322 l 335 322 l 335 322 l 334 321 l 334 321 l 334 321 l 333 320 l 332 320 l 332 320 l 331 319 l 331 319 l 330 319 l 330 318 l 330 318 l 329 318 l 329 318 l 329 317 l 327 317 l 327 317 l 327 316 l 326 316 l 326 315 l 325 315 l 324 315 l 324 315 l 324 314 l 324 314 l 324 314 l 323 314 l 323 313 l 322 313 l 322 313 l 322 313 l 322 313 l 321 313 l 321 312 l 321 312 l 321 312 l 320 312 l 320 311 l 319 311 l 319 310 l 318 310 l 318 310 l 318 310 l 317 309 l 316 309 l 316 308 l 316 308 l 315 308 l 315 307 l 315 307 l 315 307 l 314 306 l 314 306 l 314 306 l 314 306 l 313 305 b 312 303 311 302 310 301 l 310 302 b 309 304 307 306 306 308 l 302 312 b 293 320 279 327 277 342 l 277 343 l 277 343 l 277 347 l 277 348 l 277 349 l 277 349 l 277 350 l 277 350 l 277 351 l 277 351 z m 154 -71 b 152 -155 121 -268 28 -306 b 24 -307 20 -307 17 -305 b 14 -304 12 -300 11 -296 b -6 -232 74 -126 134 -85 b 141 -80 148 -76 154 -71 z"},"B":{"x_min":0,"x_max":650,"ha":650,"o":"m 460 311 b 635 385 336 -123 327 156 b 327 163 324 169 319 173 b 391 281 441 422 459 539 b 462 544 466 549 469 555 b 493 592 532 645 572 665 b 578 668 588 672 595 668 b 597 666 599 664 600 662 b 597 654 595 645 596 636 b 597 629 599 624 602 619 b 590 553 524 455 487 408 b 477 396 465 384 455 373 b 449 368 420 338 419 332 b 413 314 448 306 460 311 z m 467 614 b 468 636 467 656 464 675 b 461 699 319 694 323 659 b 349 480 293 108 93 45 b 72 42 50 42 27 46 b 15 48 3 41 0 30 b -2 19 6 8 18 6 b 46 1 73 0 99 4 b 170 14 234 63 289 132 b 291 107 299 83 312 62 b 328 36 352 15 383 6 b 385 6 387 5 389 5 b 558 -22 704 293 561 348 b 552 352 539 356 526 357 b 561 387 595 431 619 469 b 635 495 655 533 666 571 l 669 575 b 671 577 672 579 673 581 b 678 586 685 591 691 595 b 698 599 705 603 710 609 b 717 615 722 622 725 630 b 736 657 722 689 692 691 b 682 691 673 689 665 684 b 657 689 648 692 638 691 b 637 691 636 691 635 690 b 623 698 610 703 595 703 b 546 704 501 660 467 614 z m 646 600 b 634 611 616 620 614 638 b 610 664 639 685 658 667 b 659 666 661 664 661 663 b 662 661 663 658 664 657 b 665 659 665 660 668 664 b 670 665 672 668 674 669 b 678 672 684 674 690 674 b 708 673 716 654 709 637 b 700 614 675 609 660 592 b 658 590 657 587 656 586 l 656 587 b 654 591 652 593 650 596 z"},"K":{"x_min":0,"x_max":642,"ha":642,"o":"m 323 659 b 325 645 327 630 328 614 b 307 605 294 581 298 558 b 300 540 311 527 325 517 b 326 516 327 515 327 515 b 316 328 248 93 92 45 b 71 42 50 42 27 46 b 15 48 3 41 0 30 b -2 19 6 8 18 6 b 46 1 73 0 99 4 b 233 23 344 181 408 348 b 498 303 312 -14 587 2 b 599 3 608 14 607 27 b 606 39 595 48 583 47 b 489 39 625 313 477 383 b 512 401 542 426 571 456 b 621 511 662 584 700 669 b 705 680 700 694 688 699 b 677 704 664 699 659 687 b 622 607 583 537 537 487 b 505 452 470 426 429 411 b 460 511 474 608 464 675 b 461 699 318 694 323 659 z m 351 517 b 338 530 317 540 315 561 b 310 589 343 613 365 593 b 366 592 368 590 368 588 b 369 587 371 583 371 582 b 373 584 373 586 376 589 b 378 591 380 594 383 595 b 387 598 394 601 401 601 b 421 599 431 579 423 559 b 412 534 383 527 367 508 b 365 506 364 503 363 502 l 362 503 b 360 507 358 510 356 513 z"},"R":{"x_min":0,"x_max":603,"ha":603,"o":"m 442 456 b 464 540 472 618 464 675 b 461 698 318 693 323 659 b 325 647 326 633 327 619 b 302 613 285 586 289 560 b 291 542 303 530 316 519 b 320 516 324 513 327 510 b 315 324 247 93 93 44 b 71 41 50 42 27 46 b 15 48 3 41 0 30 b -2 18 6 8 18 5 b 46 0 73 0 99 4 b 219 21 321 150 386 297 b 483 287 303 -123 575 -48 b 581 -45 588 -42 594 -39 b 587 -37 581 -34 574 -32 b 495 -3 571 258 456 318 b 527 342 603 374 660 423 b 755 505 817 681 639 698 b 632 699 626 698 620 698 b 551 688 498 582 472 525 b 462 503 452 479 442 456 z m 343 520 b 329 532 309 542 306 563 b 302 591 334 615 356 595 b 357 594 359 592 360 590 b 361 589 362 585 363 584 b 364 587 364 588 367 591 b 369 593 372 596 374 597 b 378 600 386 603 393 603 b 412 601 422 581 414 561 b 404 536 375 530 359 510 b 356 508 355 505 354 504 l 353 505 b 352 509 350 512 347 515 z m 437 351 b 459 405 480 457 505 510 b 518 536 584 671 622 660 b 624 660 626 659 628 657 b 681 611 521 378 437 351 z"},"T":{"x_min":0,"x_max":423,"ha":423,"o":"m 65 686 b 144 628 233 624 326 637 b 327 626 328 614 328 601 b 303 595 286 569 290 543 b 293 525 304 512 318 501 b 320 499 323 497 326 495 b 311 312 242 92 92 44 b 71 41 50 42 27 46 b 15 48 3 41 0 29 b -2 18 6 8 18 5 b 46 0 73 0 99 4 b 326 36 486 467 465 664 b 564 686 664 708 754 685 b 766 682 778 690 781 702 b 784 714 777 726 765 729 b 663 755 555 731 449 707 b 319 678 191 649 91 723 b 81 730 67 728 60 718 b 52 708 54 694 65 686 z m 344 502 b 330 514 310 525 307 545 b 303 574 336 598 358 578 b 359 577 360 575 361 573 b 362 571 363 567 364 566 b 366 569 366 570 369 574 b 371 576 373 578 375 580 b 380 583 387 586 394 585 b 414 584 423 563 415 544 b 405 518 376 512 360 493 b 358 490 356 488 355 486 l 355 488 b 353 492 351 494 349 498 z"},"P":{"x_min":0,"x_max":544,"ha":544,"o":"m 323 659 b 349 480 293 107 92 44 b 72 41 50 42 27 46 b 15 48 3 41 0 29 b -2 18 6 8 18 5 b 46 0 73 0 99 4 b 221 21 324 154 390 304 b 473 329 570 364 640 423 b 672 451 700 489 717 528 b 719 530 721 532 723 534 b 731 541 736 548 740 557 b 747 576 743 597 731 610 b 726 655 694 691 618 698 b 612 699 606 698 600 698 b 537 689 488 601 460 542 b 468 593 469 638 464 675 b 461 698 319 693 323 659 z m 653 522 b 639 534 618 544 615 565 b 611 594 644 618 666 598 b 667 597 668 595 670 593 b 670 591 672 588 672 587 b 674 589 674 590 677 594 b 679 596 681 598 683 600 b 688 603 695 606 702 605 b 722 604 731 583 724 564 b 713 538 684 532 668 513 b 666 510 665 508 664 507 l 663 508 b 661 512 659 515 657 517 z m 599 560 b 560 476 472 369 417 351 b 438 405 460 457 485 510 b 498 536 564 671 602 660 b 604 660 606 659 608 657 b 618 648 620 632 617 611 b 603 599 596 581 598 563 b 599 562 599 561 599 560 z"},"|":{"x_min":0,"x_max":254,"ha":254,"o":"m 171 -53 b 177 -52 182 -49 185 -44 b 190 -38 191 -32 191 -25 l 193 595 b 193 613 173 624 157 620 b 152 619 145 615 141 612 b 132 607 124 599 124 588 l 120 -32 b 120 -34 120 -36 121 -38 b 125 -52 141 -54 153 -54 b 159 -54 166 -54 171 -53 z"},"t":{"x_min":0,"x_max":187,"ha":187,"o":"m 88 481 b 75 434 45 322 34 275 b 24 231 14 186 7 142 b -6 56 17 -25 129 4 b 201 22 239 144 251 202 b 253 215 245 225 233 225 b 221 225 208 215 206 202 b 201 176 192 149 182 123 b 173 102 151 54 126 46 b 77 32 97 101 103 133 b 109 173 119 213 129 253 b 130 252 130 251 130 251 b 144 273 166 278 177 288 b 182 294 186 299 189 306 b 198 329 186 355 161 357 b 160 357 159 357 158 357 b 170 400 183 445 190 471 b 259 464 404 461 479 481 b 492 485 501 498 500 509 b 499 521 488 528 476 525 b 407 505 266 512 203 521 b 205 529 207 537 208 544 b 213 576 206 597 174 603 b 160 606 135 601 122 592 l 116 587 l 114 580 b 109 564 105 549 101 534 b 66 537 24 537 -32 532 b -95 527 -161 514 -203 493 b -229 480 -225 435 -188 443 l -185 444 l -183 445 b -147 463 -87 474 -29 479 b 21 483 58 483 88 481 z m 153 340 b 155 341 157 341 159 341 b 173 340 180 326 174 312 b 167 294 147 290 136 277 l 136 276 l 136 276 l 135 276 l 135 276 l 135 276 l 135 276 l 135 276 l 135 276 l 135 275 l 135 275 l 135 275 l 135 275 l 134 275 l 134 274 l 134 274 l 134 274 l 134 274 l 134 274 l 134 274 l 134 274 l 133 273 l 133 273 l 133 273 l 133 272 l 133 272 l 132 273 b 131 276 130 278 128 280 l 125 283 b 116 292 101 299 99 313 b 96 333 119 350 134 336 b 135 335 136 334 137 332 b 138 331 138 329 139 328 b 140 330 140 330 142 333 b 143 335 145 336 147 337 l 147 337 l 147 337 l 147 337 l 147 338 l 147 338 l 147 338 l 148 338 l 148 338 l 148 338 l 148 338 l 149 338 l 149 339 l 149 339 l 149 339 l 150 339 l 150 339 l 150 339 l 150 339 l 151 339 l 151 339 l 151 339 l 151 340 l 152 340 l 152 340 l 152 340 l 152 340 z"},"M":{"x_min":0,"x_max":841,"ha":841,"o":"m 323 659 b 349 480 293 108 92 45 b 72 42 50 42 27 46 b 15 48 3 41 0 30 b -2 19 6 8 18 6 b 46 1 73 0 99 4 b 271 29 405 284 451 491 b 461 514 473 532 486 540 b 487 541 491 544 492 543 b 494 542 496 534 496 532 b 498 522 498 510 497 499 b 495 466 490 432 485 400 b 480 371 474 342 469 314 b 467 302 465 291 463 280 b 462 272 461 264 461 256 b 460 242 460 225 463 211 b 465 202 469 193 478 189 b 483 186 490 185 496 185 b 503 185 509 186 515 188 b 519 190 522 192 524 195 b 527 198 529 202 531 205 b 534 211 534 217 539 223 b 540 225 541 228 542 230 b 544 235 546 240 549 244 b 556 261 564 277 571 293 b 594 341 617 389 641 437 b 664 482 688 529 714 572 b 723 587 733 602 744 616 b 747 619 756 629 760 631 b 761 628 762 623 762 621 b 763 610 758 586 755 575 b 721 429 643 244 659 96 b 663 70 670 43 686 23 l 687 22 b 712 -6 770 -10 785 30 l 787 33 l 782 43 l 782 43 b 779 47 777 53 777 58 b 775 66 774 73 773 81 b 765 203 821 340 851 464 b 854 466 856 467 859 469 b 866 474 873 479 880 485 b 887 492 893 499 896 508 b 907 534 896 564 870 572 b 872 591 872 609 870 626 b 868 647 860 669 839 677 b 833 679 791 679 786 679 b 782 679 779 679 776 679 b 770 679 764 677 758 674 b 704 651 647 537 622 486 b 606 454 591 422 576 391 b 571 381 566 371 561 361 b 566 383 570 407 572 430 b 576 461 579 495 577 526 b 575 547 569 577 547 588 b 543 589 540 590 537 591 b 532 592 527 593 523 593 l 518 593 b 508 593 498 591 490 586 b 480 582 472 575 463 567 b 468 608 468 644 464 675 b 461 699 319 694 323 659 z m 809 473 b 795 485 775 495 772 516 b 768 545 800 569 822 549 b 824 548 825 546 826 544 b 827 542 828 538 829 537 b 831 540 830 541 834 545 b 835 547 838 549 840 551 b 845 554 852 557 859 556 b 878 555 888 534 880 515 b 870 489 841 483 825 464 b 823 461 821 459 820 457 l 819 459 b 818 463 816 465 814 468 z"},"g":{"x_min":0,"x_max":336,"ha":336,"o":"m 381 225 b 369 225 357 215 354 203 b 352 194 350 183 346 171 b 341 152 335 131 327 112 b 310 70 278 36 249 14 b 265 76 277 131 285 165 b 292 190 300 215 306 240 b 319 301 279 370 205 358 b 199 366 190 373 178 374 b 171 374 164 372 158 368 b 151 373 144 374 136 373 b 114 371 98 349 101 328 b 102 323 104 319 105 315 b -14 227 -51 37 39 6 b 43 3 48 2 53 1 b 101 -8 152 49 214 167 b 205 135 182 72 165 23 b 160 22 155 20 150 18 b 143 22 136 24 128 23 b 106 21 91 -1 94 -23 b 95 -33 100 -41 107 -48 b 95 -55 83 -63 71 -71 b 5 -118 -32 -176 -53 -249 b -59 -271 -63 -295 -58 -315 b -55 -327 -48 -338 -36 -344 b 96 -409 178 -231 228 -61 b 289 -20 355 52 375 118 b 381 134 386 150 390 165 b 393 179 396 192 399 203 b 401 215 393 225 381 225 z m 5 -301 b 4 -301 2 -302 1 -302 b -2 -303 -6 -304 -9 -303 b -11 -302 -13 -298 -13 -296 b -16 -284 -13 -265 -9 -252 b 8 -192 37 -145 92 -106 b 104 -98 115 -91 127 -84 b 100 -155 53 -264 5 -301 z m 185 -22 b 177 -39 157 -44 146 -57 b 145 -59 144 -61 143 -61 l 143 -61 b 141 -58 140 -56 138 -54 l 135 -51 l 135 -50 l 134 -49 l 133 -49 l 133 -49 l 133 -49 l 133 -48 l 132 -48 l 132 -48 l 132 -48 l 132 -48 l 132 -48 l 131 -48 l 131 -47 l 131 -47 l 131 -47 l 131 -47 l 130 -47 l 130 -47 l 130 -46 l 130 -46 l 129 -46 l 129 -45 l 128 -45 l 128 -45 l 128 -45 l 127 -44 l 126 -44 l 126 -44 l 125 -42 l 125 -42 l 125 -42 l 124 -42 l 124 -42 l 123 -41 l 123 -41 l 122 -40 l 122 -40 l 122 -40 l 121 -40 b 116 -35 111 -29 110 -21 b 107 -1 129 16 144 2 b 145 1 146 0 147 -2 b 148 -3 148 -5 149 -6 b 150 -4 150 -3 152 -1 b 153 1 155 2 157 3 b 157 4 158 4 158 4 l 159 4 l 159 4 l 159 4 l 159 5 l 159 5 l 160 5 l 160 5 l 160 5 l 160 5 l 160 5 l 161 5 l 161 6 l 162 6 l 162 6 l 162 6 l 162 6 l 163 6 l 163 6 l 164 6 l 164 7 l 165 7 l 165 7 l 166 7 l 166 7 l 170 7 b 183 6 190 -8 185 -22 z m 152 353 b 153 352 154 350 155 349 b 155 348 156 345 157 345 b 158 346 158 347 160 350 b 161 351 163 353 164 354 b 168 356 172 358 177 358 b 188 357 194 348 194 339 b 194 337 194 334 193 332 l 193 332 l 193 332 l 193 331 l 193 330 l 193 330 l 192 330 l 192 329 l 192 329 b 185 311 165 307 154 294 b 152 292 151 290 150 289 l 150 290 b 149 293 148 295 146 297 l 143 300 l 143 300 l 142 300 l 142 301 l 142 301 l 142 301 l 141 301 l 141 301 l 141 302 l 140 302 l 140 303 l 139 303 l 139 303 l 139 303 l 139 304 l 138 304 l 138 304 l 138 304 l 138 304 l 137 305 l 137 305 l 136 305 l 136 306 l 135 306 l 135 306 l 135 306 l 134 307 l 134 307 l 134 307 l 133 307 l 133 308 l 133 308 l 133 308 l 133 308 l 132 309 l 131 309 l 131 310 l 131 310 l 130 310 l 130 310 l 130 311 l 129 311 l 129 311 l 128 312 l 128 312 l 127 313 l 126 313 l 126 314 l 126 314 l 125 315 l 125 315 l 125 315 l 124 315 l 124 316 l 124 316 l 124 316 l 123 317 l 123 317 l 122 318 l 122 318 l 121 319 l 121 319 l 121 320 l 121 320 l 121 320 l 120 321 l 120 322 l 120 322 l 120 322 l 119 322 l 119 323 l 119 323 l 119 324 l 119 324 l 119 324 b 118 326 117 328 117 330 b 114 350 137 366 152 353 z m 232 298 l 227 293 l 225 286 b 224 283 223 281 222 278 b 215 264 166 158 130 106 b 106 72 78 55 94 104 b 114 164 203 302 229 304 b 230 304 232 305 234 304 b 233 302 233 300 232 298 z"},"j":{"x_min":0,"x_max":172,"ha":172,"o":"m 136 247 b 147 255 158 260 165 267 b 170 272 174 278 177 284 b 186 307 174 333 149 335 b 146 335 144 335 141 334 b 124 363 76 368 55 352 l 47 346 l 46 337 b 45 319 27 247 24 230 b 19 205 13 179 7 153 b -9 93 -27 32 -47 -28 b -396 -219 -210 -500 -38 -261 b 1 -206 28 -136 45 -87 b 53 -65 60 -43 66 -21 b 79 -13 92 -5 104 5 b 173 59 212 126 236 205 b 239 217 232 228 220 229 b 208 230 195 221 192 209 b 190 203 188 196 186 190 b 168 138 141 91 96 51 b 92 48 88 44 84 41 b 87 52 90 64 93 75 b 96 88 100 101 103 115 b 109 135 114 156 119 177 b 122 190 130 220 136 247 z m 93 392 b 95 390 97 387 99 384 l 99 382 b 100 383 102 386 103 388 b 118 405 144 411 154 434 b 161 451 152 470 134 471 b 128 472 122 469 117 466 b 115 465 113 463 112 461 b 109 458 109 457 107 454 b 107 455 105 459 105 460 b 104 462 102 464 101 465 b 82 483 52 461 56 435 b 59 417 77 407 89 396 z m 147 319 b 161 318 168 304 162 290 b 158 280 149 274 141 268 l 140 268 l 140 268 l 139 267 l 139 267 l 139 267 l 139 267 l 138 266 l 138 266 l 137 266 l 137 266 l 137 266 l 136 265 l 136 265 l 136 265 l 136 265 l 135 265 l 134 264 l 134 264 l 134 264 l 134 264 l 134 263 l 133 263 l 133 263 l 132 263 l 132 262 l 132 262 l 132 262 l 132 262 l 131 262 l 131 261 l 130 261 l 130 260 l 130 260 l 129 260 l 129 259 l 128 259 l 128 259 l 128 259 l 127 258 l 127 258 l 127 258 l 125 257 l 125 256 l 124 255 l 124 255 b 122 253 121 251 121 250 l 120 252 b 119 254 118 256 116 258 l 113 261 b 103 270 89 277 87 291 b 84 311 107 328 122 314 b 123 313 124 312 125 310 b 125 309 126 307 127 306 b 128 308 128 308 130 311 b 131 313 133 314 135 315 l 135 315 l 135 315 l 135 316 l 135 316 l 135 316 l 136 316 l 136 316 l 136 316 l 136 316 l 137 316 l 137 317 l 137 317 l 137 317 l 137 317 l 138 317 l 138 317 l 138 317 l 138 317 l 139 317 l 139 317 l 139 318 l 140 318 l 140 318 l 140 318 l 140 318 l 141 318 l 141 318 l 142 318 l 142 319 l 143 319 l 143 319 l 144 319 l 144 319 z m -68 -87 b -76 -108 -164 -331 -200 -301 b -208 -294 -206 -273 -196 -246 b -177 -196 -130 -125 -68 -87 z"},"i":{"x_min":0,"x_max":163,"ha":163,"o":"m 107 392 b 109 390 111 387 113 384 l 113 382 b 114 383 116 386 117 388 b 132 405 158 411 168 434 b 175 451 166 470 148 471 b 142 472 136 469 131 466 b 129 465 127 463 126 461 b 123 458 123 457 121 454 b 121 455 119 459 119 460 b 118 462 116 464 115 465 b 96 483 66 461 70 435 b 73 417 91 407 103 396 z m 135 250 b 148 262 163 267 172 276 b 177 281 181 287 184 293 b 193 316 181 342 156 344 b 150 344 144 343 138 341 b 119 365 77 366 59 352 l 53 348 l 51 340 b 38 297 16 218 6 149 b -4 80 -10 14 68 2 b 93 -2 120 3 141 19 b 190 60 215 149 226 203 b 229 215 221 225 208 225 b 196 225 184 215 181 203 b 173 165 152 80 116 51 b 112 48 106 45 101 45 b 76 49 114 178 135 250 z m 146 327 b 149 328 151 328 154 328 b 168 327 175 313 169 299 b 164 287 152 281 142 274 l 141 273 l 141 273 l 141 273 l 140 273 l 140 272 l 140 272 l 140 272 l 140 272 l 139 272 l 139 272 l 139 272 l 139 271 l 139 271 l 139 271 l 138 271 l 138 271 l 138 271 l 138 271 l 138 271 l 137 270 l 137 270 l 137 270 l 136 270 l 136 269 l 136 269 l 136 269 l 135 268 l 135 268 l 135 268 l 134 268 l 133 266 l 133 266 l 132 266 l 131 264 b 129 262 128 261 127 259 l 127 261 b 126 263 124 265 123 267 l 120 270 b 110 279 96 286 94 300 b 91 320 114 337 129 323 b 130 322 131 321 132 320 b 132 319 133 316 134 315 b 135 317 135 318 137 320 b 138 322 140 323 141 325 l 142 325 l 142 325 l 142 325 l 142 325 l 142 325 l 142 325 l 143 325 l 143 325 l 143 325 l 143 326 l 144 326 l 144 326 l 144 326 l 144 326 l 144 326 l 144 326 l 145 326 l 145 327 l 146 327 l 146 327 l 146 327 z"},"y":{"x_min":0,"x_max":328,"ha":328,"o":"m 148 19 b 138 -16 145 9 133 -26 b 106 -40 80 -54 56 -72 b -11 -119 -47 -176 -68 -249 b -74 -270 -78 -295 -73 -314 b -61 -359 -7 -351 28 -336 b 132 -290 191 -117 220 -21 b 233 -12 246 -4 259 6 b 328 60 367 126 391 205 b 395 216 389 227 377 228 b 366 229 354 220 350 209 b 348 202 346 196 344 190 b 331 153 313 118 288 88 b 273 69 256 53 237 38 b 255 103 269 169 287 235 b 292 253 297 271 300 289 b 305 321 298 342 265 348 b 237 354 215 338 212 309 b 210 281 206 263 198 236 b 192 219 144 52 115 57 b 111 57 105 58 103 62 b 99 71 106 93 109 103 b 116 126 141 221 151 263 b 158 267 165 270 170 275 b 175 280 179 286 182 293 b 191 315 179 341 153 343 b 150 343 146 343 142 342 b 139 344 134 346 129 347 b 121 349 83 348 75 346 b 46 340 9 168 3 146 b -14 82 -16 19 56 2 b 87 -5 123 -2 146 17 l 147 19 z m 154 327 b 167 325 172 311 167 298 b 165 292 161 288 156 284 l 155 283 l 155 283 l 154 283 l 153 281 l 152 281 l 152 281 l 152 281 l 152 280 l 151 280 l 151 280 l 150 280 l 150 279 l 149 279 l 149 279 l 147 278 l 147 278 l 146 277 l 146 277 l 146 277 l 145 276 l 145 276 l 145 276 l 144 276 l 144 276 l 143 275 l 143 275 l 143 275 l 142 274 l 142 274 l 142 274 l 141 274 l 140 273 l 140 273 l 140 272 l 139 272 l 138 271 l 138 271 l 137 271 l 137 271 l 136 270 l 136 270 l 136 270 l 136 270 l 135 269 l 135 269 l 135 269 l 134 268 l 133 267 l 132 267 l 130 265 l 130 264 l 129 264 l 129 264 l 129 264 l 129 263 b 127 261 126 260 126 259 l 125 260 b 124 262 123 264 121 266 l 118 269 b 108 278 94 285 92 299 b 89 320 112 336 127 322 b 128 322 129 320 130 319 b 130 318 131 315 131 314 b 133 316 133 317 135 320 b 136 321 138 322 139 324 b 143 326 148 328 152 327 l 154 327 z m 113 -81 b 103 -108 14 -324 -26 -304 b -28 -303 -30 -299 -30 -297 b -33 -284 -30 -266 -26 -252 b -9 -191 20 -145 76 -105 b 88 -97 100 -89 113 -81 z"},"@":{"x_min":0,"x_max":624,"ha":624,"o":"m 469 65 l 469 73 l 206 73 l 206 65 z m 365 109 l 365 125 l 372 125 l 372 130 l 353 130 l 353 125 l 359 125 l 359 109 z m 336 115 l 334 111 l 343 108 l 343 108 b 353 108 358 119 344 122 b 336 124 342 128 350 124 l 351 129 b 339 136 325 121 342 117 b 352 115 343 110 336 115 z m 374 130 b 374 120 371 108 384 108 l 384 108 b 396 108 394 120 394 130 l 388 130 b 388 122 389 113 384 113 b 378 113 380 122 380 130 z m 241 172 b 240 138 269 137 297 164 b 288 132 292 105 323 98 b 305 137 344 214 376 265 l 367 268 b 401 268 444 263 451 245 b 469 279 438 289 393 289 b 405 304 415 310 416 305 l 416 305 b 414 321 402 323 388 313 b 383 309 375 300 366 288 b 330 286 291 280 261 276 b 274 362 163 306 143 206 b 127 132 191 116 241 172 z m 170 199 b 177 265 260 343 246 274 b 234 272 225 271 219 271 b 218 256 231 259 242 260 b 234 239 213 219 193 240 b 169 201 231 167 258 260 l 253 261 l 350 268 b 350 268 350 268 350 268 l 350 268 l 350 268 b 340 253 329 235 319 217 l 319 217 b 309 202 298 182 281 174 b 270 169 259 171 265 188 b 275 184 291 190 300 201 b 322 227 286 257 259 223 l 259 223 b 242 198 225 163 191 166 b 177 167 167 177 170 199 z m 271 201 b 293 240 302 202 271 201 z m 450 129 b 432 138 424 108 444 108 b 457 108 459 124 450 129 z m 444 113 b 437 113 436 122 441 125 b 449 130 454 113 444 113 z m 420 119 b 420 132 405 130 398 130 l 398 109 b 405 109 420 107 420 119 z m 407 114 l 407 114 l 404 114 l 404 125 b 419 125 414 114 407 114 z m 475 13 b 475 22 484 21 485 16 l 491 17 l 491 17 l 491 17 b 488 29 468 28 468 12 b 468 -4 489 -5 492 8 l 485 9 b 484 3 475 2 475 13 z m 429 109 l 429 130 l 423 130 l 423 109 z m 140 392 b 121 387 105 403 110 424 b 117 454 176 479 213 476 b 201 462 183 438 168 412 b 166 417 166 422 166 427 b 142 423 142 402 155 390 b 129 338 116 285 161 274 b 151 295 163 339 182 380 b 249 380 297 456 245 480 b 251 484 254 482 254 481 l 254 481 b 252 498 237 499 225 488 l 227 486 b 177 495 102 473 84 428 b 66 384 113 351 140 392 z m 234 470 b 260 452 228 393 184 398 b 182 398 179 399 178 400 b 182 400 187 399 192 401 b 206 429 222 455 234 470 z m 495 13 b 495 -6 520 -4 520 12 b 520 29 495 29 495 13 z m 501 12 b 501 22 513 22 513 12 b 513 2 501 2 501 12 z m 545 21 b 542 26 535 26 530 21 l 530 25 l 524 25 l 524 0 l 531 0 b 531 6 530 17 533 19 b 542 25 539 7 539 0 l 546 0 b 546 6 545 17 548 19 b 556 25 554 7 554 0 l 561 0 l 561 16 b 560 28 550 27 545 21 z m 283 406 b 261 425 245 398 238 383 b 216 334 232 302 272 346 b 270 323 287 313 318 349 l 318 349 l 318 349 b 312 338 307 323 319 315 b 320 311 323 308 326 307 b 345 299 379 355 397 382 b 398 384 406 395 411 403 b 413 401 415 398 417 396 b 425 384 384 338 414 326 b 423 322 435 332 448 346 b 447 324 462 313 493 347 b 491 317 518 314 549 341 b 587 375 605 447 546 436 b 575 403 532 335 515 344 b 505 350 532 403 546 406 b 534 416 524 413 516 405 b 508 418 482 423 463 392 b 430 339 417 340 435 376 b 452 411 422 408 412 423 b 415 421 419 419 422 421 b 423 428 420 432 414 434 b 400 441 388 421 399 413 b 388 396 350 335 343 335 b 328 335 381 433 385 440 l 377 442 b 441 445 517 444 526 419 b 552 467 475 468 399 461 b 411 478 422 488 428 482 b 427 497 414 499 401 489 b 393 484 383 472 372 459 b 329 454 290 447 276 447 b 275 436 283 435 291 436 b 304 436 330 439 360 441 b 351 428 343 414 336 400 b 318 374 301 350 297 350 b 286 350 315 407 329 410 b 311 426 296 408 287 392 b 275 374 260 350 253 350 b 243 350 268 403 283 406 z m 507 393 b 508 393 508 393 508 393 l 508 393 l 507 393 b 507 393 507 393 507 393 b 504 388 480 350 473 350 b 465 350 493 414 507 393 z m 540 301 b 538 316 526 318 512 308 b 485 288 433 209 436 171 b 436 162 441 159 441 159 l 441 159 b 444 135 469 134 498 159 b 521 180 514 217 487 210 b 491 196 481 153 464 162 b 462 163 461 166 462 170 b 473 227 524 317 540 301 z m 129 8 l 125 25 l 119 25 l 114 8 l 110 25 l 104 25 l 111 0 l 118 0 l 122 16 l 126 0 l 132 0 l 140 25 l 134 25 z m 271 5 b 261 -1 264 21 264 25 l 257 25 l 257 9 b 257 -4 270 -2 273 4 l 273 0 l 273 0 l 273 0 l 279 0 l 279 25 l 273 25 b 273 18 274 8 271 5 z m 450 0 l 450 34 l 444 34 l 444 0 z m 308 21 l 308 25 l 302 25 l 302 0 l 308 0 b 308 6 306 24 315 18 l 317 24 b 313 26 310 25 308 21 z m 319 18 l 325 17 l 325 17 l 325 17 b 327 21 334 22 334 16 b 333 15 330 15 327 14 b 309 11 323 -8 334 3 l 335 0 l 341 0 l 340 16 b 340 30 322 27 319 18 z m 334 12 b 334 1 327 4 326 5 b 321 10 332 11 334 12 b 334 12 334 12 334 12 l 334 12 b 334 12 334 12 334 12 z m 352 13 b 352 22 361 21 361 16 l 368 17 l 368 17 l 368 17 b 364 29 345 28 345 12 b 345 -4 365 -5 368 8 l 362 9 b 361 3 352 2 352 13 z m 413 13 b 413 -6 439 -4 439 12 b 439 29 413 29 413 13 z m 420 12 b 420 22 432 22 432 12 b 432 2 420 2 420 12 z m 293 19 l 297 19 l 297 25 l 297 25 l 293 25 l 293 33 l 286 29 l 286 25 l 283 25 l 283 19 l 286 19 b 286 11 283 -6 298 0 l 297 5 b 291 3 293 6 293 19 z m 371 12 b 371 -4 390 -4 393 7 l 387 8 b 385 2 378 4 378 10 l 394 10 b 394 31 371 29 371 12 z m 378 14 b 378 22 387 22 387 14 z m 166 8 l 162 25 l 155 25 l 151 8 l 147 25 l 140 25 l 148 0 l 154 0 l 158 16 l 163 0 l 169 0 l 177 25 l 170 25 z m 222 0 l 222 7 l 215 7 l 215 0 z m 202 8 l 198 25 l 192 25 l 188 8 l 183 25 l 177 25 l 185 0 l 191 0 l 195 16 l 199 0 l 206 0 l 214 25 l 207 25 z m 392 244 b 411 244 410 219 402 198 b 388 158 350 152 375 201 b 383 216 394 231 401 233 b 383 249 366 230 356 208 b 339 168 346 148 362 146 b 391 143 427 179 434 213 b 440 244 417 263 392 244 z m 406 19 l 410 19 l 410 24 l 410 25 l 406 25 l 406 33 l 399 29 l 399 25 l 396 25 l 396 19 l 399 19 b 399 11 396 -6 411 0 l 410 5 b 404 3 406 6 406 19 z m 234 21 l 234 25 l 228 25 l 228 25 l 228 -9 l 235 -9 l 235 3 b 239 -2 245 -2 249 3 b 260 15 243 34 234 21 z m 235 13 l 235 13 b 235 13 235 13 235 13 b 235 22 245 23 245 12 b 245 1 235 2 235 13 z m 463 0 l 463 6 l 457 6 l 457 0 z"},".":{"x_min":0,"x_max":163,"ha":163,"o":"m 96 70 b 77 70 57 54 52 35 b 47 15 59 0 78 0 b 97 0 117 15 122 35 b 127 54 116 70 96 70 z"},"p":{"x_min":0,"x_max":297,"ha":297,"o":"m 121 6 b 190 -16 310 25 346 144 b 352 164 356 184 360 203 b 363 215 355 225 343 225 b 330 225 318 215 315 203 b 312 186 308 168 302 150 b 266 65 221 50 196 46 b 271 73 351 306 273 349 b 276 369 264 389 242 390 b 235 391 227 389 221 385 b 214 389 207 391 199 390 b 177 388 162 366 165 344 b 166 339 167 334 170 330 b 147 312 132 288 118 270 b 118 270 118 271 118 272 b 122 292 123 314 112 329 b 106 337 98 342 88 344 b 81 345 74 346 66 344 l 47 341 l 47 323 b 46 311 43 297 40 285 b 36 267 31 249 26 231 b 20 210 13 188 8 166 l 8 166 b 6 160 4 154 3 147 b -10 93 -21 38 -30 -16 b -46 -116 -70 -316 23 -366 b 38 -374 54 -378 72 -378 l 86 -342 b 58 -332 51 -273 49 -246 b 45 -183 51 -112 59 -46 b 64 1 57 -45 65 2 b 82 -2 101 0 120 5 b 120 5 121 5 121 6 z m 183 339 b 182 341 181 344 181 346 b 178 366 200 383 215 369 b 216 368 217 367 218 366 b 218 365 219 362 220 361 b 221 363 221 364 223 366 b 224 368 226 369 228 371 b 231 373 236 375 241 374 b 251 373 258 365 257 354 l 257 353 l 257 353 l 257 351 l 257 351 l 257 350 l 257 350 l 257 349 l 257 349 l 257 348 l 256 348 l 256 347 l 256 347 l 256 347 l 256 346 l 256 346 l 256 346 l 256 346 b 248 328 228 323 217 310 b 215 308 215 307 214 306 l 213 307 b 212 309 211 311 209 313 l 206 317 l 206 317 l 206 317 l 205 317 l 205 317 l 205 318 l 205 318 l 204 318 l 204 318 l 203 319 l 203 319 l 203 319 l 202 320 l 202 320 l 201 320 l 201 321 l 201 321 l 201 321 l 200 321 l 200 321 l 200 322 l 200 322 l 199 322 l 199 322 l 199 323 l 199 323 l 198 323 l 198 323 l 197 324 l 197 324 l 196 324 l 196 324 l 196 325 l 196 325 l 195 325 l 195 325 l 194 326 l 194 326 l 193 327 l 193 327 l 193 327 l 193 327 l 192 327 l 192 328 l 192 328 l 191 328 l 191 329 l 191 329 l 190 329 l 190 330 l 190 330 l 189 330 l 189 331 l 189 331 l 189 331 l 188 332 l 188 332 b 186 334 184 337 183 339 z m 86 91 b 125 214 164 226 182 214 b 211 195 195 84 124 75 b 118 79 112 83 105 86 b 99 89 93 91 86 91 z"},"X":{"x_min":0,"x_max":307,"ha":307,"o":"m 129 690 b 122 688 88 683 83 677 l 83 677 b 80 662 77 644 75 622 b 74 622 74 622 73 622 b 45 619 25 590 29 562 b 31 544 42 532 56 520 b 61 517 66 513 71 509 l 71 508 b 72 431 79 340 94 254 b 55 176 23 99 2 34 b -1 24 4 13 15 10 b 25 7 36 12 40 23 b 56 73 79 130 107 190 b 140 49 200 -65 299 -60 l 337 -60 l 320 -45 b 278 -10 255 58 240 127 b 222 212 215 298 210 384 b 219 400 228 415 238 429 b 311 545 387 639 445 667 b 455 672 459 684 454 694 b 449 704 437 708 428 703 b 363 672 281 573 205 452 b 201 516 195 579 184 642 l 184 643 b 183 646 182 648 182 651 l 182 651 l 181 656 l 180 659 l 180 660 l 179 662 l 179 663 l 178 665 l 178 666 b 178 667 177 668 177 669 l 177 669 l 176 671 l 176 672 b 175 673 175 673 175 674 l 174 675 l 174 676 l 173 677 b 173 677 172 678 172 679 b 168 683 163 686 158 688 b 153 690 148 692 143 692 b 138 692 134 691 129 690 z m 83 521 b 69 534 49 544 46 564 b 42 593 74 617 96 598 b 97 596 99 594 100 592 b 101 591 102 587 102 586 b 104 588 104 589 107 593 b 109 595 111 598 114 599 b 118 603 125 605 133 605 b 152 603 162 583 154 563 b 144 537 115 531 98 512 b 96 510 95 507 94 506 l 93 507 b 91 511 89 514 87 517 z"},"*":{"x_min":0,"x_max":292,"ha":292,"o":"m 176 580 b 178 578 179 576 181 574 b 194 563 213 568 226 576 b 237 583 245 594 246 606 b 246 610 246 614 244 618 l 244 619 l 244 620 b 242 624 240 628 238 633 b 248 634 258 636 268 638 l 269 638 b 296 645 299 689 278 704 b 270 710 260 711 251 709 l 251 709 l 250 709 b 248 708 247 707 245 707 b 246 711 248 715 249 719 l 249 720 b 251 726 250 731 248 737 b 241 753 220 757 204 753 b 196 751 189 747 183 741 b 179 737 176 732 175 726 l 175 725 l 174 725 b 173 717 172 709 170 701 b 164 703 159 706 153 708 l 152 708 l 152 708 b 119 719 86 670 106 646 b 109 643 113 640 118 638 l 119 638 l 119 638 b 123 637 127 636 131 636 b 128 633 125 630 123 627 l 122 627 l 122 627 b 109 611 112 590 127 577 b 137 568 153 564 166 571 b 169 572 171 574 173 577 l 174 577 l 174 577 b 175 578 175 579 176 580 z"},"Y":{"x_min":0,"x_max":394,"ha":394,"o":"m 145 313 b 145 313 144 313 143 314 b 132 320 133 356 133 367 b 135 403 142 441 149 477 b 156 510 164 543 173 576 b 178 596 184 616 190 636 l 190 637 b 192 648 199 671 194 683 b 183 710 108 697 102 691 b 87 670 74 646 64 620 b 58 622 52 623 45 622 b 17 620 -3 591 0 563 b 3 544 14 532 28 521 b 30 519 33 517 35 516 b 26 461 26 405 36 355 b 51 281 130 255 196 294 b 265 336 308 465 344 564 b 346 567 347 570 348 573 b 332 395 295 124 66 109 b 63 -12 215 -60 308 81 b 407 233 422 533 410 639 b 409 650 407 665 403 676 b 396 695 370 707 354 690 b 350 685 345 672 343 666 l 342 666 b 315 598 230 318 145 313 z m 55 522 b 41 534 21 544 18 565 b 14 594 46 618 68 598 b 69 597 71 595 72 593 b 72 591 74 587 74 586 b 76 589 76 590 79 594 b 81 596 83 598 86 600 b 90 603 97 606 104 605 b 124 604 134 583 126 564 b 115 538 87 532 70 513 b 68 510 67 508 66 506 l 65 508 b 64 512 61 514 59 517 z"},"c":{"x_min":0,"x_max":267,"ha":267,"o":"m 67 347 b 60 351 53 353 45 352 b 23 350 8 328 11 306 b 13 293 21 283 31 275 b 37 271 40 268 44 265 b -16 169 -17 26 117 5 b 134 1 151 -1 169 1 b 247 8 305 117 328 198 b 332 211 329 222 318 225 b 307 228 293 221 287 209 b 273 152 225 50 175 46 b 89 39 119 254 175 294 b 200 312 209 298 205 287 b 202 278 201 271 207 264 b 225 244 273 297 256 332 b 242 362 193 360 161 352 b 145 350 129 344 114 336 b 109 345 100 351 88 352 b 81 353 73 351 67 347 z m 52 279 b 42 287 28 294 26 309 b 24 329 46 345 61 332 b 62 331 63 329 64 328 b 64 327 65 324 66 323 b 67 325 67 326 69 329 b 70 330 72 332 74 333 b 77 335 82 337 87 337 b 93 336 98 332 101 327 l 101 327 l 101 327 b 104 321 104 314 102 308 l 101 308 b 94 290 74 286 63 272 b 62 271 61 269 60 268 l 59 269 b 58 271 57 273 55 276 z"},"!":{"x_min":0,"x_max":516,"ha":516,"o":"m 450 65 l 450 73 l 187 73 l 187 65 z m 346 109 l 346 125 l 353 125 l 353 130 l 334 130 l 334 125 l 340 125 l 340 109 z m 317 115 l 315 111 l 324 108 l 324 108 b 334 108 339 119 325 122 b 317 124 323 128 331 124 l 332 129 b 320 136 306 121 323 117 b 333 115 324 110 317 115 z m 355 130 b 355 120 352 108 365 108 l 365 108 b 377 108 375 120 375 130 l 369 130 b 369 122 370 113 365 113 b 359 113 361 122 361 130 z m 222 172 b 221 138 250 137 278 164 b 269 132 273 105 304 98 b 286 137 325 214 357 265 l 348 268 b 382 268 425 263 432 245 b 450 279 419 289 374 289 b 386 304 396 310 397 305 l 397 305 b 395 321 383 323 369 313 b 364 309 356 300 347 288 b 311 286 272 280 242 276 b 255 362 144 306 124 206 b 108 132 172 116 222 172 z m 151 199 b 158 265 241 343 227 274 b 215 272 206 271 200 271 b 199 256 212 259 223 260 b 215 239 194 219 174 240 b 150 201 212 167 239 260 l 234 261 l 331 268 b 331 268 331 268 331 268 l 331 268 l 331 268 b 321 253 310 235 300 217 l 300 217 b 290 202 279 182 262 174 b 251 169 240 171 246 188 b 256 184 272 190 281 201 b 303 227 267 257 240 223 l 240 223 b 223 198 206 163 172 166 b 158 167 148 177 151 199 z m 252 201 b 274 240 283 202 252 201 z m 431 129 b 413 138 405 108 425 108 b 438 108 440 124 431 129 z m 425 113 b 418 113 417 122 422 125 b 430 130 435 113 425 113 z m 401 119 b 401 132 386 130 379 130 l 379 109 b 386 109 401 107 401 119 z m 388 114 l 388 114 l 385 114 l 385 125 b 400 125 395 114 388 114 z m 456 13 b 456 22 465 21 466 16 l 472 17 l 472 17 l 472 17 b 469 29 449 28 449 12 b 449 -4 470 -5 473 8 l 466 9 b 465 3 456 2 456 13 z m 410 109 l 410 130 l 404 130 l 404 109 z m 121 392 b 102 387 86 403 91 424 b 98 454 157 479 194 476 b 182 462 164 438 149 412 b 147 417 147 422 147 427 b 123 423 123 402 136 390 b 110 338 97 285 142 274 b 132 295 144 339 163 380 b 230 380 278 456 226 480 b 232 484 235 482 235 481 l 235 481 b 233 498 218 499 206 488 l 208 486 b 158 495 83 473 65 428 b 47 384 94 351 121 392 z m 215 470 b 241 452 209 393 165 398 b 163 398 160 399 159 400 b 163 400 168 399 173 401 b 187 429 203 455 215 470 z m 476 13 b 476 -6 501 -4 501 12 b 501 29 476 29 476 13 z m 482 12 b 482 22 494 22 494 12 b 494 2 482 2 482 12 z m 526 21 b 523 26 516 26 511 21 l 511 25 l 505 25 l 505 0 l 512 0 b 512 6 511 17 514 19 b 523 25 520 7 520 0 l 527 0 b 527 6 526 17 529 19 b 537 25 535 7 535 0 l 541 0 l 541 16 b 541 28 531 27 526 21 z m 264 406 b 242 425 226 398 219 383 b 197 334 213 302 253 346 b 251 323 268 313 299 349 l 299 349 l 299 349 b 293 338 288 323 300 315 b 301 311 304 308 307 307 b 326 299 360 355 378 382 b 379 384 387 395 392 403 b 394 401 396 398 398 396 b 406 384 365 338 395 326 b 404 322 416 332 429 346 b 428 324 443 313 474 347 b 472 317 499 314 530 341 b 568 375 586 447 527 436 b 556 403 513 335 496 344 b 486 350 513 403 527 406 b 515 416 505 413 497 405 b 489 418 463 423 444 392 b 411 339 398 340 416 376 b 433 411 403 408 393 423 b 396 421 400 419 403 421 b 404 428 401 432 395 434 b 381 441 369 421 380 413 b 369 396 331 335 324 335 b 309 335 362 433 366 440 l 358 442 b 422 445 498 444 507 419 b 533 467 456 468 380 461 b 392 478 403 488 409 482 b 408 497 395 499 382 489 b 374 484 364 472 353 459 b 310 454 271 447 257 447 b 256 436 264 435 272 436 b 285 436 311 439 341 441 b 332 428 324 414 317 400 b 299 374 282 350 278 350 b 267 350 296 407 310 410 b 292 426 277 408 268 392 b 256 374 241 350 234 350 b 224 350 249 403 264 406 z m 488 393 b 489 393 489 393 489 393 l 489 393 l 488 393 b 488 393 488 393 488 393 b 485 388 461 350 454 350 b 446 350 474 414 488 393 z m 521 301 b 519 316 507 318 493 308 b 466 288 414 209 417 171 b 417 162 422 159 422 159 l 422 159 b 425 135 450 134 479 159 b 502 180 495 217 468 210 b 472 196 462 153 445 162 b 443 163 442 166 443 170 b 454 227 505 317 521 301 z m 110 8 l 106 25 l 100 25 l 95 8 l 91 25 l 85 25 l 92 0 l 99 0 l 103 16 l 107 0 l 113 0 l 121 25 l 115 25 z m 252 5 b 242 -1 245 21 245 25 l 238 25 l 238 9 b 238 -4 251 -2 254 4 l 254 0 l 254 0 l 254 0 l 260 0 l 260 25 l 254 25 b 254 18 255 8 252 5 z m 431 0 l 431 34 l 425 34 l 425 0 z m 289 21 l 289 25 l 283 25 l 283 0 l 289 0 b 289 6 287 24 296 18 l 298 24 b 294 26 291 25 289 21 z m 300 18 l 306 17 l 306 17 l 306 17 b 308 21 315 22 315 16 b 314 15 311 15 308 14 b 290 11 304 -8 315 3 l 316 0 l 322 0 l 321 16 b 321 30 303 27 300 18 z m 315 12 b 315 1 308 4 307 5 b 302 10 313 11 315 12 b 315 12 315 12 315 12 l 315 12 b 315 12 315 12 315 12 z m 333 13 b 333 22 342 21 342 16 l 349 17 l 349 17 l 349 17 b 345 29 326 28 326 12 b 326 -4 346 -5 349 8 l 343 9 b 342 3 333 2 333 13 z m 394 13 b 394 -6 420 -4 420 12 b 420 29 394 29 394 13 z m 401 12 b 401 22 413 22 413 12 b 413 2 401 2 401 12 z m 274 19 l 278 19 l 278 25 l 278 25 l 274 25 l 274 33 l 267 29 l 267 25 l 264 25 l 264 19 l 267 19 b 267 11 264 -6 279 0 l 278 5 b 272 3 274 6 274 19 z m 352 12 b 352 -4 371 -4 374 7 l 368 8 b 366 2 359 4 359 10 l 375 10 b 375 31 352 29 352 12 z m 359 14 b 359 22 368 22 368 14 z m 147 8 l 143 25 l 136 25 l 132 8 l 128 25 l 121 25 l 129 0 l 135 0 l 139 16 l 144 0 l 150 0 l 158 25 l 151 25 z m 203 0 l 203 7 l 196 7 l 196 0 z m 183 8 l 179 25 l 173 25 l 169 8 l 164 25 l 158 25 l 166 0 l 172 0 l 176 16 l 180 0 l 187 0 l 195 25 l 188 25 z m 373 244 b 392 244 391 219 383 198 b 369 158 331 152 356 201 b 364 216 375 231 382 233 b 364 249 347 230 337 208 b 320 168 327 148 343 146 b 372 143 408 179 415 213 b 421 244 398 263 373 244 z m 387 19 l 391 19 l 391 24 l 391 25 l 387 25 l 387 33 l 380 29 l 380 25 l 377 25 l 377 19 l 380 19 b 380 11 377 -6 392 0 l 391 5 b 385 3 387 6 387 19 z m 215 21 l 215 25 l 209 25 l 209 25 l 209 -9 l 216 -9 l 216 3 b 220 -2 226 -2 230 3 b 241 15 224 34 215 21 z m 216 13 l 216 13 b 216 13 216 13 216 13 b 216 22 226 23 226 12 b 226 1 216 2 216 13 z m 444 0 l 444 6 l 438 6 l 438 0 z"},"/":{"x_min":0,"x_max":294,"ha":294,"o":"m 87 -25 b 100 -25 107 -17 112 -6 l 362 561 b 370 580 352 597 334 597 b 328 597 321 595 316 593 b 307 591 297 586 293 576 l 42 9 b 40 6 40 3 40 0 b 41 -16 56 -21 69 -23 b 74 -24 81 -25 87 -25 z"},"[":{"x_min":0,"x_max":329,"ha":329,"o":"m 404 634 l 428 724 l 269 724 l 70 -31 l 230 -31 l 253 59 l 185 59 l 336 634 z"},"6":{"x_min":0,"x_max":534,"ha":534,"o":"m 399 65 l 399 73 l 136 73 l 136 65 z m 295 109 l 295 125 l 302 125 l 302 130 l 283 130 l 283 125 l 289 125 l 289 109 z m 266 115 l 264 111 l 273 108 l 273 108 b 283 108 288 119 274 122 b 266 124 272 128 280 124 l 281 129 b 269 136 255 121 272 117 b 282 115 273 110 266 115 z m 304 130 b 304 120 301 108 314 108 l 314 108 b 326 108 324 120 324 130 l 318 130 b 318 122 319 113 314 113 b 308 113 310 122 310 130 z m 171 172 b 170 138 199 137 227 164 b 218 132 222 105 253 98 b 235 137 274 214 306 265 l 297 268 b 331 268 374 263 381 245 b 399 279 368 289 323 289 b 335 304 345 310 346 305 l 346 305 b 344 321 332 323 318 313 b 313 309 305 300 296 288 b 260 286 221 280 191 276 b 204 362 93 306 73 206 b 57 132 121 116 171 172 z m 100 199 b 107 265 190 343 176 274 b 164 272 155 271 149 271 b 148 256 161 259 172 260 b 164 239 143 219 123 240 b 99 201 161 167 188 260 l 183 261 l 280 268 b 280 268 280 268 280 268 l 280 268 l 280 268 b 270 253 259 235 249 217 l 249 217 b 239 202 228 182 211 174 b 200 169 189 171 195 188 b 205 184 221 190 230 201 b 252 227 216 257 189 223 l 189 223 b 172 198 155 163 121 166 b 107 167 97 177 100 199 z m 201 201 b 223 240 232 202 201 201 z m 380 129 b 362 138 354 108 374 108 b 387 108 389 124 380 129 z m 374 113 b 367 113 366 122 371 125 b 379 130 384 113 374 113 z m 350 119 b 350 132 335 130 328 130 l 328 109 b 335 109 350 107 350 119 z m 337 114 l 337 114 l 334 114 l 334 125 b 349 125 344 114 337 114 z m 405 13 b 405 22 414 21 415 16 l 421 17 l 421 17 l 421 17 b 418 29 398 28 398 12 b 398 -4 419 -5 422 8 l 415 9 b 414 3 405 2 405 13 z m 359 109 l 359 130 l 353 130 l 353 109 z m 70 392 b 51 387 35 403 40 424 b 47 454 106 479 143 476 b 131 462 113 438 98 412 b 96 417 96 422 96 427 b 72 423 72 402 85 390 b 59 338 46 285 91 274 b 81 295 93 339 112 380 b 179 380 227 456 175 480 b 181 484 184 482 184 481 l 184 481 b 182 498 167 499 155 488 l 157 486 b 107 495 32 473 14 428 b -4 384 43 351 70 392 z m 164 470 b 190 452 158 393 114 398 b 112 398 109 399 108 400 b 112 400 117 399 122 401 b 136 429 152 455 164 470 z m 425 13 b 425 -6 450 -4 450 12 b 450 29 425 29 425 13 z m 431 12 b 431 22 443 22 443 12 b 443 2 431 2 431 12 z m 475 21 b 472 26 465 26 460 21 l 460 25 l 454 25 l 454 0 l 461 0 b 461 6 460 17 463 19 b 472 25 469 7 469 0 l 476 0 b 476 6 475 17 478 19 b 486 25 484 7 484 0 l 490 0 l 490 16 b 490 28 480 27 475 21 z m 213 406 b 191 425 175 398 168 383 b 146 334 162 302 202 346 b 200 323 217 313 248 349 l 248 349 l 248 349 b 242 338 237 323 249 315 b 250 311 253 308 256 307 b 275 299 309 355 327 382 b 328 384 336 395 341 403 b 343 401 345 398 347 396 b 355 384 314 338 344 326 b 353 322 365 332 378 346 b 377 324 392 313 423 347 b 421 317 448 314 479 341 b 517 375 535 447 476 436 b 505 403 462 335 445 344 b 435 350 462 403 476 406 b 464 416 454 413 446 405 b 438 418 412 423 393 392 b 360 339 347 340 365 376 b 382 411 352 408 342 423 b 345 421 349 419 352 421 b 353 428 350 432 344 434 b 330 441 318 421 329 413 b 318 396 280 335 273 335 b 258 335 311 433 315 440 l 307 442 b 371 445 447 444 456 419 b 482 467 405 468 329 461 b 341 478 352 488 358 482 b 357 497 344 499 331 489 b 323 484 313 472 302 459 b 259 454 220 447 206 447 b 205 436 213 435 221 436 b 234 436 260 439 290 441 b 281 428 273 414 266 400 b 248 374 231 350 227 350 b 216 350 245 407 259 410 b 241 426 226 408 217 392 b 205 374 190 350 183 350 b 173 350 198 403 213 406 z m 437 393 b 438 393 438 393 438 393 l 438 393 l 437 393 b 437 393 437 393 437 393 b 434 388 410 350 403 350 b 395 350 423 414 437 393 z m 470 301 b 468 316 456 318 442 308 b 415 288 363 209 366 171 b 366 162 371 159 371 159 l 371 159 b 374 135 399 134 428 159 b 451 180 444 217 417 210 b 421 196 411 153 394 162 b 392 163 391 166 392 170 b 403 227 454 317 470 301 z m 59 8 l 55 25 l 49 25 l 44 8 l 40 25 l 34 25 l 41 0 l 48 0 l 52 16 l 56 0 l 62 0 l 70 25 l 64 25 z m 201 5 b 191 -1 194 21 194 25 l 187 25 l 187 9 b 187 -4 200 -2 203 4 l 203 0 l 203 0 l 203 0 l 209 0 l 209 25 l 203 25 b 203 18 204 8 201 5 z m 380 0 l 380 34 l 374 34 l 374 0 z m 238 21 l 238 25 l 232 25 l 232 0 l 238 0 b 238 6 236 24 245 18 l 247 24 b 243 26 240 25 238 21 z m 249 18 l 255 17 l 255 17 l 255 17 b 257 21 264 22 264 16 b 263 15 260 15 257 14 b 239 11 253 -8 264 3 l 265 0 l 271 0 l 270 16 b 270 30 252 27 249 18 z m 264 12 b 264 1 257 4 256 5 b 251 10 262 11 264 12 b 264 12 264 12 264 12 l 264 12 b 264 12 264 12 264 12 z m 282 13 b 282 22 291 21 291 16 l 298 17 l 298 17 l 298 17 b 294 29 275 28 275 12 b 275 -4 295 -5 298 8 l 292 9 b 291 3 282 2 282 13 z m 343 13 b 343 -6 369 -4 369 12 b 369 29 343 29 343 13 z m 350 12 b 350 22 362 22 362 12 b 362 2 350 2 350 12 z m 223 19 l 227 19 l 227 25 l 227 25 l 223 25 l 223 33 l 216 29 l 216 25 l 213 25 l 213 19 l 216 19 b 216 11 213 -6 228 0 l 227 5 b 221 3 223 6 223 19 z m 301 12 b 301 -4 320 -4 323 7 l 317 8 b 315 2 308 4 308 10 l 324 10 b 324 31 301 29 301 12 z m 308 14 b 308 22 317 22 317 14 z m 96 8 l 92 25 l 85 25 l 81 8 l 77 25 l 70 25 l 78 0 l 84 0 l 88 16 l 93 0 l 99 0 l 107 25 l 100 25 z m 152 0 l 152 7 l 145 7 l 145 0 z m 132 8 l 128 25 l 122 25 l 118 8 l 113 25 l 107 25 l 115 0 l 121 0 l 125 16 l 129 0 l 136 0 l 144 25 l 137 25 z m 322 244 b 341 244 340 219 332 198 b 318 158 280 152 305 201 b 313 216 324 231 331 233 b 313 249 296 230 286 208 b 269 168 276 148 292 146 b 321 143 357 179 364 213 b 370 244 347 263 322 244 z m 336 19 l 340 19 l 340 24 l 340 25 l 336 25 l 336 33 l 329 29 l 329 25 l 326 25 l 326 19 l 329 19 b 329 11 326 -6 341 0 l 340 5 b 334 3 336 6 336 19 z m 164 21 l 164 25 l 158 25 l 158 25 l 158 -9 l 165 -9 l 165 3 b 169 -2 175 -2 179 3 b 190 15 173 34 164 21 z m 165 13 l 165 13 b 165 13 165 13 165 13 b 165 22 175 23 175 12 b 175 1 165 2 165 13 z m 393 0 l 393 6 l 387 6 l 387 0 z"},"r":{"x_min":0,"x_max":245,"ha":245,"o":"m 114 205 b 104 160 91 88 103 49 b 115 4 177 -18 223 20 b 272 60 297 149 308 203 b 311 215 303 225 291 225 b 278 225 266 215 264 203 b 256 165 234 80 198 51 b 194 48 188 45 183 45 b 141 52 250 247 256 286 b 261 316 255 336 228 344 b 223 354 214 361 201 362 b 193 363 186 361 179 357 b 173 361 166 363 158 362 b 136 360 121 338 123 316 b 125 307 129 300 134 294 b 123 278 113 261 101 250 b 99 249 96 246 92 244 b 175 394 11 427 1 292 b -2 253 5 193 47 183 b 70 177 93 189 114 205 z m 143 308 b 141 311 140 315 139 319 b 136 339 159 355 174 341 b 175 341 176 339 177 338 b 177 338 177 337 177 337 l 177 337 l 177 337 l 177 337 l 177 337 l 177 336 l 178 336 l 178 335 l 178 335 l 178 335 l 178 335 l 178 334 l 178 334 l 178 334 l 179 334 b 180 335 180 336 182 339 l 182 339 l 182 339 l 182 339 l 182 339 l 182 339 l 183 339 l 183 340 l 183 340 l 183 340 l 183 340 b 184 341 185 342 186 343 b 190 345 194 347 199 347 b 201 346 203 346 205 345 l 206 345 l 206 345 l 206 345 l 206 345 l 207 344 l 207 344 l 207 344 l 207 344 l 208 344 l 208 344 l 208 344 b 208 343 209 343 209 343 l 210 342 l 210 342 l 210 342 b 211 341 211 341 211 341 l 212 340 l 212 340 l 213 339 l 213 339 l 213 339 l 213 339 l 213 339 l 213 338 l 213 338 l 214 336 b 214 336 215 336 215 335 l 215 335 l 215 334 l 215 334 l 215 334 l 215 333 l 215 333 l 215 332 l 216 332 l 216 331 l 216 331 l 216 329 l 216 329 l 216 325 l 216 325 l 216 323 l 216 323 l 216 322 l 215 321 l 215 320 l 215 320 l 215 320 l 215 320 b 215 319 215 319 215 318 l 214 318 l 214 318 b 207 300 187 296 176 282 b 174 281 173 279 173 278 l 172 279 b 171 282 169 284 168 286 l 165 289 l 164 289 l 164 290 l 164 290 l 164 290 l 163 290 l 163 290 l 163 291 l 162 291 l 162 291 l 162 291 l 162 291 l 161 291 l 161 292 l 161 292 l 161 292 l 160 292 l 160 293 l 160 293 l 159 293 l 159 293 l 159 294 l 159 294 l 158 294 l 158 294 l 158 294 l 158 295 l 157 295 l 157 295 l 157 295 l 157 295 l 157 296 l 156 296 l 156 296 l 156 296 l 155 296 l 155 297 l 154 297 l 153 298 l 153 298 l 152 298 l 152 299 l 152 299 l 151 300 l 150 300 l 150 301 l 150 301 l 150 301 l 150 301 l 149 301 l 149 302 l 149 302 l 148 302 l 148 303 l 148 303 l 147 303 l 147 303 l 146 305 l 146 305 l 145 305 l 145 306 l 145 306 l 145 307 l 144 307 l 144 307 z"},"2":{"x_min":0,"x_max":504,"ha":504,"o":"m 389 65 l 389 73 l 126 73 l 126 65 z m 285 109 l 285 125 l 292 125 l 292 130 l 273 130 l 273 125 l 279 125 l 279 109 z m 256 115 l 254 111 l 263 108 l 263 108 b 273 108 278 119 264 122 b 256 124 262 128 270 124 l 271 129 b 259 136 245 121 262 117 b 272 115 263 110 256 115 z m 294 130 b 294 120 291 108 304 108 l 304 108 b 316 108 314 120 314 130 l 308 130 b 308 122 309 113 304 113 b 298 113 300 122 300 130 z m 161 172 b 160 138 189 137 217 164 b 208 132 212 105 243 98 b 225 137 264 214 296 265 l 287 268 b 321 268 364 263 371 245 b 389 279 358 289 313 289 b 325 304 335 310 336 305 l 336 305 b 334 321 322 323 308 313 b 303 309 295 300 286 288 b 250 286 211 280 181 276 b 194 362 83 306 63 206 b 47 132 111 116 161 172 z m 90 199 b 97 265 180 343 166 274 b 154 272 145 271 139 271 b 138 256 151 259 162 260 b 154 239 133 219 113 240 b 89 201 151 167 178 260 l 173 261 l 270 268 b 270 268 270 268 270 268 l 270 268 l 270 268 b 260 253 249 235 239 217 l 239 217 b 229 202 218 182 201 174 b 190 169 179 171 185 188 b 195 184 211 190 220 201 b 242 227 206 257 179 223 l 179 223 b 162 198 145 163 111 166 b 97 167 87 177 90 199 z m 191 201 b 213 240 222 202 191 201 z m 370 129 b 352 138 344 108 364 108 b 377 108 379 124 370 129 z m 364 113 b 357 113 356 122 361 125 b 369 130 374 113 364 113 z m 340 119 b 340 132 325 130 318 130 l 318 109 b 325 109 340 107 340 119 z m 327 114 l 327 114 l 324 114 l 324 125 b 339 125 334 114 327 114 z m 395 13 b 395 22 404 21 405 16 l 411 17 l 411 17 l 411 17 b 408 29 388 28 388 12 b 388 -4 409 -5 412 8 l 405 9 b 404 3 395 2 395 13 z m 349 109 l 349 130 l 343 130 l 343 109 z m 60 392 b 41 387 25 403 30 424 b 37 454 96 479 133 476 b 121 462 103 438 88 412 b 86 417 86 422 86 427 b 62 423 62 402 75 390 b 49 338 36 285 81 274 b 71 295 84 339 102 380 b 169 380 217 456 165 480 b 171 484 174 482 174 481 l 174 481 b 172 498 157 499 145 488 l 147 486 b 97 495 22 473 4 428 b -14 384 33 351 60 392 z m 154 470 b 180 452 148 393 104 398 b 102 398 99 399 98 400 b 102 400 107 399 112 401 b 126 429 142 455 154 470 z m 415 13 b 415 -6 440 -4 440 12 b 440 29 415 29 415 13 z m 421 12 b 421 22 433 22 433 12 b 433 2 421 2 421 12 z m 465 21 b 462 26 455 26 450 21 l 450 25 l 444 25 l 444 0 l 451 0 b 451 6 450 17 453 19 b 462 25 459 7 459 0 l 466 0 b 466 6 465 17 468 19 b 476 25 474 7 474 0 l 480 0 l 480 16 b 480 28 470 27 465 21 z m 203 406 b 181 425 165 398 158 383 b 136 334 152 302 192 346 b 190 323 207 313 238 349 l 238 349 l 238 349 b 232 338 227 323 239 315 b 240 311 243 308 246 307 b 265 299 299 355 317 382 b 318 384 326 395 331 403 b 333 401 335 398 337 396 b 345 384 304 338 334 326 b 343 322 355 332 368 346 b 367 324 382 313 413 347 b 411 317 438 314 469 341 b 507 375 525 447 466 436 b 495 403 452 335 435 344 b 425 350 452 403 466 406 b 454 416 444 413 436 405 b 428 418 402 423 383 392 b 350 339 337 340 355 376 b 372 411 342 408 332 423 b 335 421 339 419 342 421 b 343 428 340 432 334 434 b 320 441 308 421 319 413 b 308 396 270 335 263 335 b 248 335 301 433 305 440 l 297 442 b 361 445 437 444 446 419 b 472 467 395 468 319 461 b 331 478 342 488 348 482 b 347 497 334 499 321 489 b 313 484 303 472 292 459 b 249 454 210 447 196 447 b 195 436 203 435 211 436 b 224 436 250 439 280 441 b 271 428 263 414 256 400 b 238 374 221 350 217 350 b 206 350 235 407 249 410 b 231 426 216 408 207 392 b 195 374 180 350 173 350 b 163 350 188 403 203 406 z m 427 393 b 428 393 428 393 428 393 l 428 393 l 427 393 b 427 393 427 393 427 393 b 424 388 400 350 393 350 b 385 350 413 414 427 393 z m 460 301 b 458 316 446 318 432 308 b 405 288 353 209 356 171 b 356 162 361 159 361 159 l 361 159 b 364 135 389 134 418 159 b 441 180 434 217 407 210 b 411 196 401 153 384 162 b 382 163 381 166 382 170 b 393 227 444 317 460 301 z m 49 8 l 45 25 l 39 25 l 34 8 l 30 25 l 24 25 l 31 0 l 38 0 l 42 16 l 46 0 l 52 0 l 60 25 l 54 25 z m 191 5 b 181 -1 184 21 184 25 l 177 25 l 177 9 b 177 -4 190 -2 193 4 l 193 0 l 193 0 l 193 0 l 199 0 l 199 25 l 193 25 b 193 18 194 8 191 5 z m 370 0 l 370 34 l 364 34 l 364 0 z m 228 21 l 228 25 l 222 25 l 222 0 l 228 0 b 228 6 226 24 235 18 l 237 24 b 233 26 230 25 228 21 z m 239 18 l 245 17 l 245 17 l 245 17 b 247 21 254 22 254 16 b 253 15 250 15 247 14 b 229 11 243 -8 254 3 l 255 0 l 261 0 l 260 16 b 260 30 242 27 239 18 z m 254 12 b 254 1 247 4 246 5 b 241 10 252 11 254 12 b 254 12 254 12 254 12 l 254 12 b 254 12 254 12 254 12 z m 272 13 b 272 22 281 21 281 16 l 288 17 l 288 17 l 288 17 b 284 29 265 28 265 12 b 265 -4 285 -5 288 8 l 282 9 b 281 3 272 2 272 13 z m 333 13 b 333 -6 359 -4 359 12 b 359 29 333 29 333 13 z m 340 12 b 340 22 352 22 352 12 b 352 2 340 2 340 12 z m 213 19 l 217 19 l 217 25 l 217 25 l 213 25 l 213 33 l 206 29 l 206 25 l 203 25 l 203 19 l 206 19 b 206 11 203 -6 218 0 l 217 5 b 211 3 213 6 213 19 z m 291 12 b 291 -4 310 -4 313 7 l 307 8 b 305 2 298 4 298 10 l 314 10 b 314 31 291 29 291 12 z m 298 14 b 298 22 307 22 307 14 z m 86 8 l 82 25 l 75 25 l 71 8 l 67 25 l 60 25 l 68 0 l 74 0 l 78 16 l 83 0 l 89 0 l 97 25 l 90 25 z m 142 0 l 142 7 l 135 7 l 135 0 z m 122 8 l 118 25 l 112 25 l 108 8 l 103 25 l 97 25 l 105 0 l 111 0 l 115 16 l 119 0 l 126 0 l 134 25 l 127 25 z m 312 244 b 331 244 330 219 322 198 b 308 158 270 152 295 201 b 303 216 314 231 321 233 b 303 249 286 230 276 208 b 259 168 266 148 282 146 b 311 143 347 179 354 213 b 360 244 337 263 312 244 z m 326 19 l 330 19 l 330 24 l 330 25 l 326 25 l 326 33 l 319 29 l 319 25 l 316 25 l 316 19 l 319 19 b 319 11 316 -6 331 0 l 330 5 b 324 3 326 6 326 19 z m 154 21 l 154 25 l 148 25 l 148 25 l 148 -9 l 155 -9 l 155 3 b 159 -2 165 -2 169 3 b 180 15 163 34 154 21 z m 155 13 l 155 13 b 155 13 155 13 155 13 b 155 22 165 23 165 12 b 165 1 155 2 155 13 z m 383 0 l 383 6 l 377 6 l 377 0 z"},"{":{"x_min":0,"x_max":294,"ha":294,"o":"m 433 699 b 364 753 241 664 207 564 b 196 529 189 494 180 459 b 173 433 163 403 144 385 b 133 373 110 359 97 348 b 127 315 138 315 128 266 b 122 237 113 208 105 180 b 93 136 82 83 101 40 b 121 -5 171 -42 246 -19 b 226 -16 147 1 182 130 b 188 156 198 180 206 205 b 212 224 220 242 226 262 b 233 285 221 315 212 339 b 246 371 267 426 276 470 b 293 558 326 678 433 699 z"},"9":{"x_min":0,"x_max":525,"ha":525,"o":"m 409 65 l 409 73 l 146 73 l 146 65 z m 305 109 l 305 125 l 312 125 l 312 130 l 293 130 l 293 125 l 299 125 l 299 109 z m 276 115 l 274 111 l 283 108 l 283 108 b 293 108 298 119 284 122 b 276 124 282 128 290 124 l 291 129 b 279 136 265 121 282 117 b 292 115 283 110 276 115 z m 314 130 b 314 120 311 108 324 108 l 324 108 b 336 108 334 120 334 130 l 328 130 b 328 122 329 113 324 113 b 318 113 320 122 320 130 z m 181 172 b 180 138 209 137 237 164 b 228 132 232 105 263 98 b 245 137 284 214 316 265 l 307 268 b 341 268 384 263 391 245 b 409 279 378 289 333 289 b 345 304 355 310 356 305 l 356 305 b 354 321 342 323 328 313 b 323 309 315 300 306 288 b 270 286 231 280 201 276 b 214 362 103 306 83 206 b 67 132 131 116 181 172 z m 110 199 b 117 265 200 343 186 274 b 174 272 165 271 159 271 b 158 256 171 259 182 260 b 174 239 153 219 133 240 b 109 201 171 167 198 260 l 193 261 l 290 268 b 290 268 290 268 290 268 l 290 268 l 290 268 b 280 253 269 235 259 217 l 259 217 b 249 202 238 182 221 174 b 210 169 199 171 205 188 b 215 184 231 190 240 201 b 262 227 226 257 199 223 l 199 223 b 182 198 165 163 131 166 b 117 167 107 177 110 199 z m 212 201 b 233 240 242 202 212 201 z m 390 129 b 372 138 364 108 384 108 b 397 108 399 124 390 129 z m 384 113 b 377 113 376 122 381 125 b 389 130 394 113 384 113 z m 360 119 b 360 132 345 130 338 130 l 338 109 b 345 109 360 107 360 119 z m 347 114 l 347 114 l 344 114 l 344 125 b 359 125 354 114 347 114 z m 415 13 b 415 22 424 21 425 16 l 431 17 l 431 17 l 431 17 b 428 29 408 28 408 12 b 408 -4 429 -5 432 8 l 425 9 b 424 3 415 2 415 13 z m 369 109 l 369 130 l 363 130 l 363 109 z m 80 392 b 61 387 45 403 50 424 b 57 454 116 479 153 476 b 141 462 123 438 108 412 b 106 417 106 422 106 427 b 82 423 82 402 95 390 b 69 338 56 285 101 274 b 91 295 104 339 122 380 b 189 380 237 456 185 480 b 191 484 194 482 194 481 l 194 481 b 192 498 177 499 165 488 l 167 486 b 117 495 42 473 24 428 b 6 384 53 351 80 392 z m 174 470 b 200 452 168 393 124 398 b 122 398 119 399 118 400 b 122 400 127 399 132 401 b 146 429 162 455 174 470 z m 435 13 b 435 -6 460 -4 460 12 b 460 29 435 29 435 13 z m 441 12 b 441 22 453 22 453 12 b 453 2 441 2 441 12 z m 485 21 b 482 26 475 26 470 21 l 470 25 l 464 25 l 464 0 l 471 0 b 471 6 470 17 473 19 b 482 25 479 7 479 0 l 486 0 b 486 6 485 17 488 19 b 496 25 494 7 494 0 l 500 0 l 500 16 b 500 28 490 27 485 21 z m 223 406 b 201 425 185 398 178 383 b 156 334 172 302 212 346 b 210 323 227 313 258 349 l 258 349 l 258 349 b 252 338 247 323 259 315 b 260 311 263 308 266 307 b 285 299 319 355 337 382 b 338 384 346 395 351 403 b 353 401 355 398 357 396 b 365 384 324 338 354 326 b 363 322 375 332 388 346 b 387 324 402 313 433 347 b 431 317 458 314 489 341 b 527 375 545 447 486 436 b 515 403 472 335 455 344 b 445 350 472 403 486 406 b 474 416 464 413 456 405 b 448 418 422 423 403 392 b 370 339 357 340 375 376 b 392 411 362 408 352 423 b 355 421 359 419 362 421 b 363 428 360 432 354 434 b 340 441 328 421 339 413 b 328 396 290 335 283 335 b 268 335 321 433 325 440 l 317 442 b 381 445 457 444 466 419 b 492 467 415 468 339 461 b 351 478 362 488 368 482 b 367 497 354 499 341 489 b 333 484 323 472 312 459 b 269 454 230 447 216 447 b 215 436 223 435 231 436 b 244 436 270 439 300 441 b 291 428 283 414 276 400 b 258 374 241 350 237 350 b 226 350 255 407 269 410 b 251 426 236 408 227 392 b 215 374 200 350 193 350 b 183 350 208 403 223 406 z m 447 393 b 448 393 448 393 448 393 l 448 393 l 447 393 b 447 393 447 393 447 393 b 444 388 420 350 413 350 b 405 350 433 414 447 393 z m 480 301 b 478 316 466 318 452 308 b 425 288 373 209 376 171 b 376 162 381 159 381 159 l 381 159 b 384 135 409 134 438 159 b 461 180 454 217 427 210 b 431 196 421 153 404 162 b 402 163 401 166 402 170 b 413 227 464 317 480 301 z m 69 8 l 65 25 l 59 25 l 54 8 l 50 25 l 44 25 l 51 0 l 58 0 l 62 16 l 66 0 l 72 0 l 80 25 l 74 25 z m 211 5 b 201 -1 204 21 204 25 l 197 25 l 197 9 b 197 -4 210 -2 213 4 l 213 0 l 213 0 l 214 0 l 219 0 l 219 25 l 213 25 b 213 18 214 8 211 5 z m 390 0 l 390 34 l 384 34 l 384 0 z m 248 21 l 248 25 l 242 25 l 242 0 l 248 0 b 248 6 246 24 255 18 l 257 24 b 253 26 250 25 248 21 z m 259 18 l 265 17 l 265 17 l 265 17 b 267 21 274 22 274 16 b 273 15 271 15 267 14 b 249 11 263 -8 274 3 l 275 0 l 281 0 l 280 16 b 280 30 262 27 259 18 z m 274 12 b 274 1 267 4 266 5 b 261 10 272 11 274 12 b 274 12 274 12 274 12 l 274 12 b 274 12 274 12 274 12 z m 292 13 b 292 22 301 21 301 16 l 308 17 l 308 17 l 308 17 b 304 29 285 28 285 12 b 285 -4 305 -5 308 8 l 302 9 b 301 3 292 2 292 13 z m 353 13 b 353 -6 379 -4 379 12 b 379 29 353 29 353 13 z m 360 12 b 360 22 372 22 372 12 b 372 2 360 2 360 12 z m 233 19 l 237 19 l 237 25 l 237 25 l 233 25 l 233 33 l 226 29 l 226 25 l 223 25 l 223 19 l 226 19 b 226 11 223 -6 238 0 l 237 5 b 231 3 233 6 233 19 z m 311 12 b 311 -4 330 -4 333 7 l 327 8 b 325 2 318 4 318 10 l 334 10 b 334 31 311 29 311 12 z m 318 14 b 318 22 327 22 327 14 z m 106 8 l 102 25 l 95 25 l 91 8 l 87 25 l 80 25 l 88 0 l 94 0 l 98 16 l 103 0 l 109 0 l 117 25 l 110 25 z m 162 0 l 162 7 l 155 7 l 155 0 z m 142 8 l 138 25 l 132 25 l 128 8 l 123 25 l 117 25 l 125 0 l 131 0 l 135 16 l 139 0 l 146 0 l 154 25 l 147 25 z m 332 244 b 351 244 350 219 342 198 b 328 158 290 152 315 201 b 323 216 334 231 341 233 b 323 249 306 230 296 208 b 279 168 286 148 302 146 b 331 143 367 179 374 213 b 380 244 357 263 332 244 z m 346 19 l 350 19 l 350 24 l 350 25 l 346 25 l 346 33 l 339 29 l 339 25 l 336 25 l 336 19 l 339 19 b 339 11 336 -6 351 0 l 350 5 b 344 3 346 6 346 19 z m 174 21 l 174 25 l 168 25 l 168 25 l 168 -9 l 175 -9 l 175 3 b 179 -2 185 -2 189 3 b 200 15 183 34 174 21 z m 175 13 l 175 13 b 175 13 175 13 175 13 b 175 22 185 23 185 12 b 185 1 175 2 175 13 z m 403 0 l 403 6 l 397 6 l 397 0 z"}," ":{"x_min":0,"x_max":250,"ha":250,"o":""},"I":{"x_min":0,"x_max":407,"ha":407,"o":"m 344 680 b 343 680 343 680 342 680 b 330 681 319 672 318 660 b 314 624 280 549 238 492 b 209 453 178 422 156 425 b 143 426 132 416 131 404 b 130 391 139 380 152 379 b 193 376 237 414 275 466 b 295 494 314 526 329 556 b 328 516 325 471 318 426 l 317 426 b 288 423 268 395 272 366 b 275 349 285 337 298 327 b 263 196 198 78 92 45 b 71 42 50 42 27 46 b 15 48 3 41 0 30 b -2 19 6 8 18 6 b 46 1 73 0 99 4 b 234 23 345 184 409 352 b 411 355 412 358 413 361 b 415 365 416 369 417 373 b 456 486 475 600 464 675 b 461 693 382 694 344 680 z m 326 326 b 312 338 292 348 289 369 b 285 398 317 422 339 402 b 341 401 342 398 343 397 b 344 395 345 391 346 390 b 348 393 347 394 351 398 b 352 400 355 402 357 404 b 362 407 369 410 376 409 b 395 408 405 387 397 368 b 387 342 358 336 342 317 b 340 314 338 312 337 310 l 337 312 b 335 315 333 318 331 321 z"},"H":{"x_min":0,"x_max":675,"ha":675,"o":"m 692 680 b 603 681 543 550 517 402 b 488 398 456 395 423 393 b 458 499 474 604 464 675 b 461 699 318 694 323 659 b 326 640 328 619 328 596 b 300 590 280 560 285 531 b 287 510 300 497 315 485 b 318 482 321 480 324 478 b 321 446 317 413 310 381 b 269 374 228 364 193 345 b 183 340 180 329 185 319 b 190 309 202 305 211 310 b 238 324 268 333 301 339 b 267 204 201 79 92 45 b 71 41 50 42 27 46 b 15 48 3 41 0 30 b -2 19 6 8 18 6 b 46 1 73 0 99 4 b 234 23 345 183 409 352 l 424 353 b 454 355 483 357 511 361 b 483 149 522 -76 641 7 l 629 25 b 612 64 612 242 631 396 b 659 413 681 436 694 469 b 698 480 693 491 683 495 b 673 499 662 494 658 484 b 653 473 647 464 640 455 b 657 554 682 634 717 644 l 744 653 b 733 676 713 680 692 680 z m 344 483 b 328 498 305 509 302 533 b 297 567 334 594 360 571 b 361 570 363 567 364 565 b 365 564 366 559 367 558 b 369 561 369 562 373 566 b 375 569 378 571 380 573 b 386 577 393 580 402 580 b 424 578 436 554 427 532 b 415 502 381 495 362 473 b 360 470 359 467 357 465 l 356 467 b 354 471 352 475 349 478 z"},"4":{"x_min":0,"x_max":524,"ha":524,"o":"m 409 65 l 409 73 l 146 73 l 146 65 z m 305 109 l 305 125 l 312 125 l 312 130 l 293 130 l 293 125 l 299 125 l 299 109 z m 276 115 l 274 111 l 283 108 l 283 108 b 293 108 298 119 284 122 b 276 124 282 128 290 124 l 291 129 b 279 136 265 121 282 117 b 292 115 283 110 276 115 z m 314 130 b 314 120 311 108 324 108 l 324 108 b 336 108 334 120 334 130 l 328 130 b 328 122 329 113 324 113 b 318 113 320 122 320 130 z m 181 172 b 180 138 209 137 237 164 b 228 132 232 105 263 98 b 245 137 284 214 316 265 l 307 268 b 341 268 384 263 391 245 b 409 279 378 289 333 289 b 345 304 355 310 356 305 l 356 305 b 354 321 342 323 328 313 b 323 309 315 300 306 288 b 270 286 231 280 201 276 b 214 362 103 306 83 206 b 67 132 131 116 181 172 z m 110 199 b 117 265 200 343 186 274 b 174 272 165 271 159 271 b 158 256 171 259 182 260 b 174 239 153 219 133 240 b 109 201 171 167 198 260 l 193 261 l 290 268 b 290 268 290 268 290 268 l 290 268 l 290 268 b 280 253 269 235 259 217 l 259 217 b 249 202 238 182 221 174 b 210 169 199 171 205 188 b 215 184 231 190 240 201 b 262 227 226 257 199 223 l 199 223 b 182 198 165 163 131 166 b 117 167 107 177 110 199 z m 211 201 b 233 240 242 202 211 201 z m 390 129 b 372 138 364 108 384 108 b 397 108 399 124 390 129 z m 384 113 b 377 113 376 122 381 125 b 389 130 394 113 384 113 z m 360 119 b 360 132 345 130 338 130 l 338 109 b 345 109 360 107 360 119 z m 347 114 l 347 114 l 344 114 l 344 125 b 359 125 354 114 347 114 z m 415 13 b 415 22 424 21 425 16 l 431 17 l 431 17 l 431 17 b 428 29 408 28 408 12 b 408 -4 429 -5 432 8 l 425 9 b 424 3 415 2 415 13 z m 369 109 l 369 130 l 363 130 l 363 109 z m 80 392 b 61 387 45 403 50 424 b 57 454 116 479 153 476 b 141 462 123 438 108 412 b 106 417 106 422 106 427 b 82 423 82 402 95 390 b 69 338 56 285 101 274 b 91 295 104 339 122 380 b 189 380 237 456 185 480 b 191 484 194 482 194 481 l 194 481 b 192 498 177 499 165 488 l 167 486 b 117 495 42 473 24 428 b 6 384 53 351 80 392 z m 174 470 b 200 452 168 393 124 398 b 122 398 119 399 118 400 b 122 400 127 399 132 401 b 146 429 162 455 174 470 z m 435 13 b 435 -6 460 -4 460 12 b 460 29 435 29 435 13 z m 441 12 b 441 22 453 22 453 12 b 453 2 441 2 441 12 z m 485 21 b 482 26 475 26 470 21 l 470 25 l 464 25 l 464 0 l 471 0 b 471 6 470 17 473 19 b 482 25 479 7 479 0 l 486 0 b 486 6 485 17 488 19 b 496 25 494 7 494 0 l 500 0 l 500 16 b 500 28 490 27 485 21 z m 223 406 b 201 425 185 398 178 383 b 156 334 172 302 212 346 b 210 323 227 313 258 349 l 258 349 l 258 349 b 252 338 247 323 259 315 b 260 311 263 308 266 307 b 285 299 319 355 337 382 b 338 384 346 395 351 403 b 353 401 355 398 357 396 b 365 384 324 338 354 326 b 363 322 375 332 388 346 b 387 324 402 313 433 347 b 431 317 458 314 489 341 b 527 375 545 447 486 436 b 515 403 472 335 455 344 b 445 350 472 403 486 406 b 474 416 464 413 456 405 b 448 418 422 423 403 392 b 370 339 357 340 375 376 b 392 411 362 408 352 423 b 355 421 359 419 362 421 b 363 428 360 432 354 434 b 340 441 328 421 339 413 b 328 396 290 335 283 335 b 268 335 321 433 325 440 l 317 442 b 381 445 457 444 466 419 b 492 467 415 468 339 461 b 351 478 362 488 368 482 b 367 497 354 499 341 489 b 333 484 323 472 312 459 b 269 454 230 447 216 447 b 215 436 223 435 231 436 b 244 436 270 439 300 441 b 291 428 283 414 276 400 b 258 374 241 350 237 350 b 226 350 255 407 269 410 b 251 426 236 408 227 392 b 215 374 200 350 193 350 b 183 350 208 403 223 406 z m 447 393 b 448 393 448 393 448 393 l 448 393 l 447 393 b 447 393 447 393 447 393 b 444 388 420 350 413 350 b 405 350 433 414 447 393 z m 480 301 b 478 316 466 318 452 308 b 425 288 373 209 376 171 b 376 162 381 159 381 159 l 381 159 b 384 135 409 134 438 159 b 461 180 454 217 427 210 b 431 196 421 153 404 162 b 402 163 401 166 402 170 b 413 227 464 317 480 301 z m 69 8 l 65 25 l 59 25 l 54 8 l 50 25 l 44 25 l 51 0 l 58 0 l 62 16 l 66 0 l 72 0 l 80 25 l 74 25 z m 211 5 b 201 -1 204 21 204 25 l 197 25 l 197 9 b 197 -4 210 -2 213 4 l 213 0 l 213 0 l 213 0 l 219 0 l 219 25 l 213 25 b 213 18 214 8 211 5 z m 390 0 l 390 34 l 384 34 l 384 0 z m 248 21 l 248 25 l 242 25 l 242 0 l 248 0 b 248 6 246 24 255 18 l 257 24 b 253 26 250 25 248 21 z m 259 18 l 265 17 l 265 17 l 265 17 b 267 21 274 22 274 16 b 273 15 270 15 267 14 b 249 11 263 -8 274 3 l 275 0 l 281 0 l 280 16 b 280 30 262 27 259 18 z m 274 12 b 274 1 267 4 266 5 b 261 10 272 11 274 12 b 274 12 274 12 274 12 l 274 12 b 274 12 274 12 274 12 z m 292 13 b 292 22 301 21 301 16 l 308 17 l 308 17 l 308 17 b 304 29 285 28 285 12 b 285 -4 305 -5 308 8 l 302 9 b 301 3 292 2 292 13 z m 353 13 b 353 -6 379 -4 379 12 b 379 29 353 29 353 13 z m 360 12 b 360 22 372 22 372 12 b 372 2 360 2 360 12 z m 233 19 l 237 19 l 237 25 l 237 25 l 233 25 l 233 33 l 226 29 l 226 25 l 223 25 l 223 19 l 226 19 b 226 11 223 -6 238 0 l 237 5 b 231 3 233 6 233 19 z m 311 12 b 311 -4 330 -4 333 7 l 327 8 b 325 2 318 4 318 10 l 334 10 b 334 31 311 29 311 12 z m 318 14 b 318 22 327 22 327 14 z m 106 8 l 102 25 l 95 25 l 91 8 l 87 25 l 80 25 l 88 0 l 94 0 l 98 16 l 103 0 l 109 0 l 117 25 l 110 25 z m 162 0 l 162 7 l 155 7 l 155 0 z m 142 8 l 138 25 l 132 25 l 128 8 l 123 25 l 117 25 l 125 0 l 131 0 l 135 16 l 139 0 l 146 0 l 154 25 l 147 25 z m 332 244 b 351 244 350 219 342 198 b 328 158 290 152 315 201 b 323 216 334 231 341 233 b 323 249 306 230 296 208 b 279 168 286 148 302 146 b 331 143 367 179 374 213 b 380 244 357 263 332 244 z m 346 19 l 350 19 l 350 24 l 350 25 l 346 25 l 346 33 l 339 29 l 339 25 l 336 25 l 336 19 l 339 19 b 339 11 336 -6 351 0 l 350 5 b 344 3 346 6 346 19 z m 174 21 l 174 25 l 168 25 l 168 25 l 168 -9 l 175 -9 l 175 3 b 179 -2 185 -2 189 3 b 200 15 183 34 174 21 z m 175 13 l 175 13 b 175 13 175 13 175 13 b 175 22 185 23 185 12 b 185 1 175 2 175 13 z m 403 0 l 403 6 l 397 6 l 397 0 z"},"~":{"x_min":0,"x_max":304,"ha":304,"o":"m 133 741 b 119 735 110 728 105 719 b 100 712 99 704 101 696 b 102 689 106 683 111 678 b 119 670 131 665 146 663 b 169 660 197 665 223 670 b 235 672 246 674 255 674 b 250 668 249 659 254 652 b 260 642 272 640 281 646 b 292 653 299 661 302 669 b 304 677 304 684 301 691 b 299 697 295 702 289 706 b 281 712 269 715 257 714 b 245 714 231 711 216 709 b 193 705 168 700 151 702 b 149 702 147 703 145 703 b 146 703 147 704 148 704 b 158 708 163 720 159 730 b 155 740 143 745 133 741 z"},"D":{"x_min":0,"x_max":663,"ha":663,"o":"m 323 659 b 349 480 293 108 93 45 b 71 42 50 42 27 46 b 15 48 3 41 0 30 b -2 19 6 8 18 6 b 46 1 73 0 99 4 b 251 26 373 226 431 415 b 442 446 455 477 470 506 b 475 518 482 530 488 541 b 500 561 512 581 525 600 b 537 619 551 639 568 656 b 573 661 589 676 598 674 b 601 673 603 671 604 669 b 655 566 412 -113 329 73 b 321 88 319 120 298 119 b 286 118 276 104 281 81 b 294 25 335 5 349 3 b 570 -28 696 325 692 540 l 693 542 b 695 544 696 546 697 547 b 702 553 709 557 715 561 b 722 566 728 570 734 576 b 741 582 746 589 749 597 b 760 624 746 656 715 658 b 706 658 696 656 688 651 b 683 654 677 657 670 658 b 661 677 648 691 632 698 b 581 722 532 678 502 639 b 489 621 476 600 464 579 b 468 615 468 647 464 675 b 461 699 318 694 323 659 z m 670 567 b 658 578 640 587 637 605 b 634 631 662 652 682 634 b 683 633 684 631 685 630 b 686 628 687 625 687 624 b 689 626 689 627 692 630 b 693 632 695 634 697 636 b 702 639 708 641 714 641 b 731 639 740 621 733 604 b 724 581 698 576 684 559 b 682 556 681 554 680 553 l 679 554 b 678 558 676 560 674 563 z"},"^":{"x_min":0,"x_max":367,"ha":367,"o":"m 327 610 b 345 593 359 590 365 612 b 370 629 361 642 351 655 l 266 767 l 127 659 b 68 613 122 616 138 625 l 259 696 z"},"0":{"x_min":0,"x_max":545,"ha":545,"o":"m 409 65 l 409 73 l 146 73 l 146 65 z m 305 109 l 305 125 l 312 125 l 312 130 l 293 130 l 293 125 l 299 125 l 299 109 z m 276 115 l 274 111 l 283 108 l 283 108 b 293 108 298 119 284 122 b 276 124 282 128 290 124 l 291 129 b 279 136 265 121 282 117 b 292 115 283 110 276 115 z m 314 130 b 314 120 311 108 324 108 l 324 108 b 336 108 334 120 334 130 l 328 130 b 328 122 329 113 324 113 b 318 113 320 122 320 130 z m 181 172 b 180 138 209 137 237 164 b 228 132 232 105 263 98 b 245 137 284 214 316 265 l 307 268 b 341 268 384 263 391 245 b 409 279 378 289 333 289 b 345 304 355 310 356 305 l 356 305 b 354 321 342 323 328 313 b 323 309 315 300 306 288 b 270 286 231 280 201 276 b 214 362 103 306 83 206 b 67 132 131 116 181 172 z m 110 199 b 117 265 200 343 186 274 b 174 272 165 271 159 271 b 158 256 171 259 182 260 b 174 239 153 219 133 240 b 109 201 171 167 198 260 l 193 261 l 290 268 b 290 268 290 268 290 268 l 290 268 l 290 268 b 280 253 269 235 259 217 l 259 217 b 249 202 238 182 221 174 b 210 169 199 171 205 188 b 215 184 231 190 240 201 b 262 227 226 257 199 223 l 199 223 b 182 198 165 163 131 166 b 117 167 107 177 110 199 z m 211 201 b 233 240 242 202 211 201 z m 390 129 b 372 138 364 108 384 108 b 397 108 399 124 390 129 z m 384 113 b 377 113 376 122 381 125 b 389 130 394 113 384 113 z m 360 119 b 360 132 345 130 338 130 l 338 109 b 345 109 360 107 360 119 z m 347 114 l 347 114 l 344 114 l 344 125 b 359 125 354 114 347 114 z m 415 13 b 415 22 424 21 425 16 l 431 17 l 431 17 l 431 17 b 428 29 408 28 408 12 b 408 -4 429 -5 432 8 l 425 9 b 424 3 415 2 415 13 z m 369 109 l 369 130 l 363 130 l 363 109 z m 80 392 b 61 387 45 403 50 423 b 57 454 116 479 153 476 b 141 462 123 438 108 412 b 106 417 106 422 106 427 b 82 423 82 402 95 390 b 69 338 56 285 101 274 b 91 295 103 339 122 380 b 189 380 237 456 185 480 b 191 484 194 482 194 481 l 194 481 b 192 498 177 499 165 488 l 167 486 b 117 495 42 473 24 428 b 6 384 53 351 80 392 z m 174 470 b 200 452 168 393 124 398 b 122 398 119 399 118 400 b 122 400 127 399 132 401 b 146 429 162 455 174 470 z m 435 13 b 435 -6 460 -4 460 12 b 460 29 435 29 435 13 z m 441 12 b 441 22 453 22 453 12 b 453 2 441 2 441 12 z m 485 21 b 482 26 475 26 470 21 l 470 25 l 464 25 l 464 0 l 471 0 b 471 6 470 17 473 19 b 482 25 479 7 479 0 l 486 0 b 486 6 485 17 488 19 b 496 25 494 7 494 0 l 500 0 l 500 16 b 500 28 490 27 485 21 z m 223 406 b 201 425 185 398 178 383 b 156 334 172 302 212 346 b 210 323 227 313 258 349 l 258 349 l 258 349 b 252 338 247 323 259 315 b 260 311 263 308 266 307 b 285 299 319 355 337 382 b 338 384 346 395 351 403 b 353 401 355 398 357 396 b 365 384 324 338 354 326 b 363 322 375 332 388 346 b 387 324 402 313 433 347 b 431 317 458 314 489 341 b 527 375 545 447 486 436 b 515 403 472 335 455 344 b 445 350 472 403 486 406 b 474 416 464 413 456 405 b 448 418 422 423 403 392 b 370 339 357 340 375 376 b 392 411 362 408 352 423 b 355 421 359 419 362 421 b 363 428 360 432 354 434 b 340 441 328 421 339 413 b 328 396 290 335 283 335 b 268 335 321 433 325 440 l 317 442 b 381 445 457 444 466 419 b 492 467 415 468 339 461 b 351 478 362 488 368 482 b 367 497 354 499 341 489 b 333 484 323 472 312 459 b 269 454 230 447 216 447 b 215 436 223 435 231 435 b 244 436 270 439 300 441 b 291 428 283 414 276 400 b 258 374 241 350 237 350 b 226 350 255 407 269 410 b 251 426 236 407 227 392 b 215 374 200 350 193 350 b 183 350 208 403 223 406 z m 447 393 b 448 393 448 393 448 393 l 448 393 l 447 393 b 447 393 447 393 447 393 b 444 388 420 350 413 350 b 405 350 433 414 447 393 z m 480 301 b 478 316 466 318 452 308 b 425 288 373 209 376 171 b 376 162 381 159 381 159 l 381 159 b 384 135 409 134 438 159 b 461 180 454 217 427 210 b 431 196 421 153 404 162 b 402 163 401 166 402 170 b 413 227 464 317 480 301 z m 69 8 l 65 25 l 59 25 l 54 8 l 50 25 l 44 25 l 51 0 l 58 0 l 62 16 l 66 0 l 72 0 l 80 25 l 74 25 z m 211 5 b 201 -1 204 21 204 25 l 197 25 l 197 9 b 197 -4 210 -2 213 4 l 213 0 l 213 0 l 213 0 l 219 0 l 219 25 l 213 25 b 213 18 214 8 211 5 z m 390 0 l 390 34 l 384 34 l 384 0 z m 248 21 l 248 25 l 242 25 l 242 0 l 248 0 b 248 6 246 24 255 18 l 257 24 b 253 26 250 25 248 21 z m 259 18 l 265 17 l 265 17 l 265 17 b 267 21 274 22 274 16 b 273 15 270 15 267 14 b 249 11 263 -8 274 3 l 275 0 l 281 0 l 280 16 b 280 30 262 27 259 18 z m 274 12 b 274 1 267 4 266 5 b 261 10 272 11 274 12 b 274 12 274 12 274 12 l 274 12 b 274 12 274 12 274 12 z m 292 13 b 292 22 301 21 301 16 l 308 17 l 308 17 l 308 17 b 304 29 285 28 285 12 b 285 -4 305 -5 308 8 l 302 9 b 301 3 292 2 292 13 z m 353 13 b 353 -6 379 -4 379 12 b 379 29 353 29 353 13 z m 360 12 b 360 22 372 22 372 12 b 372 2 360 2 360 12 z m 233 19 l 237 19 l 237 25 l 237 25 l 233 25 l 233 33 l 226 29 l 226 25 l 223 25 l 223 19 l 226 19 b 226 11 223 -6 238 0 l 237 5 b 231 3 233 6 233 19 z m 311 12 b 311 -4 330 -4 333 7 l 327 8 b 325 2 318 4 318 10 l 334 10 b 334 31 311 29 311 12 z m 318 14 b 318 22 327 22 327 14 z m 106 8 l 102 25 l 95 25 l 91 8 l 87 25 l 80 25 l 88 0 l 94 0 l 98 16 l 103 0 l 109 0 l 117 25 l 110 25 z m 162 0 l 162 7 l 155 7 l 155 0 z m 142 8 l 138 25 l 132 25 l 128 8 l 123 25 l 117 25 l 125 0 l 131 0 l 135 16 l 139 0 l 146 0 l 154 25 l 147 25 z m 332 244 b 351 244 350 219 342 198 b 328 158 290 152 315 201 b 323 216 334 231 341 233 b 323 249 306 230 296 208 b 279 168 286 148 302 146 b 331 143 367 179 374 213 b 380 244 357 263 332 244 z m 346 19 l 350 19 l 350 24 l 350 25 l 346 25 l 346 33 l 339 29 l 339 25 l 336 25 l 336 19 l 339 19 b 339 11 336 -6 351 0 l 350 5 b 344 3 346 6 346 19 z m 174 21 l 174 25 l 168 25 l 168 25 l 168 -9 l 175 -9 l 175 3 b 179 -2 185 -2 189 3 b 200 15 183 34 174 21 z m 175 13 l 175 13 b 175 13 175 13 175 13 b 175 22 185 23 185 12 b 185 1 175 2 175 13 z m 403 0 l 403 6 l 397 6 l 397 0 z"},"F":{"x_min":0,"x_max":308,"ha":308,"o":"m 162 653 b 115 646 70 645 28 660 b 17 664 6 659 2 649 b -1 638 4 627 14 623 b 52 609 91 606 130 609 b 112 600 102 579 104 559 b 107 542 117 531 130 521 b 131 520 133 518 135 517 b 130 489 125 460 121 431 b 99 427 77 421 57 409 b 47 404 44 392 50 382 b 55 373 67 369 77 375 b 89 382 102 386 115 389 b 98 261 86 126 88 37 b 88 36 88 34 88 33 l 88 33 b 88 32 88 30 89 29 l 89 29 b 89 27 89 27 89 25 l 89 25 b 89 24 89 23 90 22 b 96 0 158 -5 174 9 l 177 10 l 178 14 l 179 18 l 179 24 l 181 34 b 198 144 215 256 231 367 l 235 391 b 303 387 372 388 433 447 b 441 455 441 467 433 475 b 425 483 413 483 405 475 b 358 429 299 427 241 430 l 242 442 l 248 479 l 249 491 l 254 521 l 256 536 l 257 549 l 260 570 l 264 595 l 265 603 b 266 613 267 622 268 632 l 269 635 b 365 657 463 677 557 613 b 566 607 578 609 584 618 b 590 627 588 639 579 645 b 471 720 363 697 258 673 b 232 680 187 677 167 664 b 163 662 162 659 162 655 b 162 654 162 654 162 653 b 162 653 162 653 162 653 z m 154 523 b 142 534 124 543 122 561 b 118 587 147 608 166 591 b 167 590 169 588 169 586 b 170 585 171 581 172 580 b 173 583 173 583 176 587 b 178 589 180 591 182 592 b 186 595 192 597 198 597 b 216 596 224 577 217 560 b 208 537 183 532 168 515 b 166 513 165 510 164 509 l 164 511 b 162 514 160 516 158 519 z"},"k":{"x_min":0,"x_max":279,"ha":279,"o":"m 66 15 b 77 31 73 53 77 70 b 130 343 257 305 153 201 b 92 140 110 5 201 1 b 220 0 239 5 257 19 b 306 60 331 149 342 203 b 345 215 337 225 325 225 b 312 225 300 215 298 203 b 290 165 268 80 232 51 b 196 41 206 104 228 140 b 266 202 339 279 264 341 b 233 367 176 366 118 310 b 127 349 138 389 151 429 b 246 506 306 606 330 675 b 337 696 341 715 342 730 b 344 761 318 783 280 769 b 190 741 128 627 85 496 b 79 500 72 502 64 501 b 42 499 26 477 29 455 b 31 442 39 432 50 424 b 55 420 58 417 61 415 b 26 283 6 149 -8 72 b -13 43 -12 6 24 0 b 36 -1 53 1 63 11 b 64 12 65 14 66 15 z m 179 512 b 182 521 306 808 303 732 b 303 720 300 705 294 688 b 276 637 237 567 177 505 l 180 513 z m 112 445 b 103 436 90 431 81 421 b 80 419 79 418 78 417 l 78 418 b 77 420 75 422 74 424 l 71 427 l 71 428 l 70 428 l 70 428 l 70 428 l 70 428 l 70 428 l 69 428 l 69 429 l 69 429 l 69 429 l 69 429 l 69 429 l 69 429 l 68 429 l 68 429 l 68 430 l 68 430 l 68 430 l 68 430 l 68 430 l 67 430 l 67 430 l 67 430 l 67 431 l 67 431 l 67 431 l 67 431 l 67 431 l 66 431 l 66 431 l 66 431 l 66 431 l 66 431 b 57 439 47 445 45 457 b 42 478 65 494 80 480 l 80 480 l 80 480 l 80 480 l 80 480 l 81 480 l 81 479 l 81 479 l 81 479 l 81 479 l 81 479 l 81 479 l 81 478 l 81 478 l 81 478 l 82 478 l 82 478 l 82 478 l 82 477 l 82 477 l 82 477 l 82 477 l 82 477 b 83 476 84 473 84 472 b 86 474 85 475 88 478 b 89 479 91 481 92 482 b 95 484 100 486 105 485 b 119 484 125 470 120 456 b 119 455 118 453 117 451 b 115 449 113 447 112 445 z"},"u":{"x_min":0,"x_max":310,"ha":310,"o":"m 177 64 b 171 29 192 4 230 1 b 249 -1 270 5 288 20 b 338 60 362 149 373 203 b 376 215 368 225 356 225 b 343 225 331 215 329 203 b 321 165 299 81 263 51 b 259 48 253 45 248 45 b 247 46 247 46 246 46 b 238 51 240 76 241 85 b 244 112 252 143 259 171 b 265 192 274 223 280 245 b 285 262 290 281 293 298 b 298 331 291 351 259 358 b 231 363 209 348 206 318 b 203 291 199 272 191 246 b 187 234 164 152 139 96 b 126 66 109 52 100 55 b 78 53 118 185 138 251 b 152 271 172 276 182 286 b 188 291 192 297 194 304 b 204 326 192 353 166 354 b 159 355 151 353 145 349 b 139 353 131 355 124 354 b 123 354 123 354 122 354 b 99 361 66 356 53 349 b 47 324 43 296 35 272 b 8 180 -50 0 92 1 b 136 1 162 29 177 64 z m 148 331 b 149 333 150 334 152 335 b 155 337 160 339 165 339 b 179 338 185 323 180 310 b 174 294 157 289 146 279 l 145 279 l 145 278 l 145 278 l 145 278 l 145 278 l 144 278 l 144 278 l 144 278 l 144 277 l 144 277 l 144 277 l 144 277 l 144 277 l 143 277 l 143 277 l 143 277 l 143 276 l 143 276 l 143 276 l 143 276 l 143 276 l 143 276 l 142 276 l 142 276 l 142 275 l 142 275 l 142 275 l 141 275 l 141 274 l 141 274 b 140 273 139 271 138 270 l 138 271 b 137 274 135 276 133 278 l 131 281 b 121 289 107 296 105 311 b 102 331 124 347 140 334 b 141 333 142 331 142 330 b 143 329 144 326 144 326 b 145 327 145 328 148 331 l 148 331 z"},"]":{"x_min":0,"x_max":329,"ha":329,"o":"m 64 59 l 40 -31 l 199 -31 l 398 724 l 239 724 l 215 634 l 283 634 l 132 59 z"},"U":{"x_min":0,"x_max":396,"ha":396,"o":"m 242 220 b 211 104 186 -7 332 -7 b 334 -7 337 -7 340 -7 l 356 -5 l 346 7 b 295 68 430 552 425 669 b 425 678 422 687 414 691 b 409 694 404 695 399 695 b 393 695 388 694 383 690 b 376 685 367 662 364 655 b 354 634 346 613 337 591 b 303 509 168 77 122 43 b 113 37 111 54 110 99 b 110 114 110 128 110 143 b 110 151 111 160 111 168 b 121 284 166 495 186 611 b 188 621 191 634 191 645 l 191 646 b 192 658 189 671 179 678 l 179 678 l 179 679 b 176 680 173 682 170 682 b 166 683 113 683 109 683 b 96 671 82 645 69 612 b 64 613 60 613 55 613 b 26 610 6 581 10 553 b 12 535 24 522 37 511 l 38 511 b -12 304 -29 -4 100 -7 b 168 -14 212 155 232 198 b 235 205 239 212 242 220 z m 64 512 b 50 525 30 535 27 555 b 23 584 55 608 77 588 b 78 587 80 585 81 583 b 82 582 83 578 84 577 b 85 579 85 581 88 584 b 90 586 93 589 95 590 b 100 593 107 596 114 595 b 133 594 143 573 135 554 b 125 529 96 522 80 503 b 78 500 76 498 75 497 l 74 498 b 73 502 71 505 68 508 z"},"o":{"x_min":0,"x_max":252,"ha":252,"o":"m 235 157 b 249 192 255 255 240 301 b 244 305 248 311 250 317 b 259 339 247 366 222 367 b 215 368 207 366 201 362 b 194 366 187 368 179 367 b 172 366 166 364 161 360 b -39 368 -42 0 92 0 b 143 0 186 42 218 112 b 223 111 225 112 230 111 b 241 111 252 114 262 119 b 273 124 283 133 290 142 b 303 159 310 178 314 196 b 317 208 309 219 297 219 b 292 219 288 218 285 216 b 277 212 271 205 269 197 b 265 180 258 152 235 157 z m 208 348 b 211 350 216 352 221 351 b 234 351 241 336 236 323 b 234 318 231 314 227 310 l 227 310 l 226 309 b 217 301 205 297 197 287 b 196 285 195 284 194 283 l 193 284 b 192 286 191 288 189 290 l 186 294 b 177 302 162 309 160 324 b 158 344 180 360 195 347 b 196 346 197 344 198 343 b 199 342 199 339 200 338 b 201 340 201 341 203 344 b 204 345 206 346 208 348 l 208 348 z m 197 268 b 200 252 199 226 188 190 b 168 240 168 270 174 283 b 184 274 187 271 192 261 b 193 264 195 266 197 268 z m 166 135 b 161 125 133 85 119 85 b 112 86 109 100 106 110 b 102 133 113 198 123 225 b 131 185 142 159 166 135 z"},"N":{"x_min":0,"x_max":712,"ha":712,"o":"m 460 546 b 468 595 469 639 464 675 b 461 698 318 693 323 659 b 327 633 329 602 329 569 b 300 566 280 538 284 510 b 287 491 298 479 312 468 b 315 465 319 462 322 460 b 302 285 233 88 92 44 b 71 41 50 42 27 46 b 15 48 3 41 0 30 b -2 18 6 8 18 5 b 46 0 73 0 99 4 b 239 24 353 195 415 370 b 482 486 591 657 637 660 b 637 661 638 661 638 661 b 666 640 432 84 570 3 b 603 -20 664 7 662 23 b 661 29 660 34 659 40 b 658 47 657 54 657 61 b 652 240 717 458 711 621 b 711 662 696 697 651 697 b 588 697 518 625 460 546 z m 338 469 b 325 481 304 491 301 512 b 297 541 330 565 352 545 b 353 544 354 542 355 540 b 356 538 357 534 358 533 b 360 536 360 537 363 541 b 365 543 367 545 369 547 b 374 550 381 553 388 552 b 408 551 417 530 410 511 b 399 485 370 479 354 460 b 352 457 351 455 349 453 l 349 455 b 347 459 345 461 343 464 z"},"+":{"x_min":0,"x_max":323,"ha":323,"o":"m 171 188 l 195 298 l 195 298 b 198 307 191 315 182 315 b 174 315 159 309 157 301 l 134 187 l 18 182 l 18 182 b 10 182 3 176 0 168 b -2 159 4 151 14 151 l 125 151 l 92 27 b 90 19 98 15 104 12 b 108 11 112 10 116 10 b 124 10 132 16 134 23 l 162 151 l 282 151 b 292 151 301 168 303 176 b 305 184 299 193 290 193 z"},"G":{"x_min":0,"x_max":438,"ha":438,"o":"m 355 703 b 307 696 261 672 218 637 b 212 648 201 657 185 658 b 176 658 167 656 159 651 b 151 656 142 659 132 658 b 105 655 87 629 90 603 b 93 586 103 575 116 564 b 120 561 124 558 128 554 l 131 551 b 132 550 133 549 133 548 b -16 353 -73 43 138 5 l 138 5 b 145 4 152 3 160 2 b 160 2 161 2 162 2 b 229 -1 292 87 339 176 b 337 164 335 152 333 141 b 326 84 326 34 344 11 b 351 2 365 0 374 8 b 383 15 385 29 377 38 b 368 50 370 89 376 135 b 389 228 420 339 423 343 l 423 343 b 426 347 427 351 427 356 b 427 368 418 378 406 378 b 373 378 335 360 300 331 b 264 302 230 261 203 216 b 197 206 200 193 210 187 b 220 181 233 184 239 194 b 264 235 295 272 327 298 b 339 307 351 316 362 322 b 336 253 266 56 185 57 b 41 59 236 605 369 671 b 378 675 387 677 395 675 b 445 666 418 594 437 583 b 483 556 490 731 355 703 z m 140 567 b 128 578 110 587 107 605 b 104 631 133 652 152 634 b 153 633 155 631 155 630 b 156 628 157 625 158 624 b 159 626 159 627 162 630 b 163 632 166 634 168 636 b 172 639 178 641 184 641 b 202 639 210 621 203 604 b 194 581 168 576 154 559 b 152 556 151 554 150 553 l 149 554 b 148 558 146 560 144 563 z"},"q":{"x_min":0,"x_max":341,"ha":341,"o":"m 273 100 b 274 104 275 108 276 113 l 278 120 b 279 125 280 129 281 134 b 281 134 282 134 282 135 l 282 137 l 282 137 b 284 146 286 152 287 155 b 296 183 305 212 311 240 b 315 258 328 286 315 298 b 307 304 296 298 295 305 b 291 335 266 356 233 359 b 199 361 167 353 138 337 b 137 337 136 337 135 337 b 128 337 120 336 114 332 b 108 336 100 338 93 337 b 70 334 55 313 58 291 b 59 285 61 279 64 275 b -20 175 -46 20 58 1 b 103 -8 150 41 207 144 l 195 107 b 181 68 163 31 154 -9 b 131 -106 90 -309 178 -364 b 238 -402 301 -355 319 -283 b 338 -206 323 -104 315 -58 b 311 -35 306 -13 301 8 b 307 11 313 15 318 19 b 358 51 381 114 395 165 b 399 179 401 192 404 203 b 406 215 399 225 386 225 b 374 225 362 215 359 203 b 357 194 355 183 352 171 b 340 129 321 74 294 51 b 293 51 291 50 290 49 b 285 66 279 83 273 100 z m 76 287 b 75 289 74 291 74 293 b 71 313 93 329 108 317 l 108 317 l 108 317 l 109 316 b 109 315 111 314 111 313 b 112 312 113 309 113 308 b 114 310 114 311 117 313 b 118 315 119 316 121 317 b 124 320 129 322 134 321 b 147 320 154 306 149 292 b 142 275 122 270 110 257 b 109 255 108 254 107 252 l 107 254 b 106 256 104 258 103 260 l 99 263 l 99 264 l 99 264 l 98 264 l 98 264 l 98 265 l 98 265 l 98 265 l 97 266 l 97 266 l 96 266 l 95 267 l 95 267 l 95 267 l 95 267 l 94 268 l 94 268 l 93 268 l 93 269 l 93 269 l 93 269 l 92 269 l 92 270 l 91 270 l 91 270 l 90 271 l 90 271 l 90 271 l 89 271 l 89 272 l 87 273 l 87 273 l 87 273 l 86 274 l 86 274 l 86 274 l 86 274 l 85 275 l 85 275 l 84 276 l 84 276 l 84 276 l 84 276 l 83 276 l 83 277 l 83 277 l 83 277 l 82 277 l 82 278 l 82 278 l 81 278 l 81 278 l 81 279 l 81 279 l 80 280 l 80 281 l 79 281 l 79 282 b 78 282 78 283 77 283 l 77 284 l 77 284 l 77 284 l 77 285 l 76 286 l 76 286 l 76 286 l 76 287 l 76 287 z m 232 293 l 230 286 b 229 283 228 281 227 278 b 221 264 171 158 135 106 b 111 72 84 55 100 104 b 120 164 208 302 234 304 b 235 304 238 305 239 304 b 239 302 238 300 237 298 z m 252 2 b 256 -14 259 -30 263 -46 b 275 -103 284 -167 282 -228 b 279 -311 227 -391 216 -279 b 215 -262 215 -246 215 -235 b 216 -173 227 -106 239 -44 b 242 -28 245 -13 248 3 b 249 2 250 2 252 2 z"},"d":{"x_min":0,"x_max":340,"ha":340,"o":"m 197 139 b 193 110 190 74 197 49 b 209 4 272 -18 317 20 b 367 60 392 149 403 203 b 405 215 398 225 385 225 b 373 225 361 215 358 203 b 350 165 329 80 293 51 b 288 48 283 45 277 45 b 256 49 275 132 287 177 b 292 195 298 212 302 230 b 318 285 337 351 360 419 b 361 419 362 420 363 421 b 463 499 528 604 552 675 b 559 696 563 715 564 730 b 566 781 518 771 505 766 b 384 730 307 525 273 425 b 265 401 258 378 251 354 l 251 354 b 234 360 214 361 191 355 b 185 361 177 366 168 366 b 160 367 153 365 147 361 b 140 365 133 367 125 366 b 103 364 87 342 91 320 b 91 316 92 312 94 309 b -18 218 -44 36 38 6 b 42 3 46 2 51 1 b 95 -7 142 39 197 139 z m 385 491 b 391 506 528 806 526 732 b 525 720 522 705 516 688 b 497 633 453 557 385 491 z m 107 319 b 107 320 107 321 106 323 b 104 343 126 359 141 346 b 142 345 143 343 144 342 b 144 341 144 341 145 340 l 145 340 l 145 340 l 145 339 l 145 339 l 145 339 l 145 339 l 145 338 l 146 338 l 146 338 l 146 338 l 146 338 l 146 338 l 146 338 l 146 339 l 146 339 l 146 339 l 147 339 l 147 339 l 147 339 l 147 340 l 147 340 l 147 340 l 147 340 l 147 341 l 148 341 l 148 341 l 148 341 l 148 341 l 148 341 b 148 342 149 342 149 343 b 150 344 152 346 153 347 b 157 349 162 351 167 351 b 168 350 170 350 171 350 l 171 350 l 172 349 l 173 349 l 173 349 l 174 349 l 174 349 l 174 348 l 174 348 l 175 348 l 175 348 l 175 348 l 175 348 l 176 347 l 176 347 l 176 347 l 176 347 l 177 347 l 177 346 l 177 346 l 178 345 l 179 345 l 179 344 l 180 343 l 180 343 l 180 343 l 180 343 l 180 342 l 180 342 l 181 342 l 181 340 l 182 339 l 182 339 l 182 339 l 182 339 l 182 338 l 182 338 l 182 338 l 182 337 l 183 337 l 183 336 l 183 336 l 183 335 l 183 334 l 183 333 l 183 332 l 183 330 l 183 330 l 183 328 l 183 327 l 183 327 l 183 326 l 183 326 l 182 325 l 182 325 l 182 324 l 182 324 l 182 324 l 182 323 l 182 323 l 182 322 l 181 322 b 174 304 154 300 143 286 b 141 285 141 283 140 282 l 139 283 b 138 286 137 288 135 290 l 132 293 l 132 293 l 131 293 l 131 294 l 130 294 l 130 295 l 130 295 l 129 295 l 129 295 l 129 295 l 129 296 l 128 296 l 128 296 l 127 297 l 127 297 l 126 298 l 126 298 l 126 298 l 125 298 l 125 298 l 124 299 l 124 299 l 124 299 l 123 300 l 123 300 l 123 300 l 122 300 l 122 300 l 122 301 l 122 301 l 121 301 l 121 301 l 121 302 l 121 302 l 120 302 l 120 302 l 120 302 l 120 303 l 119 303 l 118 304 l 118 304 l 118 304 l 117 305 b 117 305 116 306 115 306 l 114 307 l 114 308 l 114 308 l 114 308 b 112 310 111 312 110 313 l 109 314 l 109 314 b 109 314 109 315 109 315 b 108 316 108 317 107 319 z m 225 293 l 223 286 b 222 283 221 281 220 278 b 214 264 164 158 128 106 b 104 72 77 55 93 104 b 113 164 202 302 228 304 b 229 304 231 305 232 304 b 232 302 231 300 231 298 z"},"1":{"x_min":0,"x_max":505,"ha":505,"o":"m 389 65 l 389 73 l 126 73 l 126 65 z m 285 109 l 285 125 l 292 125 l 292 130 l 273 130 l 273 125 l 279 125 l 279 109 z m 256 115 l 254 111 l 263 108 l 263 108 b 273 108 278 119 264 122 b 256 124 262 128 270 124 l 271 129 b 259 136 245 121 262 117 b 272 115 263 110 256 115 z m 294 130 b 294 120 291 108 304 108 l 304 108 b 316 108 314 120 314 130 l 308 130 b 308 122 309 113 304 113 b 298 113 300 122 300 130 z m 161 172 b 160 138 189 137 217 164 b 208 132 212 105 243 98 b 225 137 264 214 296 265 l 287 268 b 321 268 364 263 371 245 b 389 279 358 289 313 289 b 325 304 335 310 336 305 l 336 305 b 334 321 322 323 308 313 b 303 309 295 300 286 288 b 250 286 211 280 181 276 b 194 362 83 306 63 206 b 47 132 111 116 161 172 z m 90 199 b 97 265 180 343 166 274 b 154 272 145 271 139 271 b 138 256 151 259 162 260 b 154 239 133 219 113 240 b 89 201 151 167 178 260 l 173 261 l 270 268 b 270 268 270 268 270 268 l 270 268 l 270 268 b 260 253 249 235 239 217 l 239 217 b 229 202 218 182 201 174 b 190 169 179 171 185 188 b 195 184 211 190 220 201 b 242 227 206 257 179 223 l 179 223 b 162 198 145 163 111 166 b 97 167 87 177 90 199 z m 191 201 b 213 240 222 202 191 201 z m 370 129 b 352 138 344 108 364 108 b 377 108 379 124 370 129 z m 364 113 b 357 113 356 122 361 125 b 369 130 374 113 364 113 z m 340 119 b 340 132 325 130 318 130 l 318 109 b 325 109 340 107 340 119 z m 327 114 l 327 114 l 324 114 l 324 125 b 339 125 334 114 327 114 z m 395 13 b 395 22 404 21 405 16 l 411 17 l 411 17 l 411 17 b 408 29 388 28 388 12 b 388 -4 409 -5 412 8 l 405 9 b 404 3 395 2 395 13 z m 349 109 l 349 130 l 343 130 l 343 109 z m 60 392 b 41 387 25 403 30 423 b 37 454 96 479 133 476 b 121 462 103 438 88 412 b 86 417 86 422 86 427 b 62 423 62 402 75 390 b 49 338 36 285 81 274 b 71 295 83 339 102 380 b 169 380 217 456 165 480 b 171 484 174 482 174 481 l 174 481 b 172 498 157 499 145 488 l 147 486 b 97 495 22 473 4 428 b -14 384 33 351 60 392 z m 154 470 b 180 452 148 393 104 398 b 102 398 99 399 98 400 b 102 400 107 399 112 401 b 126 429 142 455 154 470 z m 415 13 b 415 -6 440 -4 440 12 b 440 29 415 29 415 13 z m 421 12 b 421 22 433 22 433 12 b 433 2 421 2 421 12 z m 465 21 b 462 26 455 26 450 21 l 450 25 l 444 25 l 444 0 l 451 0 b 451 6 450 17 453 19 b 462 25 459 7 459 0 l 466 0 b 466 6 465 17 468 19 b 476 25 474 7 474 0 l 480 0 l 480 16 b 480 28 470 27 465 21 z m 203 406 b 181 425 165 398 158 383 b 136 334 152 302 192 346 b 190 323 207 313 238 349 l 238 349 l 238 349 b 232 338 227 323 239 315 b 240 311 243 308 246 307 b 265 299 299 355 317 382 b 318 384 326 395 331 403 b 333 401 335 398 337 396 b 345 384 304 338 334 326 b 343 322 355 332 368 346 b 367 324 382 313 413 347 b 411 317 438 314 469 341 b 507 375 525 447 466 436 b 495 403 452 335 435 344 b 425 350 452 403 466 406 b 454 416 444 413 436 405 b 428 418 402 423 383 392 b 350 339 337 340 355 376 b 372 411 342 408 332 423 b 335 421 339 419 342 421 b 343 428 340 432 334 434 b 320 441 308 421 319 413 b 308 396 270 335 263 335 b 248 335 301 433 305 440 l 297 442 b 361 445 437 444 446 419 b 472 467 395 468 319 461 b 331 478 342 488 348 482 b 347 497 334 499 321 489 b 313 484 303 472 292 459 b 249 454 210 447 196 447 b 195 436 203 435 211 436 b 224 436 250 439 280 441 b 271 428 263 414 256 400 b 238 374 221 350 217 350 b 206 350 235 407 249 410 b 231 426 216 408 207 392 b 195 374 180 350 173 350 b 163 350 188 403 203 406 z m 427 393 b 428 393 428 393 428 393 l 428 393 l 427 393 b 427 393 427 393 427 393 b 424 388 400 350 393 350 b 385 350 413 414 427 393 z m 460 301 b 458 316 446 318 432 308 b 405 288 353 209 356 171 b 356 162 361 159 361 159 l 361 159 b 364 135 389 134 418 159 b 441 180 434 217 407 210 b 411 196 401 153 384 162 b 382 163 381 166 382 170 b 393 227 444 317 460 301 z m 49 8 l 45 25 l 39 25 l 34 8 l 30 25 l 24 25 l 31 0 l 38 0 l 42 16 l 46 0 l 52 0 l 60 25 l 54 25 z m 191 5 b 181 -1 184 21 184 25 l 177 25 l 177 9 b 177 -4 190 -2 193 4 l 193 0 l 193 0 l 193 0 l 199 0 l 199 25 l 193 25 b 193 18 194 8 191 5 z m 370 0 l 370 34 l 364 34 l 364 0 z m 228 21 l 228 25 l 222 25 l 222 0 l 228 0 b 228 6 226 24 235 18 l 237 24 b 233 26 230 25 228 21 z m 239 18 l 245 17 l 245 17 l 245 17 b 247 21 254 22 254 16 b 253 15 250 15 247 14 b 229 11 243 -8 254 3 l 255 0 l 261 0 l 260 16 b 260 30 242 27 239 18 z m 254 12 b 254 1 247 4 246 5 b 241 10 252 11 254 12 b 254 12 254 12 254 12 l 254 12 b 254 12 254 12 254 12 z m 272 13 b 272 22 281 21 281 16 l 288 17 l 288 17 l 288 17 b 284 29 265 28 265 12 b 265 -4 285 -5 288 8 l 282 9 b 281 3 272 2 272 13 z m 333 13 b 333 -6 359 -4 359 12 b 359 29 333 29 333 13 z m 340 12 b 340 22 352 22 352 12 b 352 2 340 2 340 12 z m 213 19 l 217 19 l 217 25 l 217 25 l 213 25 l 213 33 l 206 29 l 206 25 l 203 25 l 203 19 l 206 19 b 206 11 203 -6 218 0 l 217 5 b 211 3 213 6 213 19 z m 291 12 b 291 -4 310 -4 313 7 l 307 8 b 305 2 298 4 298 10 l 314 10 b 314 31 291 29 291 12 z m 298 14 b 298 22 307 22 307 14 z m 86 8 l 82 25 l 75 25 l 71 8 l 67 25 l 60 25 l 68 0 l 74 0 l 78 16 l 83 0 l 89 0 l 97 25 l 90 25 z m 142 0 l 142 7 l 135 7 l 135 0 z m 122 8 l 118 25 l 112 25 l 108 8 l 103 25 l 97 25 l 105 0 l 111 0 l 115 16 l 119 0 l 126 0 l 134 25 l 127 25 z m 312 244 b 331 244 330 219 322 198 b 308 158 270 152 295 201 b 303 216 314 231 321 233 b 303 249 286 230 276 208 b 259 168 266 148 282 146 b 311 143 347 179 354 213 b 360 244 337 263 312 244 z m 326 19 l 330 19 l 330 24 l 330 25 l 326 25 l 326 33 l 319 29 l 319 25 l 316 25 l 316 19 l 319 19 b 319 11 316 -6 331 0 l 330 5 b 324 3 326 6 326 19 z m 154 21 l 154 25 l 148 25 l 148 25 l 148 -9 l 155 -9 l 155 3 b 159 -2 165 -2 169 3 b 180 15 163 34 154 21 z m 155 13 l 155 13 b 155 13 155 13 155 13 b 155 22 165 23 165 12 b 165 1 155 2 155 13 z m 383 0 l 383 6 l 377 6 l 377 0 z"},"5":{"x_min":0,"x_max":564,"ha":564,"o":"m 449 65 l 449 73 l 186 73 l 186 65 z m 345 109 l 345 125 l 352 125 l 352 130 l 333 130 l 333 125 l 339 125 l 339 109 z m 316 115 l 314 111 l 323 108 l 323 108 b 333 108 338 119 324 122 b 316 124 322 128 330 124 l 331 129 b 319 136 305 121 322 117 b 332 115 323 110 316 115 z m 354 130 b 354 120 351 108 364 108 l 364 108 b 376 108 374 120 374 130 l 368 130 b 368 122 369 113 364 113 b 358 113 360 122 360 130 z m 221 172 b 220 138 249 137 277 164 b 268 132 272 105 303 98 b 285 137 324 214 356 265 l 347 268 b 381 268 424 263 431 245 b 449 279 418 289 373 289 b 385 304 395 310 396 305 l 396 305 b 394 321 382 323 368 313 b 363 309 355 300 346 288 b 310 286 271 280 241 276 b 254 362 143 306 123 206 b 107 132 171 116 221 172 z m 150 199 b 157 265 240 343 226 274 b 214 272 205 271 199 271 b 198 256 211 259 222 260 b 214 239 193 219 173 240 b 149 201 211 167 238 260 l 233 261 l 330 268 b 330 268 330 268 330 268 l 330 268 l 330 268 b 320 253 309 235 299 217 l 299 217 b 289 202 278 182 261 174 b 250 169 239 171 245 188 b 255 184 271 190 280 201 b 302 227 266 257 239 223 l 239 223 b 222 198 205 163 171 166 b 157 167 147 177 150 199 z m 251 201 b 273 240 282 202 251 201 z m 430 129 b 412 138 404 108 424 108 b 437 108 439 124 430 129 z m 424 113 b 417 113 416 122 421 125 b 429 130 434 113 424 113 z m 400 119 b 400 132 385 130 378 130 l 378 109 b 385 109 400 107 400 119 z m 387 114 l 387 114 l 384 114 l 384 125 b 399 125 394 114 387 114 z m 455 13 b 455 22 464 21 465 16 l 471 17 l 471 17 l 471 17 b 468 29 448 28 448 12 b 448 -4 469 -5 472 8 l 465 9 b 464 3 455 2 455 13 z m 409 109 l 409 130 l 403 130 l 403 109 z m 120 392 b 101 387 85 403 90 424 b 97 454 156 479 193 476 b 181 462 163 438 148 412 b 146 417 146 422 146 427 b 122 423 122 402 135 390 b 109 338 96 285 141 274 b 131 295 144 339 162 380 b 229 380 277 456 225 480 b 231 484 234 482 234 481 l 234 481 b 232 498 217 499 205 488 l 207 486 b 157 495 82 473 64 428 b 46 384 93 351 120 392 z m 214 470 b 240 452 208 393 164 398 b 162 398 159 399 158 400 b 162 400 167 399 172 401 b 186 429 202 455 214 470 z m 475 13 b 475 -6 500 -4 500 12 b 500 29 475 29 475 13 z m 481 12 b 481 22 493 22 493 12 b 493 2 481 2 481 12 z m 525 21 b 522 26 515 26 510 21 l 510 25 l 504 25 l 504 0 l 511 0 b 511 6 510 17 513 19 b 522 25 519 7 519 0 l 526 0 b 526 6 525 17 528 19 b 536 25 534 7 534 0 l 540 0 l 540 16 b 540 28 530 27 525 21 z m 263 406 b 241 425 225 398 218 383 b 196 334 212 302 252 346 b 250 323 267 313 298 349 l 298 349 l 298 349 b 292 338 287 323 299 315 b 300 311 303 308 306 307 b 325 299 359 355 377 382 b 378 384 386 395 391 403 b 393 401 395 398 397 396 b 405 384 364 338 394 326 b 403 322 415 332 428 346 b 427 324 442 313 473 347 b 471 317 498 314 529 341 b 567 375 585 447 526 436 b 555 403 512 335 495 344 b 485 350 512 403 526 406 b 514 416 504 413 496 405 b 488 418 462 423 443 392 b 410 339 397 340 415 376 b 432 411 402 408 392 423 b 395 421 399 419 402 421 b 403 428 400 432 394 434 b 380 441 368 421 379 413 b 368 396 330 335 323 335 b 308 335 361 433 365 440 l 357 442 b 421 445 497 444 506 419 b 532 467 455 468 379 461 b 391 478 402 488 408 482 b 407 497 394 499 381 489 b 373 484 363 472 352 459 b 309 454 270 447 256 447 b 255 436 263 435 271 436 b 284 436 310 439 340 441 b 331 428 323 414 316 400 b 298 374 281 350 277 350 b 266 350 295 407 309 410 b 291 426 276 408 267 392 b 255 374 240 350 233 350 b 223 350 248 403 263 406 z m 487 393 b 488 393 488 393 488 393 l 488 393 l 487 393 b 487 393 487 393 487 393 b 484 388 460 350 453 350 b 445 350 473 414 487 393 z m 520 301 b 518 316 506 318 492 308 b 465 288 413 209 416 171 b 416 162 421 159 421 159 l 421 159 b 424 135 449 134 478 159 b 501 180 494 217 467 210 b 471 196 461 153 444 162 b 442 163 441 166 442 170 b 453 227 504 317 520 301 z m 109 8 l 105 25 l 99 25 l 94 8 l 90 25 l 84 25 l 91 0 l 98 0 l 102 16 l 106 0 l 112 0 l 120 25 l 114 25 z m 251 5 b 241 -1 244 21 244 25 l 237 25 l 237 9 b 237 -4 250 -2 253 4 l 253 0 l 253 0 l 253 0 l 259 0 l 259 25 l 253 25 b 253 18 254 8 251 5 z m 430 0 l 430 34 l 424 34 l 424 0 z m 288 21 l 288 25 l 282 25 l 282 0 l 288 0 b 288 6 286 24 295 18 l 297 24 b 293 26 290 25 288 21 z m 299 18 l 305 17 l 305 17 l 305 17 b 307 21 314 22 314 16 b 313 15 310 15 307 14 b 289 11 303 -8 314 3 l 315 0 l 321 0 l 320 16 b 320 30 302 27 299 18 z m 314 12 b 314 1 307 4 306 5 b 301 10 312 11 314 12 b 314 12 314 12 314 12 l 314 12 b 314 12 314 12 314 12 z m 332 13 b 332 22 341 21 341 16 l 348 17 l 348 17 l 348 17 b 344 29 325 28 325 12 b 325 -4 345 -5 348 8 l 342 9 b 341 3 332 2 332 13 z m 393 13 b 393 -6 419 -4 419 12 b 419 29 393 29 393 13 z m 400 12 b 400 22 412 22 412 12 b 412 2 400 2 400 12 z m 273 19 l 277 19 l 277 25 l 277 25 l 273 25 l 273 33 l 266 29 l 266 25 l 263 25 l 263 19 l 266 19 b 266 11 263 -6 278 0 l 277 5 b 271 3 273 6 273 19 z m 351 12 b 351 -4 370 -4 373 7 l 367 8 b 365 2 358 4 358 10 l 374 10 b 374 31 351 29 351 12 z m 358 14 b 358 22 367 22 367 14 z m 146 8 l 142 25 l 135 25 l 131 8 l 127 25 l 120 25 l 128 0 l 134 0 l 138 16 l 143 0 l 149 0 l 157 25 l 150 25 z m 202 0 l 202 7 l 195 7 l 195 0 z m 182 8 l 178 25 l 172 25 l 168 8 l 163 25 l 157 25 l 165 0 l 171 0 l 175 16 l 179 0 l 186 0 l 194 25 l 187 25 z m 372 244 b 391 244 390 219 382 198 b 368 158 330 152 355 201 b 363 216 374 231 381 233 b 363 249 346 230 336 208 b 319 168 326 148 342 146 b 371 143 407 179 414 213 b 420 244 397 263 372 244 z m 386 19 l 390 19 l 390 24 l 390 25 l 386 25 l 386 33 l 379 29 l 379 25 l 376 25 l 376 19 l 379 19 b 379 11 376 -6 391 0 l 390 5 b 384 3 386 6 386 19 z m 214 21 l 214 25 l 208 25 l 208 25 l 208 -9 l 215 -9 l 215 3 b 219 -2 225 -2 229 3 b 240 15 223 34 214 21 z m 215 13 l 215 13 b 215 13 215 13 215 13 b 215 22 225 23 225 12 b 225 1 215 2 215 13 z m 443 0 l 443 6 l 437 6 l 437 0 z"}}}
